<?xml version="1.0" encoding="utf-8" standalone="no"?>
<!DOCTYPE svg PUBLIC "-//W3C//DTD SVG 1.1//EN"
  "http://www.w3.org/Graphics/SVG/1.1/DTD/svg11.dtd">
<svg xmlns:xlink="http://www.w3.org/1999/xlink" width="864pt" height="576pt" viewBox="0 0 864 576" xmlns="http://www.w3.org/2000/svg" version="1.1">
 <metadata>
  <rdf:RDF xmlns:dc="http://purl.org/dc/elements/1.1/" xmlns:cc="http://creativecommons.org/ns#" xmlns:rdf="http://www.w3.org/1999/02/22-rdf-syntax-ns#">
   <cc:Work>
    <dc:type rdf:resource="http://purl.org/dc/dcmitype/StillImage"/>
    <dc:date>2023-08-30T16:33:25.716155</dc:date>
    <dc:format>image/svg+xml</dc:format>
    <dc:creator>
     <cc:Agent>
      <dc:title>Matplotlib v3.7.1, https://matplotlib.org/</dc:title>
     </cc:Agent>
    </dc:creator>
   </cc:Work>
  </rdf:RDF>
 </metadata>
 <defs>
  <style type="text/css">*{stroke-linejoin: round; stroke-linecap: butt}</style>
 </defs>
 <g id="figure_1">
  <g id="patch_1">
   <path d="M 0 576 
L 864 576 
L 864 0 
L 0 0 
z
" style="fill: #ffffff"/>
  </g>
  <g id="axes_1">
   <g id="patch_2">
    <path d="M 88.85 505.96 
L 853.2 505.96 
L 853.2 36.24 
L 88.85 36.24 
z
" style="fill: #ffffff"/>
   </g>
   <g id="matplotlib.axis_1">
    <g id="xtick_1">
     <g id="line2d_1">
      <path d="M 123.593182 505.96 
L 123.593182 36.24 
" clip-path="url(#p4834e85c73)" style="fill: none; stroke-dasharray: 1.85,0.8; stroke-dashoffset: 0; stroke: #808080; stroke-width: 0.5"/>
     </g>
     <g id="line2d_2">
      <defs>
       <path id="m5e5a2de34d" d="M 0 0 
L 0 3.5 
" style="stroke: #000000; stroke-width: 0.8"/>
      </defs>
      <g>
       <use xlink:href="#m5e5a2de34d" x="123.593182" y="505.96" style="stroke: #000000; stroke-width: 0.8"/>
      </g>
     </g>
     <g id="text_1">
      <!-- 0 -->
      <g transform="translate(115.243807 531.19625) scale(0.24 -0.24)">
       <defs>
        <path id="DejaVuSans-Bold-30" d="M 2944 2338 
Q 2944 3213 2780 3570 
Q 2616 3928 2228 3928 
Q 1841 3928 1675 3570 
Q 1509 3213 1509 2338 
Q 1509 1453 1675 1090 
Q 1841 728 2228 728 
Q 2613 728 2778 1090 
Q 2944 1453 2944 2338 
z
M 4147 2328 
Q 4147 1169 3647 539 
Q 3147 -91 2228 -91 
Q 1306 -91 806 539 
Q 306 1169 306 2328 
Q 306 3491 806 4120 
Q 1306 4750 2228 4750 
Q 3147 4750 3647 4120 
Q 4147 3491 4147 2328 
z
" transform="scale(0.015625)"/>
       </defs>
       <use xlink:href="#DejaVuSans-Bold-30"/>
      </g>
     </g>
    </g>
    <g id="xtick_2">
     <g id="line2d_3">
      <path d="M 234.771364 505.96 
L 234.771364 36.24 
" clip-path="url(#p4834e85c73)" style="fill: none; stroke-dasharray: 1.85,0.8; stroke-dashoffset: 0; stroke: #808080; stroke-width: 0.5"/>
     </g>
     <g id="line2d_4">
      <g>
       <use xlink:href="#m5e5a2de34d" x="234.771364" y="505.96" style="stroke: #000000; stroke-width: 0.8"/>
      </g>
     </g>
     <g id="text_2">
      <!-- 20 -->
      <g transform="translate(218.072614 531.19625) scale(0.24 -0.24)">
       <defs>
        <path id="DejaVuSans-Bold-32" d="M 1844 884 
L 3897 884 
L 3897 0 
L 506 0 
L 506 884 
L 2209 2388 
Q 2438 2594 2547 2791 
Q 2656 2988 2656 3200 
Q 2656 3528 2436 3728 
Q 2216 3928 1850 3928 
Q 1569 3928 1234 3808 
Q 900 3688 519 3450 
L 519 4475 
Q 925 4609 1322 4679 
Q 1719 4750 2100 4750 
Q 2938 4750 3402 4381 
Q 3866 4013 3866 3353 
Q 3866 2972 3669 2642 
Q 3472 2313 2841 1759 
L 1844 884 
z
" transform="scale(0.015625)"/>
       </defs>
       <use xlink:href="#DejaVuSans-Bold-32"/>
       <use xlink:href="#DejaVuSans-Bold-30" x="69.580078"/>
      </g>
     </g>
    </g>
    <g id="xtick_3">
     <g id="line2d_5">
      <path d="M 345.949545 505.96 
L 345.949545 36.24 
" clip-path="url(#p4834e85c73)" style="fill: none; stroke-dasharray: 1.85,0.8; stroke-dashoffset: 0; stroke: #808080; stroke-width: 0.5"/>
     </g>
     <g id="line2d_6">
      <g>
       <use xlink:href="#m5e5a2de34d" x="345.949545" y="505.96" style="stroke: #000000; stroke-width: 0.8"/>
      </g>
     </g>
     <g id="text_3">
      <!-- 40 -->
      <g transform="translate(329.250795 531.19625) scale(0.24 -0.24)">
       <defs>
        <path id="DejaVuSans-Bold-34" d="M 2356 3675 
L 1038 1722 
L 2356 1722 
L 2356 3675 
z
M 2156 4666 
L 3494 4666 
L 3494 1722 
L 4159 1722 
L 4159 850 
L 3494 850 
L 3494 0 
L 2356 0 
L 2356 850 
L 288 850 
L 288 1881 
L 2156 4666 
z
" transform="scale(0.015625)"/>
       </defs>
       <use xlink:href="#DejaVuSans-Bold-34"/>
       <use xlink:href="#DejaVuSans-Bold-30" x="69.580078"/>
      </g>
     </g>
    </g>
    <g id="xtick_4">
     <g id="line2d_7">
      <path d="M 457.127727 505.96 
L 457.127727 36.24 
" clip-path="url(#p4834e85c73)" style="fill: none; stroke-dasharray: 1.85,0.8; stroke-dashoffset: 0; stroke: #808080; stroke-width: 0.5"/>
     </g>
     <g id="line2d_8">
      <g>
       <use xlink:href="#m5e5a2de34d" x="457.127727" y="505.96" style="stroke: #000000; stroke-width: 0.8"/>
      </g>
     </g>
     <g id="text_4">
      <!-- 60 -->
      <g transform="translate(440.428977 531.19625) scale(0.24 -0.24)">
       <defs>
        <path id="DejaVuSans-Bold-36" d="M 2316 2303 
Q 2000 2303 1842 2098 
Q 1684 1894 1684 1484 
Q 1684 1075 1842 870 
Q 2000 666 2316 666 
Q 2634 666 2792 870 
Q 2950 1075 2950 1484 
Q 2950 1894 2792 2098 
Q 2634 2303 2316 2303 
z
M 3803 4544 
L 3803 3681 
Q 3506 3822 3243 3889 
Q 2981 3956 2731 3956 
Q 2194 3956 1894 3657 
Q 1594 3359 1544 2772 
Q 1750 2925 1990 3001 
Q 2231 3078 2516 3078 
Q 3231 3078 3670 2659 
Q 4109 2241 4109 1563 
Q 4109 813 3618 361 
Q 3128 -91 2303 -91 
Q 1394 -91 895 523 
Q 397 1138 397 2266 
Q 397 3422 980 4083 
Q 1563 4744 2578 4744 
Q 2900 4744 3203 4694 
Q 3506 4644 3803 4544 
z
" transform="scale(0.015625)"/>
       </defs>
       <use xlink:href="#DejaVuSans-Bold-36"/>
       <use xlink:href="#DejaVuSans-Bold-30" x="69.580078"/>
      </g>
     </g>
    </g>
    <g id="xtick_5">
     <g id="line2d_9">
      <path d="M 568.305909 505.96 
L 568.305909 36.24 
" clip-path="url(#p4834e85c73)" style="fill: none; stroke-dasharray: 1.85,0.8; stroke-dashoffset: 0; stroke: #808080; stroke-width: 0.5"/>
     </g>
     <g id="line2d_10">
      <g>
       <use xlink:href="#m5e5a2de34d" x="568.305909" y="505.96" style="stroke: #000000; stroke-width: 0.8"/>
      </g>
     </g>
     <g id="text_5">
      <!-- 80 -->
      <g transform="translate(551.607159 531.19625) scale(0.24 -0.24)">
       <defs>
        <path id="DejaVuSans-Bold-38" d="M 2228 2088 
Q 1891 2088 1709 1903 
Q 1528 1719 1528 1375 
Q 1528 1031 1709 848 
Q 1891 666 2228 666 
Q 2563 666 2741 848 
Q 2919 1031 2919 1375 
Q 2919 1722 2741 1905 
Q 2563 2088 2228 2088 
z
M 1350 2484 
Q 925 2613 709 2878 
Q 494 3144 494 3541 
Q 494 4131 934 4440 
Q 1375 4750 2228 4750 
Q 3075 4750 3515 4442 
Q 3956 4134 3956 3541 
Q 3956 3144 3739 2878 
Q 3522 2613 3097 2484 
Q 3572 2353 3814 2058 
Q 4056 1763 4056 1313 
Q 4056 619 3595 264 
Q 3134 -91 2228 -91 
Q 1319 -91 855 264 
Q 391 619 391 1313 
Q 391 1763 633 2058 
Q 875 2353 1350 2484 
z
M 1631 3419 
Q 1631 3141 1786 2991 
Q 1941 2841 2228 2841 
Q 2509 2841 2662 2991 
Q 2816 3141 2816 3419 
Q 2816 3697 2662 3845 
Q 2509 3994 2228 3994 
Q 1941 3994 1786 3844 
Q 1631 3694 1631 3419 
z
" transform="scale(0.015625)"/>
       </defs>
       <use xlink:href="#DejaVuSans-Bold-38"/>
       <use xlink:href="#DejaVuSans-Bold-30" x="69.580078"/>
      </g>
     </g>
    </g>
    <g id="xtick_6">
     <g id="line2d_11">
      <path d="M 679.484091 505.96 
L 679.484091 36.24 
" clip-path="url(#p4834e85c73)" style="fill: none; stroke-dasharray: 1.85,0.8; stroke-dashoffset: 0; stroke: #808080; stroke-width: 0.5"/>
     </g>
     <g id="line2d_12">
      <g>
       <use xlink:href="#m5e5a2de34d" x="679.484091" y="505.96" style="stroke: #000000; stroke-width: 0.8"/>
      </g>
     </g>
     <g id="text_6">
      <!-- 100 -->
      <g transform="translate(654.435966 531.19625) scale(0.24 -0.24)">
       <defs>
        <path id="DejaVuSans-Bold-31" d="M 750 831 
L 1813 831 
L 1813 3847 
L 722 3622 
L 722 4441 
L 1806 4666 
L 2950 4666 
L 2950 831 
L 4013 831 
L 4013 0 
L 750 0 
L 750 831 
z
" transform="scale(0.015625)"/>
       </defs>
       <use xlink:href="#DejaVuSans-Bold-31"/>
       <use xlink:href="#DejaVuSans-Bold-30" x="69.580078"/>
       <use xlink:href="#DejaVuSans-Bold-30" x="139.160156"/>
      </g>
     </g>
    </g>
    <g id="xtick_7">
     <g id="line2d_13">
      <path d="M 790.662273 505.96 
L 790.662273 36.24 
" clip-path="url(#p4834e85c73)" style="fill: none; stroke-dasharray: 1.85,0.8; stroke-dashoffset: 0; stroke: #808080; stroke-width: 0.5"/>
     </g>
     <g id="line2d_14">
      <g>
       <use xlink:href="#m5e5a2de34d" x="790.662273" y="505.96" style="stroke: #000000; stroke-width: 0.8"/>
      </g>
     </g>
     <g id="text_7">
      <!-- 120 -->
      <g transform="translate(765.614148 531.19625) scale(0.24 -0.24)">
       <use xlink:href="#DejaVuSans-Bold-31"/>
       <use xlink:href="#DejaVuSans-Bold-32" x="69.580078"/>
       <use xlink:href="#DejaVuSans-Bold-30" x="139.160156"/>
      </g>
     </g>
    </g>
    <g id="text_8">
     <!-- Frequency (Hz) -->
     <g transform="translate(364.345312 559.15625) scale(0.25 -0.25)">
      <defs>
       <path id="DejaVuSans-Bold-46" d="M 588 4666 
L 3834 4666 
L 3834 3756 
L 1791 3756 
L 1791 2888 
L 3713 2888 
L 3713 1978 
L 1791 1978 
L 1791 0 
L 588 0 
L 588 4666 
z
" transform="scale(0.015625)"/>
       <path id="DejaVuSans-Bold-72" d="M 3138 2547 
Q 2991 2616 2845 2648 
Q 2700 2681 2553 2681 
Q 2122 2681 1889 2404 
Q 1656 2128 1656 1613 
L 1656 0 
L 538 0 
L 538 3500 
L 1656 3500 
L 1656 2925 
Q 1872 3269 2151 3426 
Q 2431 3584 2822 3584 
Q 2878 3584 2943 3579 
Q 3009 3575 3134 3559 
L 3138 2547 
z
" transform="scale(0.015625)"/>
       <path id="DejaVuSans-Bold-65" d="M 4031 1759 
L 4031 1441 
L 1416 1441 
Q 1456 1047 1700 850 
Q 1944 653 2381 653 
Q 2734 653 3104 758 
Q 3475 863 3866 1075 
L 3866 213 
Q 3469 63 3072 -14 
Q 2675 -91 2278 -91 
Q 1328 -91 801 392 
Q 275 875 275 1747 
Q 275 2603 792 3093 
Q 1309 3584 2216 3584 
Q 3041 3584 3536 3087 
Q 4031 2591 4031 1759 
z
M 2881 2131 
Q 2881 2450 2695 2645 
Q 2509 2841 2209 2841 
Q 1884 2841 1681 2658 
Q 1478 2475 1428 2131 
L 2881 2131 
z
" transform="scale(0.015625)"/>
       <path id="DejaVuSans-Bold-71" d="M 2181 2772 
Q 1825 2772 1636 2509 
Q 1447 2247 1447 1747 
Q 1447 1247 1636 984 
Q 1825 722 2181 722 
Q 2541 722 2730 984 
Q 2919 1247 2919 1747 
Q 2919 2247 2730 2509 
Q 2541 2772 2181 2772 
z
M 2919 506 
Q 2688 197 2409 53 
Q 2131 -91 1766 -91 
Q 1119 -91 703 423 
Q 288 938 288 1747 
Q 288 2556 703 3067 
Q 1119 3578 1766 3578 
Q 2131 3578 2409 3434 
Q 2688 3291 2919 2981 
L 2919 3500 
L 4044 3500 
L 4044 -1331 
L 2919 -1331 
L 2919 506 
z
" transform="scale(0.015625)"/>
       <path id="DejaVuSans-Bold-75" d="M 500 1363 
L 500 3500 
L 1625 3500 
L 1625 3150 
Q 1625 2866 1622 2436 
Q 1619 2006 1619 1863 
Q 1619 1441 1641 1255 
Q 1663 1069 1716 984 
Q 1784 875 1895 815 
Q 2006 756 2150 756 
Q 2500 756 2700 1025 
Q 2900 1294 2900 1772 
L 2900 3500 
L 4019 3500 
L 4019 0 
L 2900 0 
L 2900 506 
Q 2647 200 2364 54 
Q 2081 -91 1741 -91 
Q 1134 -91 817 281 
Q 500 653 500 1363 
z
" transform="scale(0.015625)"/>
       <path id="DejaVuSans-Bold-6e" d="M 4056 2131 
L 4056 0 
L 2931 0 
L 2931 347 
L 2931 1631 
Q 2931 2084 2911 2256 
Q 2891 2428 2841 2509 
Q 2775 2619 2662 2680 
Q 2550 2741 2406 2741 
Q 2056 2741 1856 2470 
Q 1656 2200 1656 1722 
L 1656 0 
L 538 0 
L 538 3500 
L 1656 3500 
L 1656 2988 
Q 1909 3294 2193 3439 
Q 2478 3584 2822 3584 
Q 3428 3584 3742 3212 
Q 4056 2841 4056 2131 
z
" transform="scale(0.015625)"/>
       <path id="DejaVuSans-Bold-63" d="M 3366 3391 
L 3366 2478 
Q 3138 2634 2908 2709 
Q 2678 2784 2431 2784 
Q 1963 2784 1702 2511 
Q 1441 2238 1441 1747 
Q 1441 1256 1702 982 
Q 1963 709 2431 709 
Q 2694 709 2930 787 
Q 3166 866 3366 1019 
L 3366 103 
Q 3103 6 2833 -42 
Q 2563 -91 2291 -91 
Q 1344 -91 809 395 
Q 275 881 275 1747 
Q 275 2613 809 3098 
Q 1344 3584 2291 3584 
Q 2566 3584 2833 3536 
Q 3100 3488 3366 3391 
z
" transform="scale(0.015625)"/>
       <path id="DejaVuSans-Bold-79" d="M 78 3500 
L 1197 3500 
L 2138 1125 
L 2938 3500 
L 4056 3500 
L 2584 -331 
Q 2363 -916 2067 -1148 
Q 1772 -1381 1288 -1381 
L 641 -1381 
L 641 -647 
L 991 -647 
Q 1275 -647 1404 -556 
Q 1534 -466 1606 -231 
L 1638 -134 
L 78 3500 
z
" transform="scale(0.015625)"/>
       <path id="DejaVuSans-Bold-20" transform="scale(0.015625)"/>
       <path id="DejaVuSans-Bold-28" d="M 2413 -844 
L 1484 -844 
Q 1006 -72 778 623 
Q 550 1319 550 2003 
Q 550 2688 779 3389 
Q 1009 4091 1484 4856 
L 2413 4856 
Q 2013 4116 1813 3408 
Q 1613 2700 1613 2009 
Q 1613 1319 1811 609 
Q 2009 -100 2413 -844 
z
" transform="scale(0.015625)"/>
       <path id="DejaVuSans-Bold-48" d="M 588 4666 
L 1791 4666 
L 1791 2888 
L 3566 2888 
L 3566 4666 
L 4769 4666 
L 4769 0 
L 3566 0 
L 3566 1978 
L 1791 1978 
L 1791 0 
L 588 0 
L 588 4666 
z
" transform="scale(0.015625)"/>
       <path id="DejaVuSans-Bold-7a" d="M 366 3500 
L 3419 3500 
L 3419 2719 
L 1575 800 
L 3419 800 
L 3419 0 
L 288 0 
L 288 781 
L 2131 2700 
L 366 2700 
L 366 3500 
z
" transform="scale(0.015625)"/>
       <path id="DejaVuSans-Bold-29" d="M 513 -844 
Q 913 -100 1113 609 
Q 1313 1319 1313 2009 
Q 1313 2700 1113 3408 
Q 913 4116 513 4856 
L 1441 4856 
Q 1916 4091 2145 3389 
Q 2375 2688 2375 2003 
Q 2375 1319 2147 623 
Q 1919 -72 1441 -844 
L 513 -844 
z
" transform="scale(0.015625)"/>
      </defs>
      <use xlink:href="#DejaVuSans-Bold-46"/>
      <use xlink:href="#DejaVuSans-Bold-72" x="61.935547"/>
      <use xlink:href="#DejaVuSans-Bold-65" x="111.251953"/>
      <use xlink:href="#DejaVuSans-Bold-71" x="179.074219"/>
      <use xlink:href="#DejaVuSans-Bold-75" x="250.65625"/>
      <use xlink:href="#DejaVuSans-Bold-65" x="321.847656"/>
      <use xlink:href="#DejaVuSans-Bold-6e" x="389.669922"/>
      <use xlink:href="#DejaVuSans-Bold-63" x="460.861328"/>
      <use xlink:href="#DejaVuSans-Bold-79" x="520.138672"/>
      <use xlink:href="#DejaVuSans-Bold-20" x="585.324219"/>
      <use xlink:href="#DejaVuSans-Bold-28" x="620.138672"/>
      <use xlink:href="#DejaVuSans-Bold-48" x="665.841797"/>
      <use xlink:href="#DejaVuSans-Bold-7a" x="749.533203"/>
      <use xlink:href="#DejaVuSans-Bold-29" x="807.736328"/>
     </g>
    </g>
   </g>
   <g id="matplotlib.axis_2">
    <g id="ytick_1">
     <g id="line2d_15">
      <path d="M 88.85 485.660024 
L 853.2 485.660024 
" clip-path="url(#p4834e85c73)" style="fill: none; stroke-dasharray: 1.85,0.8; stroke-dashoffset: 0; stroke: #808080; stroke-width: 0.5"/>
     </g>
     <g id="line2d_16">
      <defs>
       <path id="m434a8e91a6" d="M 0 0 
L -3.5 0 
" style="stroke: #000000; stroke-width: 0.8"/>
      </defs>
      <g>
       <use xlink:href="#m434a8e91a6" x="88.85" y="485.660024" style="stroke: #000000; stroke-width: 0.8"/>
      </g>
     </g>
     <g id="text_9">
      <!-- 0.0 -->
      <g transform="translate(39.33625 494.778149) scale(0.24 -0.24)">
       <defs>
        <path id="DejaVuSans-Bold-2e" d="M 653 1209 
L 1778 1209 
L 1778 0 
L 653 0 
L 653 1209 
z
" transform="scale(0.015625)"/>
       </defs>
       <use xlink:href="#DejaVuSans-Bold-30"/>
       <use xlink:href="#DejaVuSans-Bold-2e" x="69.580078"/>
       <use xlink:href="#DejaVuSans-Bold-30" x="107.568359"/>
      </g>
     </g>
    </g>
    <g id="ytick_2">
     <g id="line2d_17">
      <path d="M 88.85 385.199396 
L 853.2 385.199396 
" clip-path="url(#p4834e85c73)" style="fill: none; stroke-dasharray: 1.85,0.8; stroke-dashoffset: 0; stroke: #808080; stroke-width: 0.5"/>
     </g>
     <g id="line2d_18">
      <g>
       <use xlink:href="#m434a8e91a6" x="88.85" y="385.199396" style="stroke: #000000; stroke-width: 0.8"/>
      </g>
     </g>
     <g id="text_10">
      <!-- 0.2 -->
      <g transform="translate(39.33625 394.317521) scale(0.24 -0.24)">
       <use xlink:href="#DejaVuSans-Bold-30"/>
       <use xlink:href="#DejaVuSans-Bold-2e" x="69.580078"/>
       <use xlink:href="#DejaVuSans-Bold-32" x="107.568359"/>
      </g>
     </g>
    </g>
    <g id="ytick_3">
     <g id="line2d_19">
      <path d="M 88.85 284.738768 
L 853.2 284.738768 
" clip-path="url(#p4834e85c73)" style="fill: none; stroke-dasharray: 1.85,0.8; stroke-dashoffset: 0; stroke: #808080; stroke-width: 0.5"/>
     </g>
     <g id="line2d_20">
      <g>
       <use xlink:href="#m434a8e91a6" x="88.85" y="284.738768" style="stroke: #000000; stroke-width: 0.8"/>
      </g>
     </g>
     <g id="text_11">
      <!-- 0.4 -->
      <g transform="translate(39.33625 293.856893) scale(0.24 -0.24)">
       <use xlink:href="#DejaVuSans-Bold-30"/>
       <use xlink:href="#DejaVuSans-Bold-2e" x="69.580078"/>
       <use xlink:href="#DejaVuSans-Bold-34" x="107.568359"/>
      </g>
     </g>
    </g>
    <g id="ytick_4">
     <g id="line2d_21">
      <path d="M 88.85 184.27814 
L 853.2 184.27814 
" clip-path="url(#p4834e85c73)" style="fill: none; stroke-dasharray: 1.85,0.8; stroke-dashoffset: 0; stroke: #808080; stroke-width: 0.5"/>
     </g>
     <g id="line2d_22">
      <g>
       <use xlink:href="#m434a8e91a6" x="88.85" y="184.27814" style="stroke: #000000; stroke-width: 0.8"/>
      </g>
     </g>
     <g id="text_12">
      <!-- 0.6 -->
      <g transform="translate(39.33625 193.396265) scale(0.24 -0.24)">
       <use xlink:href="#DejaVuSans-Bold-30"/>
       <use xlink:href="#DejaVuSans-Bold-2e" x="69.580078"/>
       <use xlink:href="#DejaVuSans-Bold-36" x="107.568359"/>
      </g>
     </g>
    </g>
    <g id="ytick_5">
     <g id="line2d_23">
      <path d="M 88.85 83.817512 
L 853.2 83.817512 
" clip-path="url(#p4834e85c73)" style="fill: none; stroke-dasharray: 1.85,0.8; stroke-dashoffset: 0; stroke: #808080; stroke-width: 0.5"/>
     </g>
     <g id="line2d_24">
      <g>
       <use xlink:href="#m434a8e91a6" x="88.85" y="83.817512" style="stroke: #000000; stroke-width: 0.8"/>
      </g>
     </g>
     <g id="text_13">
      <!-- 0.8 -->
      <g transform="translate(39.33625 92.935637) scale(0.24 -0.24)">
       <use xlink:href="#DejaVuSans-Bold-30"/>
       <use xlink:href="#DejaVuSans-Bold-2e" x="69.580078"/>
       <use xlink:href="#DejaVuSans-Bold-38" x="107.568359"/>
      </g>
     </g>
    </g>
    <g id="text_14">
     <!-- Amplitude (m) -->
     <g transform="translate(30.137031 372.418359) rotate(-90) scale(0.25 -0.25)">
      <defs>
       <path id="DejaVuSans-Bold-41" d="M 3419 850 
L 1538 850 
L 1241 0 
L 31 0 
L 1759 4666 
L 3194 4666 
L 4922 0 
L 3713 0 
L 3419 850 
z
M 1838 1716 
L 3116 1716 
L 2478 3572 
L 1838 1716 
z
" transform="scale(0.015625)"/>
       <path id="DejaVuSans-Bold-6d" d="M 3781 2919 
Q 3994 3244 4286 3414 
Q 4578 3584 4928 3584 
Q 5531 3584 5847 3212 
Q 6163 2841 6163 2131 
L 6163 0 
L 5038 0 
L 5038 1825 
Q 5041 1866 5042 1909 
Q 5044 1953 5044 2034 
Q 5044 2406 4934 2573 
Q 4825 2741 4581 2741 
Q 4263 2741 4089 2478 
Q 3916 2216 3909 1719 
L 3909 0 
L 2784 0 
L 2784 1825 
Q 2784 2406 2684 2573 
Q 2584 2741 2328 2741 
Q 2006 2741 1831 2477 
Q 1656 2213 1656 1722 
L 1656 0 
L 531 0 
L 531 3500 
L 1656 3500 
L 1656 2988 
Q 1863 3284 2130 3434 
Q 2397 3584 2719 3584 
Q 3081 3584 3359 3409 
Q 3638 3234 3781 2919 
z
" transform="scale(0.015625)"/>
       <path id="DejaVuSans-Bold-70" d="M 1656 506 
L 1656 -1331 
L 538 -1331 
L 538 3500 
L 1656 3500 
L 1656 2988 
Q 1888 3294 2169 3439 
Q 2450 3584 2816 3584 
Q 3463 3584 3878 3070 
Q 4294 2556 4294 1747 
Q 4294 938 3878 423 
Q 3463 -91 2816 -91 
Q 2450 -91 2169 54 
Q 1888 200 1656 506 
z
M 2400 2772 
Q 2041 2772 1848 2508 
Q 1656 2244 1656 1747 
Q 1656 1250 1848 986 
Q 2041 722 2400 722 
Q 2759 722 2948 984 
Q 3138 1247 3138 1747 
Q 3138 2247 2948 2509 
Q 2759 2772 2400 2772 
z
" transform="scale(0.015625)"/>
       <path id="DejaVuSans-Bold-6c" d="M 538 4863 
L 1656 4863 
L 1656 0 
L 538 0 
L 538 4863 
z
" transform="scale(0.015625)"/>
       <path id="DejaVuSans-Bold-69" d="M 538 3500 
L 1656 3500 
L 1656 0 
L 538 0 
L 538 3500 
z
M 538 4863 
L 1656 4863 
L 1656 3950 
L 538 3950 
L 538 4863 
z
" transform="scale(0.015625)"/>
       <path id="DejaVuSans-Bold-74" d="M 1759 4494 
L 1759 3500 
L 2913 3500 
L 2913 2700 
L 1759 2700 
L 1759 1216 
Q 1759 972 1856 886 
Q 1953 800 2241 800 
L 2816 800 
L 2816 0 
L 1856 0 
Q 1194 0 917 276 
Q 641 553 641 1216 
L 641 2700 
L 84 2700 
L 84 3500 
L 641 3500 
L 641 4494 
L 1759 4494 
z
" transform="scale(0.015625)"/>
       <path id="DejaVuSans-Bold-64" d="M 2919 2988 
L 2919 4863 
L 4044 4863 
L 4044 0 
L 2919 0 
L 2919 506 
Q 2688 197 2409 53 
Q 2131 -91 1766 -91 
Q 1119 -91 703 423 
Q 288 938 288 1747 
Q 288 2556 703 3070 
Q 1119 3584 1766 3584 
Q 2128 3584 2408 3439 
Q 2688 3294 2919 2988 
z
M 2181 722 
Q 2541 722 2730 984 
Q 2919 1247 2919 1747 
Q 2919 2247 2730 2509 
Q 2541 2772 2181 2772 
Q 1825 2772 1636 2509 
Q 1447 2247 1447 1747 
Q 1447 1247 1636 984 
Q 1825 722 2181 722 
z
" transform="scale(0.015625)"/>
      </defs>
      <use xlink:href="#DejaVuSans-Bold-41"/>
      <use xlink:href="#DejaVuSans-Bold-6d" x="77.392578"/>
      <use xlink:href="#DejaVuSans-Bold-70" x="181.591797"/>
      <use xlink:href="#DejaVuSans-Bold-6c" x="253.173828"/>
      <use xlink:href="#DejaVuSans-Bold-69" x="287.451172"/>
      <use xlink:href="#DejaVuSans-Bold-74" x="321.728516"/>
      <use xlink:href="#DejaVuSans-Bold-75" x="369.53125"/>
      <use xlink:href="#DejaVuSans-Bold-64" x="440.722656"/>
      <use xlink:href="#DejaVuSans-Bold-65" x="512.304688"/>
      <use xlink:href="#DejaVuSans-Bold-20" x="580.126953"/>
      <use xlink:href="#DejaVuSans-Bold-28" x="614.941406"/>
      <use xlink:href="#DejaVuSans-Bold-6d" x="660.644531"/>
      <use xlink:href="#DejaVuSans-Bold-29" x="764.84375"/>
     </g>
    </g>
   </g>
   <g id="line2d_25">
    <path d="M 123.593182 476.478204 
L 123.932471 484.305724 
L 127.325359 484.438998 
L 130.378959 484.50655 
L 132.75398 484.330781 
L 138.182605 483.827164 
L 140.896915 483.838731 
L 144.968382 483.905572 
L 147.343404 483.675731 
L 155.825627 482.466869 
L 158.200648 482.269605 
L 159.897094 481.969798 
L 163.28998 480.615127 
L 164.647137 479.873698 
L 165.665001 479.158554 
L 168.379317 477.433469 
L 169.057893 476.785644 
L 169.397181 476.450482 
L 169.736469 476.35189 
L 170.075757 475.74899 
L 170.41505 474.711765 
L 170.754338 475.183658 
L 171.432914 474.622505 
L 171.772202 473.554408 
L 172.11149 473.982124 
L 172.450778 473.029099 
L 172.790072 472.665718 
L 174.147224 469.922681 
L 174.486512 469.28558 
L 174.825806 468.386768 
L 175.504382 467.238272 
L 175.84367 466.245546 
L 176.522246 463.315913 
L 176.861539 463.271454 
L 177.200827 461.448405 
L 177.540115 460.591913 
L 177.879403 458.414755 
L 178.218691 457.710059 
L 178.897267 453.564591 
L 179.236583 452.668452 
L 179.915159 448.303097 
L 180.25442 445.24289 
L 180.593735 443.34432 
L 180.932996 440.222139 
L 181.272311 438.781468 
L 181.611572 436.584274 
L 181.950887 430.947961 
L 182.290148 427.805904 
L 182.629463 426.409501 
L 182.968724 423.274075 
L 183.308039 418.089904 
L 183.6473 417.200627 
L 183.986615 410.34665 
L 184.325876 406.529448 
L 185.004452 402.337979 
L 185.343768 398.023798 
L 185.683028 390.324596 
L 186.022344 388.130988 
L 186.361604 387.091522 
L 188.058072 367.555446 
L 188.397332 368.006665 
L 189.075964 357.194338 
L 189.415224 356.615836 
L 189.75454 354.316292 
L 190.0938 348.8111 
L 190.433116 348.094113 
L 190.772376 345.403777 
L 191.111692 340.928457 
L 191.450952 341.843703 
L 192.129528 336.348607 
L 192.468844 340.618737 
L 192.808104 339.845943 
L 193.14742 337.885756 
L 193.825996 341.410768 
L 194.165256 341.149571 
L 194.843832 344.927192 
L 195.183148 341.611589 
L 195.861724 347.954673 
L 196.200984 343.73608 
L 196.87956 346.34007 
L 197.218876 345.577674 
L 197.558136 343.497888 
L 197.897452 342.707213 
L 198.236712 343.638684 
L 198.576028 342.491122 
L 198.915288 340.292943 
L 199.254604 341.318043 
L 199.93318 341.459944 
L 200.272496 336.77672 
L 200.611756 339.272313 
L 200.951072 338.917637 
L 201.290332 338.355962 
L 201.629648 337.209053 
L 201.968908 334.06579 
L 202.647484 336.871857 
L 202.9868 334.734456 
L 203.32606 335.301758 
L 203.665376 334.078901 
L 204.004636 335.288899 
L 204.343952 334.764142 
L 204.683212 333.283303 
L 205.022528 335.525634 
L 205.361788 332.438378 
L 205.701104 327.552878 
L 206.37968 329.835795 
L 206.71894 326.049886 
L 207.397516 323.714679 
L 207.736832 324.241545 
L 208.076092 318.470584 
L 208.754668 323.49035 
L 209.093984 318.091144 
L 209.433245 319.424558 
L 209.77256 316.361564 
L 210.111821 316.888028 
L 210.451136 313.821567 
L 210.790452 313.263358 
L 211.129712 315.72831 
L 211.469028 312.344595 
L 211.808288 307.498425 
L 212.147604 308.888298 
L 212.486864 306.623764 
L 212.82618 305.903663 
L 213.16544 303.816191 
L 213.844017 302.454799 
L 214.183332 296.318011 
L 214.522593 297.112453 
L 214.861908 292.676614 
L 215.201169 290.940454 
L 215.540484 286.692627 
L 215.879745 287.066441 
L 216.21906 284.9966 
L 216.558321 281.685066 
L 216.897636 279.9803 
L 217.236897 274.462952 
L 217.576213 274.485154 
L 218.254789 276.236484 
L 218.594049 268.912552 
L 218.933365 265.345597 
L 219.272625 267.577883 
L 219.611941 261.640961 
L 219.951201 261.438232 
L 220.290517 260.981337 
L 220.969093 255.694345 
L 221.308353 249.923535 
L 221.647669 250.121693 
L 221.986985 245.338964 
L 222.326245 246.556748 
L 222.665561 241.718463 
L 223.004821 243.097235 
L 223.344137 238.791392 
L 223.683397 239.217747 
L 224.022713 233.564677 
L 224.361973 230.802361 
L 224.701289 230.1348 
L 225.040549 232.061886 
L 225.379865 231.032115 
L 225.719125 226.121499 
L 226.058441 222.934536 
L 226.397701 217.016702 
L 226.737017 222.202379 
L 227.076277 216.495361 
L 227.415593 213.744247 
L 227.754853 214.186575 
L 228.433429 206.456582 
L 228.772745 205.804492 
L 229.112005 202.910874 
L 229.451321 201.347004 
L 229.790581 198.467199 
L 230.469157 190.573003 
L 230.808473 189.401984 
L 231.147733 187.451591 
L 231.487049 186.434779 
L 231.826309 184.141464 
L 232.165625 178.448762 
L 232.504941 178.097149 
L 233.183517 177.177633 
L 233.522777 171.18812 
L 233.862093 171.21856 
L 234.201353 172.535297 
L 234.540669 171.822529 
L 234.879929 169.635049 
L 235.219245 170.609919 
L 235.558505 167.163919 
L 235.897821 167.950726 
L 236.237081 158.624615 
L 236.576397 162.183181 
L 236.915657 161.773001 
L 237.254973 158.01949 
L 237.594233 155.985062 
L 237.933549 156.6476 
L 238.272809 156.938584 
L 238.612125 157.505433 
L 238.951385 154.458261 
L 239.290701 153.642521 
L 239.969277 151.298122 
L 240.308537 151.584485 
L 240.647853 150.536881 
L 240.987113 149.109336 
L 241.326429 145.48773 
L 242.005005 140.586959 
L 242.344265 144.195153 
L 242.683581 138.808605 
L 243.022897 139.221498 
L 243.362157 134.584336 
L 243.701473 131.801275 
L 244.040733 131.104983 
L 244.380049 132.429004 
L 244.719309 125.958284 
L 245.058625 124.18857 
L 245.397885 124.464033 
L 245.737201 120.602929 
L 246.076461 120.912951 
L 246.415777 114.283202 
L 246.755037 120.723783 
L 247.433614 110.664209 
L 247.772929 109.417944 
L 248.11219 110.446259 
L 248.451505 110.329223 
L 249.130081 105.454069 
L 249.469342 105.556288 
L 249.808657 107.665157 
L 250.147918 105.252294 
L 250.487233 105.878666 
L 250.826494 101.741145 
L 251.16581 103.254383 
L 251.50507 108.897608 
L 251.844386 101.819806 
L 252.183646 102.928238 
L 252.522962 99.357817 
L 252.862222 104.425101 
L 253.201538 102.246211 
L 253.540798 98.948339 
L 253.880114 103.820077 
L 254.219429 98.813371 
L 254.55869 95.853298 
L 254.898005 94.607888 
L 255.237266 96.370068 
L 255.576582 99.20582 
L 255.915842 92.690145 
L 256.255158 95.536797 
L 256.594418 92.83958 
L 256.933734 85.441006 
L 257.272994 82.621127 
L 257.95157 88.756408 
L 258.290886 83.03849 
L 258.630146 82.692504 
L 258.969462 86.368107 
L 259.648038 79.386998 
L 259.987298 73.800985 
L 260.326614 78.324024 
L 261.00519 67.715582 
L 261.34445 73.498649 
L 261.683766 71.670717 
L 262.023026 66.724337 
L 262.362342 67.922883 
L 262.701602 66.535722 
L 263.040918 68.011238 
L 263.380178 63.540187 
L 263.719494 63.303854 
L 264.058754 67.29842 
L 264.39807 60.540383 
L 264.73733 60.757328 
L 265.076646 68.496764 
L 265.415962 64.705581 
L 265.755222 63.129504 
L 266.094538 67.068767 
L 266.433798 61.768765 
L 266.773114 60.721463 
L 267.112374 62.566121 
L 267.45169 67.583577 
L 267.79095 61.099798 
L 268.130266 60.982711 
L 268.469526 68.953458 
L 268.808842 57.590909 
L 269.487418 64.695937 
L 270.165994 60.271952 
L 270.505254 65.072614 
L 270.84457 62.003441 
L 271.18383 62.641165 
L 271.523146 66.520452 
L 271.862406 62.739014 
L 272.201722 67.273355 
L 272.540982 69.071751 
L 272.880298 67.533799 
L 273.219558 67.786759 
L 273.558874 74.525758 
L 273.898134 73.17627 
L 274.23745 73.800483 
L 274.57671 77.228852 
L 274.916026 73.28301 
L 275.594602 77.476437 
L 275.933918 74.573125 
L 276.273178 75.425483 
L 276.612494 78.061771 
L 276.951754 76.276134 
L 277.29107 76.736193 
L 277.63033 77.485177 
L 277.969646 80.41682 
L 278.308906 79.087273 
L 278.648222 81.935483 
L 278.987482 80.53913 
L 279.326798 80.573839 
L 279.666058 84.383206 
L 280.005374 80.597649 
L 280.344635 78.817687 
L 280.68395 82.804819 
L 281.023211 81.109696 
L 281.362526 80.348456 
L 281.701787 81.778463 
L 282.041102 77.475081 
L 282.380363 81.019031 
L 282.719678 78.655996 
L 283.058939 83.066519 
L 283.398254 83.748596 
L 283.737515 77.449464 
L 284.07683 84.712416 
L 284.416091 87.587699 
L 284.755407 77.090417 
L 285.094667 85.436737 
L 285.773243 83.132471 
L 286.112559 83.471928 
L 286.451874 81.715775 
L 286.791135 82.694614 
L 287.13045 79.443858 
L 287.469711 77.646367 
L 287.809026 85.594862 
L 288.148287 79.143983 
L 288.487602 76.316871 
L 288.826863 78.937034 
L 289.166179 80.607494 
L 289.505439 76.730517 
L 289.844755 79.081698 
L 290.184015 77.867983 
L 290.523331 79.382527 
L 290.862591 76.196418 
L 291.201907 74.3714 
L 291.541167 81.486474 
L 291.880483 72.806726 
L 292.219743 74.532891 
L 292.559059 79.156491 
L 292.898319 73.951023 
L 293.237635 77.87386 
L 293.576895 69.749257 
L 294.255471 75.995346 
L 294.594787 71.445334 
L 294.934047 76.170801 
L 295.273363 71.446188 
L 295.612623 77.773801 
L 296.291199 70.59614 
L 296.630515 77.852411 
L 296.969775 72.132937 
L 297.309091 73.542349 
L 297.648407 67.178821 
L 298.326983 73.758189 
L 298.666243 72.091949 
L 299.344819 68.281025 
L 299.684135 73.513517 
L 300.023395 69.947064 
L 300.362711 71.294342 
L 300.701971 68.311012 
L 301.041287 72.940389 
L 301.380547 69.864234 
L 301.719863 70.700921 
L 302.059123 68.378321 
L 302.398439 67.014066 
L 302.737699 71.700253 
L 303.077015 70.474884 
L 303.416275 68.638062 
L 303.755591 67.456595 
L 304.434167 67.564741 
L 304.773427 70.407174 
L 305.112743 67.28762 
L 305.452003 69.580634 
L 305.791319 67.700664 
L 306.130579 74.991694 
L 306.469895 69.328779 
L 306.809155 71.93302 
L 307.148471 69.061604 
L 307.487731 71.098092 
L 307.827047 74.935487 
L 308.166307 67.684389 
L 308.505623 72.686073 
L 308.844939 65.087884 
L 309.184199 75.498418 
L 309.523515 69.965298 
L 309.862775 74.580409 
L 310.202091 69.686921 
L 310.541351 67.685997 
L 310.880667 70.066763 
L 311.219927 71.651127 
L 311.559243 71.491194 
L 311.898503 71.197347 
L 312.237819 68.463763 
L 312.577079 69.968814 
L 312.916395 68.188601 
L 313.255655 74.224929 
L 313.594971 68.862391 
L 313.934232 72.892268 
L 314.273547 65.121388 
L 314.612808 73.320281 
L 314.952123 69.611023 
L 315.291384 77.90013 
L 316.309275 68.526048 
L 316.648536 69.187883 
L 316.987851 71.245618 
L 317.327112 77.087504 
L 317.666427 75.459037 
L 318.005688 79.405734 
L 318.345004 72.236863 
L 318.684264 77.475985 
L 319.02358 70.344788 
L 319.362895 75.738569 
L 319.702156 72.447579 
L 320.041471 76.536578 
L 320.380732 75.082561 
L 320.720047 75.777698 
L 321.059308 74.20549 
L 321.398623 76.218268 
L 321.737884 75.789603 
L 322.077199 84.296107 
L 322.41646 78.717528 
L 322.755776 81.407914 
L 323.095036 77.168475 
L 323.434352 77.109756 
L 324.112928 82.25103 
L 324.452188 87.132813 
L 324.791504 83.374832 
L 325.130764 87.809366 
L 325.47008 85.083869 
L 325.80934 86.067177 
L 326.148656 85.854552 
L 326.487916 86.4101 
L 326.827232 87.894606 
L 327.845068 94.616377 
L 328.184384 95.178605 
L 328.523644 92.84832 
L 328.86296 94.159884 
L 329.20222 90.740807 
L 329.541536 100.513516 
L 329.880852 92.870974 
L 330.220112 100.87849 
L 330.559428 98.073428 
L 330.898688 98.999926 
L 331.238004 100.346249 
L 331.577264 97.070931 
L 331.91658 99.117515 
L 332.25584 98.961198 
L 332.595156 100.66491 
L 332.934416 99.472945 
L 333.273732 103.44566 
L 333.612992 99.838119 
L 333.952308 107.545308 
L 334.630884 104.375825 
L 334.970144 105.963606 
L 335.30946 100.25709 
L 335.64872 104.498488 
L 335.988036 103.557574 
L 336.327296 100.617945 
L 336.666612 104.189873 
L 337.005872 98.070515 
L 337.345188 103.171905 
L 337.684448 103.644723 
L 338.023764 103.263274 
L 338.363024 103.572693 
L 338.70234 103.471429 
L 339.0416 102.953353 
L 339.380916 102.077035 
L 339.720176 103.347561 
L 340.059492 101.167917 
L 340.398752 101.048368 
L 341.077384 98.328296 
L 341.416644 102.383038 
L 341.75596 95.656446 
L 342.09522 99.485553 
L 342.773796 95.202112 
L 343.113112 98.919708 
L 343.452372 95.806584 
L 343.791688 96.676623 
L 344.130948 96.314061 
L 344.470264 94.552785 
L 344.809524 94.637725 
L 345.14884 94.174601 
L 345.4881 93.922144 
L 345.827416 91.356379 
L 346.166676 93.394273 
L 346.505992 89.98911 
L 346.845252 89.297639 
L 347.184568 91.919361 
L 347.523829 88.270279 
L 348.202405 91.320515 
L 348.54172 85.794678 
L 348.880981 88.270982 
L 349.220296 89.681399 
L 349.559557 84.648924 
L 350.238133 86.737702 
L 350.577448 85.270474 
L 350.916709 86.033925 
L 351.256024 85.276703 
L 351.595285 83.211986 
L 351.934601 84.339154 
L 352.273916 84.289828 
L 352.613177 85.41574 
L 352.952492 82.43206 
L 353.291753 82.694664 
L 353.631068 77.341418 
L 353.970329 78.934674 
L 354.309644 81.476227 
L 354.648905 78.924125 
L 354.98822 77.404859 
L 355.327481 78.215476 
L 355.666796 72.752276 
L 356.006057 71.671069 
L 356.345373 74.82493 
L 356.684633 70.407324 
L 357.023949 71.009988 
L 357.363209 74.570363 
L 358.041785 68.918247 
L 358.381101 71.363207 
L 358.720361 66.448925 
L 359.059677 68.908251 
L 359.398937 70.478551 
L 359.738253 69.57109 
L 360.077513 70.245181 
L 360.416829 67.343978 
L 360.756089 66.761307 
L 361.773981 68.101351 
L 362.113241 71.523894 
L 362.452557 68.866459 
L 362.791873 67.744063 
L 363.131133 70.268538 
L 363.809709 67.554192 
L 364.149025 71.738377 
L 364.488285 70.631502 
L 364.827601 64.042039 
L 365.506177 69.997696 
L 365.845437 68.588987 
L 366.184753 68.468886 
L 366.524013 70.595236 
L 366.863329 67.026975 
L 367.202589 66.456961 
L 367.541905 71.05188 
L 367.881165 65.756098 
L 368.220481 65.14153 
L 368.559741 69.582291 
L 368.899057 69.7804 
L 369.238317 65.306336 
L 369.577633 65.901012 
L 369.916893 68.963504 
L 370.256209 69.006753 
L 370.934785 65.801456 
L 371.274045 69.748453 
L 371.613361 68.119484 
L 371.952621 63.550987 
L 372.291937 65.994993 
L 372.631197 70.424453 
L 372.970513 69.14142 
L 373.309829 67.162597 
L 373.649089 69.611023 
L 373.988405 70.394767 
L 374.327665 68.705622 
L 374.666981 69.634883 
L 375.006241 72.87092 
L 375.345557 72.352895 
L 375.684817 69.347163 
L 376.363393 79.144285 
L 376.702709 76.863728 
L 377.041969 75.866958 
L 377.381285 77.916405 
L 377.720545 80.766322 
L 378.059861 76.542706 
L 378.399121 77.25884 
L 378.738437 79.495596 
L 379.077697 70.669677 
L 380.095589 66.335655 
L 380.434849 72.520765 
L 380.774165 71.120946 
L 381.113426 74.646813 
L 381.452741 74.616474 
L 381.792002 74.141496 
L 382.131317 72.117164 
L 382.470578 71.42715 
L 382.809893 71.697741 
L 383.149154 70.498091 
L 383.488469 70.839506 
L 383.82773 70.956995 
L 384.506361 70.02462 
L 384.845621 68.334771 
L 385.184937 68.848427 
L 385.863513 67.669521 
L 386.202774 67.811623 
L 386.542089 66.513772 
L 387.559926 70.194499 
L 387.899241 69.709475 
L 388.238502 68.821855 
L 388.577817 70.444193 
L 388.917078 73.42923 
L 389.256393 74.357185 
L 389.595654 74.061429 
L 389.93497 73.352277 
L 390.27423 74.809258 
L 390.613546 69.958717 
L 391.631382 64.681119 
L 391.970698 73.966946 
L 392.309958 74.929911 
L 392.649274 74.305749 
L 392.988534 77.694387 
L 393.32785 79.834449 
L 394.006426 77.558916 
L 394.345686 77.93499 
L 394.685002 79.698677 
L 395.024262 82.216521 
L 395.363578 80.162905 
L 395.702894 81.083828 
L 396.042154 81.495415 
L 396.38147 82.847515 
L 397.399306 79.24359 
L 397.738622 81.20644 
L 398.077882 82.448535 
L 398.417198 83.056674 
L 398.756458 81.628124 
L 399.095774 81.894294 
L 399.77435 87.001009 
L 400.11361 85.859827 
L 400.452926 86.774922 
L 401.131502 88.974558 
L 401.470762 88.310915 
L 401.810078 86.369664 
L 402.149338 86.894119 
L 402.488654 86.516387 
L 402.827914 94.468298 
L 403.16723 93.320937 
L 404.185066 97.07711 
L 404.524382 96.92235 
L 404.863642 97.365633 
L 405.542218 100.458062 
L 405.881534 101.963213 
L 406.22085 102.408455 
L 406.56011 101.106384 
L 406.899426 102.15439 
L 407.238686 104.619844 
L 407.578002 105.972898 
L 407.917262 108.372049 
L 408.256578 108.805235 
L 408.595838 105.973953 
L 409.274414 107.902295 
L 409.61373 109.610578 
L 409.95299 112.604606 
L 410.292306 112.279565 
L 410.631566 110.121219 
L 410.970882 110.924854 
L 411.310142 113.687822 
L 411.649458 115.501036 
L 411.988718 116.152172 
L 412.328034 114.944484 
L 412.667294 112.818788 
L 413.34587 114.498339 
L 414.024446 118.947539 
L 414.363762 119.525589 
L 415.042338 116.857305 
L 415.381599 119.232948 
L 416.060175 126.646239 
L 416.39949 127.795207 
L 416.738806 126.148306 
L 417.078066 118.199559 
L 417.417382 117.063551 
L 417.756642 127.077466 
L 418.435218 134.485182 
L 418.774534 134.567107 
L 419.113795 134.070781 
L 419.45311 134.250003 
L 419.792371 134.097152 
L 420.470947 140.011722 
L 420.810262 141.895358 
L 421.149523 143.050957 
L 421.488838 142.971945 
L 421.828099 141.851357 
L 422.167414 141.93499 
L 422.506675 143.397144 
L 422.84599 144.025124 
L 423.185251 146.372236 
L 423.524567 149.592099 
L 423.863827 150.440439 
L 424.203143 150.174419 
L 424.542403 150.128408 
L 424.881719 149.698135 
L 425.220979 149.556737 
L 426.238871 159.128877 
L 426.917447 161.403758 
L 427.256707 160.002131 
L 427.596023 159.691557 
L 427.935339 160.328628 
L 428.613915 162.728733 
L 429.292491 167.042412 
L 429.631751 167.54361 
L 430.310327 170.766136 
L 430.988903 170.73218 
L 431.328219 172.560714 
L 431.667479 173.027002 
L 432.006795 173.827573 
L 433.024631 178.292947 
L 433.363947 178.092779 
L 433.703207 179.24436 
L 434.381783 180.318083 
L 434.721099 181.447762 
L 435.060359 183.731032 
L 435.399675 184.605089 
L 436.078251 188.251308 
L 436.417511 190.249168 
L 436.756827 190.735197 
L 437.096087 192.882543 
L 437.774663 195.168926 
L 438.113979 197.528646 
L 438.453239 198.769536 
L 438.792555 202.438257 
L 439.131871 203.643534 
L 439.810447 208.445953 
L 440.149707 209.86491 
L 440.828283 210.0483 
L 441.167599 211.147591 
L 441.506859 210.798289 
L 441.846175 211.767132 
L 442.185435 213.300964 
L 442.524751 216.031183 
L 442.864011 217.811295 
L 443.203327 220.26811 
L 443.881903 227.169253 
L 444.221163 230.809142 
L 444.560479 232.963068 
L 444.899739 237.018262 
L 445.239055 238.432095 
L 445.578315 239.280133 
L 445.917631 239.461615 
L 446.256891 238.311542 
L 446.596207 236.450509 
L 446.935467 233.862794 
L 448.631935 214.537735 
L 449.989087 202.316951 
L 450.667663 199.299917 
L 451.006979 198.46519 
L 452.024815 200.874688 
L 452.703392 204.534218 
L 453.042707 208.594434 
L 453.381968 210.491985 
L 454.060544 217.091897 
L 455.757011 243.007474 
L 458.132 290.171478 
L 459.149892 314.357475 
L 461.864196 372.04694 
L 462.203512 376.202243 
L 463.221348 393.698566 
L 463.899924 403.493226 
L 464.5785 412.511376 
L 465.596392 420.791039 
L 465.935652 425.288712 
L 466.614228 429.352847 
L 466.953544 433.932947 
L 467.63212 439.839912 
L 467.97138 440.664729 
L 468.310696 444.233256 
L 468.649956 446.464632 
L 468.989272 445.960586 
L 469.328532 446.276158 
L 469.667848 450.412011 
L 470.007108 451.871277 
L 470.346424 451.237316 
L 470.685684 453.34623 
L 471.025 456.682231 
L 471.364316 457.201457 
L 471.703576 456.89141 
L 472.042892 458.126473 
L 472.382152 460.273764 
L 472.721468 459.757487 
L 473.060728 461.009633 
L 473.400044 460.840558 
L 473.739304 463.098707 
L 474.07862 463.709879 
L 474.41788 463.696207 
L 475.435772 466.46032 
L 475.775032 466.397025 
L 476.114348 467.242155 
L 476.453608 467.41767 
L 476.792924 468.124285 
L 477.132184 467.939442 
L 477.81076 469.548827 
L 478.150076 469.904618 
L 478.489336 470.042289 
L 479.507228 471.220376 
L 479.846488 471.255648 
L 480.525064 472.294195 
L 480.86438 472.188872 
L 481.20364 472.344832 
L 481.542956 473.081906 
L 481.882217 473.441686 
L 482.221532 473.530704 
L 484.596576 474.965799 
L 485.275152 475.15023 
L 485.953728 475.55148 
L 486.632304 475.707802 
L 487.31088 475.936485 
L 487.989456 476.051789 
L 488.668032 476.264906 
L 489.346608 476.405651 
L 491.043021 476.789758 
L 492.060913 477.006521 
L 497.828837 478.700815 
L 499.864565 479.131088 
L 503.936021 479.423629 
L 506.650325 479.641488 
L 511.739673 480.552314 
L 513.436085 480.801113 
L 515.132553 480.920411 
L 519.543325 480.953723 
L 523.275466 481.256876 
L 530.400542 481.911712 
L 535.82915 481.901163 
L 539.561346 482.248824 
L 542.954226 482.526884 
L 546.007846 482.506698 
L 550.757878 482.494242 
L 554.829335 482.826563 
L 557.543639 482.983936 
L 560.936574 482.93837 
L 565.686607 482.929646 
L 568.740171 483.137317 
L 571.115215 483.289867 
L 575.186671 483.2613 
L 579.258127 483.206749 
L 583.329639 483.424356 
L 587.06178 483.567447 
L 590.793976 483.480778 
L 593.50828 483.446407 
L 597.919052 483.64355 
L 601.651248 483.76352 
L 611.829888 483.78342 
L 615.901344 483.920612 
L 621.329953 483.803646 
L 624.044312 483.828951 
L 631.847909 484.030953 
L 638.972985 483.964789 
L 646.098061 484.140136 
L 653.223137 484.05814 
L 661.36605 484.206222 
L 668.491126 484.16516 
L 676.294778 484.266549 
L 682.401962 484.216607 
L 690.205559 484.344244 
L 696.991319 484.279878 
L 705.134565 484.382687 
L 711.920325 484.337641 
L 718.706086 484.44465 
L 727.527519 484.408552 
L 732.955793 484.483424 
L 742.455969 484.45365 
L 747.545706 484.511107 
L 755.688396 484.44616 
L 763.152899 484.510559 
L 769.259917 484.447628 
L 779.099186 484.491829 
L 784.188367 484.474043 
L 795.046028 484.474709 
L 799.456467 484.496323 
L 805.903134 484.562879 
L 813.367637 484.488681 
L 818.456818 484.609091 
L 818.456818 484.609091 
" clip-path="url(#p4834e85c73)" style="fill: none; stroke: #000080; stroke-width: 1.5; stroke-linecap: square"/>
   </g>
   <g id="patch_3">
    <path d="M 88.85 505.96 
L 88.85 36.24 
" style="fill: none; stroke: #000000; stroke-width: 0.8; stroke-linejoin: miter; stroke-linecap: square"/>
   </g>
   <g id="patch_4">
    <path d="M 853.2 505.96 
L 853.2 36.24 
" style="fill: none; stroke: #000000; stroke-width: 0.8; stroke-linejoin: miter; stroke-linecap: square"/>
   </g>
   <g id="patch_5">
    <path d="M 88.85 505.96 
L 853.2 505.96 
" style="fill: none; stroke: #000000; stroke-width: 0.8; stroke-linejoin: miter; stroke-linecap: square"/>
   </g>
   <g id="patch_6">
    <path d="M 88.85 36.24 
L 853.2 36.24 
" style="fill: none; stroke: #000000; stroke-width: 0.8; stroke-linejoin: miter; stroke-linecap: square"/>
   </g>
   <g id="text_15">
    <!-- Frequency vs Amplitude -->
    <g transform="translate(294.253437 30.24) scale(0.26 -0.26)">
     <defs>
      <path id="DejaVuSans-Bold-76" d="M 97 3500 
L 1216 3500 
L 2088 1081 
L 2956 3500 
L 4078 3500 
L 2700 0 
L 1472 0 
L 97 3500 
z
" transform="scale(0.015625)"/>
      <path id="DejaVuSans-Bold-73" d="M 3272 3391 
L 3272 2541 
Q 2913 2691 2578 2766 
Q 2244 2841 1947 2841 
Q 1628 2841 1473 2761 
Q 1319 2681 1319 2516 
Q 1319 2381 1436 2309 
Q 1553 2238 1856 2203 
L 2053 2175 
Q 2913 2066 3209 1816 
Q 3506 1566 3506 1031 
Q 3506 472 3093 190 
Q 2681 -91 1863 -91 
Q 1516 -91 1145 -36 
Q 775 19 384 128 
L 384 978 
Q 719 816 1070 734 
Q 1422 653 1784 653 
Q 2113 653 2278 743 
Q 2444 834 2444 1013 
Q 2444 1163 2330 1236 
Q 2216 1309 1875 1350 
L 1678 1375 
Q 931 1469 631 1722 
Q 331 1975 331 2491 
Q 331 3047 712 3315 
Q 1094 3584 1881 3584 
Q 2191 3584 2531 3537 
Q 2872 3491 3272 3391 
z
" transform="scale(0.015625)"/>
     </defs>
     <use xlink:href="#DejaVuSans-Bold-46"/>
     <use xlink:href="#DejaVuSans-Bold-72" x="61.935547"/>
     <use xlink:href="#DejaVuSans-Bold-65" x="111.251953"/>
     <use xlink:href="#DejaVuSans-Bold-71" x="179.074219"/>
     <use xlink:href="#DejaVuSans-Bold-75" x="250.65625"/>
     <use xlink:href="#DejaVuSans-Bold-65" x="321.847656"/>
     <use xlink:href="#DejaVuSans-Bold-6e" x="389.669922"/>
     <use xlink:href="#DejaVuSans-Bold-63" x="460.861328"/>
     <use xlink:href="#DejaVuSans-Bold-79" x="520.138672"/>
     <use xlink:href="#DejaVuSans-Bold-20" x="585.324219"/>
     <use xlink:href="#DejaVuSans-Bold-76" x="620.138672"/>
     <use xlink:href="#DejaVuSans-Bold-73" x="685.324219"/>
     <use xlink:href="#DejaVuSans-Bold-20" x="744.845703"/>
     <use xlink:href="#DejaVuSans-Bold-41" x="779.660156"/>
     <use xlink:href="#DejaVuSans-Bold-6d" x="857.052734"/>
     <use xlink:href="#DejaVuSans-Bold-70" x="961.251953"/>
     <use xlink:href="#DejaVuSans-Bold-6c" x="1032.833984"/>
     <use xlink:href="#DejaVuSans-Bold-69" x="1067.111328"/>
     <use xlink:href="#DejaVuSans-Bold-74" x="1101.388672"/>
     <use xlink:href="#DejaVuSans-Bold-75" x="1149.191406"/>
     <use xlink:href="#DejaVuSans-Bold-64" x="1220.382812"/>
     <use xlink:href="#DejaVuSans-Bold-65" x="1291.964844"/>
    </g>
   </g>
  </g>
 </g>
 <defs>
  <clipPath id="p4834e85c73">
   <rect x="88.85" y="36.24" width="764.35" height="469.72"/>
  </clipPath>
 </defs>
</svg>
