<?xml version="1.0" encoding="utf-8" standalone="no"?>
<!DOCTYPE svg PUBLIC "-//W3C//DTD SVG 1.1//EN"
  "http://www.w3.org/Graphics/SVG/1.1/DTD/svg11.dtd">
<svg xmlns:xlink="http://www.w3.org/1999/xlink" width="864pt" height="576pt" viewBox="0 0 864 576" xmlns="http://www.w3.org/2000/svg" version="1.1">
 <metadata>
  <rdf:RDF xmlns:dc="http://purl.org/dc/elements/1.1/" xmlns:cc="http://creativecommons.org/ns#" xmlns:rdf="http://www.w3.org/1999/02/22-rdf-syntax-ns#">
   <cc:Work>
    <dc:type rdf:resource="http://purl.org/dc/dcmitype/StillImage"/>
    <dc:date>2023-09-04T14:53:20.922701</dc:date>
    <dc:format>image/svg+xml</dc:format>
    <dc:creator>
     <cc:Agent>
      <dc:title>Matplotlib v3.7.1, https://matplotlib.org/</dc:title>
     </cc:Agent>
    </dc:creator>
   </cc:Work>
  </rdf:RDF>
 </metadata>
 <defs>
  <style type="text/css">*{stroke-linejoin: round; stroke-linecap: butt}</style>
 </defs>
 <g id="figure_1">
  <g id="patch_1">
   <path d="M 0 576 
L 864 576 
L 864 0 
L 0 0 
z
" style="fill: #ffffff"/>
  </g>
  <g id="axes_1">
   <g id="patch_2">
    <path d="M 81.29 510.65125 
L 853.2 510.65125 
L 853.2 34.44 
L 81.29 34.44 
z
" style="fill: #ffffff"/>
   </g>
   <g id="matplotlib.axis_1">
    <g id="xtick_1">
     <g id="line2d_1">
      <path d="M 116.376818 510.65125 
L 116.376818 34.44 
" clip-path="url(#p7e52788700)" style="fill: none; stroke-dasharray: 1.85,0.8; stroke-dashoffset: 0; stroke: #808080; stroke-width: 0.5"/>
     </g>
     <g id="line2d_2">
      <defs>
       <path id="m8a7b8021d2" d="M 0 0 
L 0 3.5 
" style="stroke: #000000; stroke-width: 0.8"/>
      </defs>
      <g>
       <use xlink:href="#m8a7b8021d2" x="116.376818" y="510.65125" style="stroke: #000000; stroke-width: 0.8"/>
      </g>
     </g>
     <g id="text_1">
      <!-- 0 -->
      <g transform="translate(110.626818 532.881562) scale(0.23 -0.23)">
       <defs>
        <path id="TimesNewRomanPS-BoldMT-30" d="M 2966 2119 
Q 2966 1484 2788 934 
Q 2681 597 2501 381 
Q 2322 166 2094 39 
Q 1866 -88 1597 -88 
Q 1291 -88 1044 68 
Q 797 225 606 516 
Q 469 728 366 1081 
Q 231 1559 231 2069 
Q 231 2759 425 3338 
Q 584 3816 909 4070 
Q 1234 4325 1597 4325 
Q 1966 4325 2286 4073 
Q 2606 3822 2756 3397 
Q 2966 2813 2966 2119 
z
M 2003 2125 
Q 2003 3238 1991 3422 
Q 1959 3856 1841 4009 
Q 1763 4109 1588 4109 
Q 1453 4109 1375 4034 
Q 1259 3925 1218 3648 
Q 1178 3372 1178 1719 
Q 1178 819 1241 513 
Q 1288 291 1375 216 
Q 1463 141 1606 141 
Q 1763 141 1841 241 
Q 1972 416 1991 781 
L 2003 2125 
z
" transform="scale(0.015625)"/>
       </defs>
       <use xlink:href="#TimesNewRomanPS-BoldMT-30"/>
      </g>
     </g>
    </g>
    <g id="xtick_2">
     <g id="line2d_3">
      <path d="M 228.654636 510.65125 
L 228.654636 34.44 
" clip-path="url(#p7e52788700)" style="fill: none; stroke-dasharray: 1.85,0.8; stroke-dashoffset: 0; stroke: #808080; stroke-width: 0.5"/>
     </g>
     <g id="line2d_4">
      <g>
       <use xlink:href="#m8a7b8021d2" x="228.654636" y="510.65125" style="stroke: #000000; stroke-width: 0.8"/>
      </g>
     </g>
     <g id="text_2">
      <!-- 20 -->
      <g transform="translate(217.154636 532.881562) scale(0.23 -0.23)">
       <defs>
        <path id="TimesNewRomanPS-BoldMT-32" d="M 2650 0 
L 156 0 
L 156 69 
Q 1303 1434 1548 1906 
Q 1794 2378 1794 2828 
Q 1794 3156 1591 3373 
Q 1388 3591 1094 3591 
Q 613 3591 347 3109 
L 231 3150 
Q 400 3750 744 4037 
Q 1088 4325 1538 4325 
Q 1859 4325 2125 4175 
Q 2391 4025 2541 3764 
Q 2691 3503 2691 3275 
Q 2691 2859 2459 2431 
Q 2144 1853 1081 819 
L 1997 819 
Q 2334 819 2436 847 
Q 2538 875 2603 942 
Q 2669 1009 2775 1225 
L 2888 1225 
L 2650 0 
z
" transform="scale(0.015625)"/>
       </defs>
       <use xlink:href="#TimesNewRomanPS-BoldMT-32"/>
       <use xlink:href="#TimesNewRomanPS-BoldMT-30" x="50"/>
      </g>
     </g>
    </g>
    <g id="xtick_3">
     <g id="line2d_5">
      <path d="M 340.932455 510.65125 
L 340.932455 34.44 
" clip-path="url(#p7e52788700)" style="fill: none; stroke-dasharray: 1.85,0.8; stroke-dashoffset: 0; stroke: #808080; stroke-width: 0.5"/>
     </g>
     <g id="line2d_6">
      <g>
       <use xlink:href="#m8a7b8021d2" x="340.932455" y="510.65125" style="stroke: #000000; stroke-width: 0.8"/>
      </g>
     </g>
     <g id="text_3">
      <!-- 40 -->
      <g transform="translate(329.432455 532.881562) scale(0.23 -0.23)">
       <defs>
        <path id="TimesNewRomanPS-BoldMT-34" d="M 159 1597 
L 2172 4325 
L 2553 4325 
L 2553 1597 
L 2941 1597 
L 2941 950 
L 2553 950 
L 2553 0 
L 1694 0 
L 1694 950 
L 159 950 
L 159 1597 
z
M 463 1597 
L 1694 1597 
L 1694 3269 
L 463 1597 
z
" transform="scale(0.015625)"/>
       </defs>
       <use xlink:href="#TimesNewRomanPS-BoldMT-34"/>
       <use xlink:href="#TimesNewRomanPS-BoldMT-30" x="50"/>
      </g>
     </g>
    </g>
    <g id="xtick_4">
     <g id="line2d_7">
      <path d="M 453.210273 510.65125 
L 453.210273 34.44 
" clip-path="url(#p7e52788700)" style="fill: none; stroke-dasharray: 1.85,0.8; stroke-dashoffset: 0; stroke: #808080; stroke-width: 0.5"/>
     </g>
     <g id="line2d_8">
      <g>
       <use xlink:href="#m8a7b8021d2" x="453.210273" y="510.65125" style="stroke: #000000; stroke-width: 0.8"/>
      </g>
     </g>
     <g id="text_4">
      <!-- 60 -->
      <g transform="translate(441.710273 532.881562) scale(0.23 -0.23)">
       <defs>
        <path id="TimesNewRomanPS-BoldMT-36" d="M 3006 4325 
L 3006 4238 
Q 2441 4094 2098 3867 
Q 1756 3641 1557 3317 
Q 1359 2994 1250 2516 
Q 1388 2609 1478 2638 
Q 1681 2700 1888 2700 
Q 2363 2700 2680 2354 
Q 2997 2009 2997 1413 
Q 2997 994 2825 644 
Q 2653 294 2337 103 
Q 2022 -88 1663 -88 
Q 1272 -88 940 126 
Q 609 341 423 753 
Q 238 1166 238 1650 
Q 238 2363 580 2977 
Q 922 3591 1551 3955 
Q 2181 4319 3006 4325 
z
M 1209 2263 
Q 1184 1831 1184 1631 
Q 1184 1200 1267 797 
Q 1350 394 1494 231 
Q 1597 116 1738 116 
Q 1881 116 1993 283 
Q 2106 450 2106 963 
Q 2106 1825 1897 2153 
Q 1763 2366 1534 2366 
Q 1409 2366 1209 2263 
z
" transform="scale(0.015625)"/>
       </defs>
       <use xlink:href="#TimesNewRomanPS-BoldMT-36"/>
       <use xlink:href="#TimesNewRomanPS-BoldMT-30" x="50"/>
      </g>
     </g>
    </g>
    <g id="xtick_5">
     <g id="line2d_9">
      <path d="M 565.488091 510.65125 
L 565.488091 34.44 
" clip-path="url(#p7e52788700)" style="fill: none; stroke-dasharray: 1.85,0.8; stroke-dashoffset: 0; stroke: #808080; stroke-width: 0.5"/>
     </g>
     <g id="line2d_10">
      <g>
       <use xlink:href="#m8a7b8021d2" x="565.488091" y="510.65125" style="stroke: #000000; stroke-width: 0.8"/>
      </g>
     </g>
     <g id="text_5">
      <!-- 80 -->
      <g transform="translate(553.988091 532.881562) scale(0.23 -0.23)">
       <defs>
        <path id="TimesNewRomanPS-BoldMT-38" d="M 2181 2394 
Q 2628 2066 2801 1783 
Q 2975 1500 2975 1134 
Q 2975 622 2589 267 
Q 2203 -88 1541 -88 
Q 913 -88 569 221 
Q 225 531 225 978 
Q 225 1319 423 1575 
Q 622 1831 1084 2044 
Q 581 2428 439 2672 
Q 297 2916 297 3238 
Q 297 3663 658 3986 
Q 1019 4309 1647 4309 
Q 2253 4309 2579 4023 
Q 2906 3738 2906 3338 
Q 2906 3038 2729 2808 
Q 2553 2578 2181 2394 
z
M 1944 2553 
Q 2059 2709 2115 2903 
Q 2172 3097 2172 3328 
Q 2172 3734 1997 3950 
Q 1866 4116 1634 4116 
Q 1425 4116 1278 3964 
Q 1131 3813 1131 3588 
Q 1131 3359 1295 3114 
Q 1459 2869 1944 2553 
z
M 1319 1894 
Q 1222 1806 1181 1734 
Q 1119 1625 1069 1415 
Q 1019 1206 1019 978 
Q 1019 684 1094 486 
Q 1169 288 1308 200 
Q 1447 113 1594 113 
Q 1822 113 1978 280 
Q 2134 447 2134 738 
Q 2134 1344 1319 1894 
z
" transform="scale(0.015625)"/>
       </defs>
       <use xlink:href="#TimesNewRomanPS-BoldMT-38"/>
       <use xlink:href="#TimesNewRomanPS-BoldMT-30" x="50"/>
      </g>
     </g>
    </g>
    <g id="xtick_6">
     <g id="line2d_11">
      <path d="M 677.765909 510.65125 
L 677.765909 34.44 
" clip-path="url(#p7e52788700)" style="fill: none; stroke-dasharray: 1.85,0.8; stroke-dashoffset: 0; stroke: #808080; stroke-width: 0.5"/>
     </g>
     <g id="line2d_12">
      <g>
       <use xlink:href="#m8a7b8021d2" x="677.765909" y="510.65125" style="stroke: #000000; stroke-width: 0.8"/>
      </g>
     </g>
     <g id="text_6">
      <!-- 100 -->
      <g transform="translate(660.515909 532.881562) scale(0.23 -0.23)">
       <defs>
        <path id="TimesNewRomanPS-BoldMT-31" d="M 2084 4325 
L 2084 859 
Q 2084 469 2118 361 
Q 2153 253 2262 184 
Q 2372 116 2613 116 
L 2709 116 
L 2709 0 
L 478 0 
L 478 116 
L 591 116 
Q 863 116 978 178 
Q 1094 241 1134 350 
Q 1175 459 1175 859 
L 1175 3056 
Q 1175 3350 1147 3423 
Q 1119 3497 1042 3548 
Q 966 3600 866 3600 
Q 706 3600 478 3500 
L 422 3613 
L 1981 4325 
L 2084 4325 
z
" transform="scale(0.015625)"/>
       </defs>
       <use xlink:href="#TimesNewRomanPS-BoldMT-31"/>
       <use xlink:href="#TimesNewRomanPS-BoldMT-30" x="50"/>
       <use xlink:href="#TimesNewRomanPS-BoldMT-30" x="100"/>
      </g>
     </g>
    </g>
    <g id="xtick_7">
     <g id="line2d_13">
      <path d="M 790.043727 510.65125 
L 790.043727 34.44 
" clip-path="url(#p7e52788700)" style="fill: none; stroke-dasharray: 1.85,0.8; stroke-dashoffset: 0; stroke: #808080; stroke-width: 0.5"/>
     </g>
     <g id="line2d_14">
      <g>
       <use xlink:href="#m8a7b8021d2" x="790.043727" y="510.65125" style="stroke: #000000; stroke-width: 0.8"/>
      </g>
     </g>
     <g id="text_7">
      <!-- 120 -->
      <g transform="translate(772.793727 532.881562) scale(0.23 -0.23)">
       <use xlink:href="#TimesNewRomanPS-BoldMT-31"/>
       <use xlink:href="#TimesNewRomanPS-BoldMT-32" x="50"/>
       <use xlink:href="#TimesNewRomanPS-BoldMT-30" x="100"/>
      </g>
     </g>
    </g>
    <g id="text_8">
     <!-- Frequency (Hz) -->
     <g transform="translate(383.809453 558.731094) scale(0.25 -0.25)">
      <defs>
       <path id="TimesNewRomanPS-BoldMT-46" d="M 1759 3994 
L 1759 2253 
L 1881 2253 
Q 2163 2253 2341 2337 
Q 2519 2422 2642 2622 
Q 2766 2822 2803 3163 
L 2913 3163 
L 2913 1034 
L 2803 1034 
Q 2744 1638 2480 1830 
Q 2216 2022 1881 2022 
L 1759 2022 
L 1759 725 
Q 1759 400 1795 319 
Q 1831 238 1936 177 
Q 2041 116 2219 116 
L 2359 116 
L 2359 0 
L 144 0 
L 144 116 
L 284 116 
Q 469 116 581 181 
Q 663 225 706 331 
Q 741 406 741 725 
L 741 3513 
Q 741 3838 706 3919 
Q 672 4000 567 4061 
Q 463 4122 284 4122 
L 144 4122 
L 144 4238 
L 3719 4238 
L 3719 3022 
L 3591 3022 
Q 3547 3450 3367 3656 
Q 3188 3863 2847 3947 
Q 2659 3994 2153 3994 
L 1759 3994 
z
" transform="scale(0.015625)"/>
       <path id="TimesNewRomanPS-BoldMT-72" d="M 1428 2922 
L 1428 2259 
Q 1719 2713 1937 2861 
Q 2156 3009 2359 3009 
Q 2534 3009 2639 2901 
Q 2744 2794 2744 2597 
Q 2744 2388 2642 2272 
Q 2541 2156 2397 2156 
Q 2231 2156 2109 2262 
Q 1988 2369 1966 2381 
Q 1934 2400 1894 2400 
Q 1803 2400 1722 2331 
Q 1594 2225 1528 2028 
Q 1428 1725 1428 1359 
L 1428 688 
L 1431 513 
Q 1431 334 1453 284 
Q 1491 200 1564 161 
Q 1638 122 1813 113 
L 1813 0 
L 234 0 
L 234 113 
Q 425 128 492 217 
Q 559 306 559 688 
L 559 2303 
Q 559 2553 534 2622 
Q 503 2709 443 2750 
Q 384 2791 234 2806 
L 234 2922 
L 1428 2922 
z
" transform="scale(0.015625)"/>
       <path id="TimesNewRomanPS-BoldMT-65" d="M 2691 1566 
L 1088 1566 
Q 1116 984 1397 647 
Q 1613 388 1916 388 
Q 2103 388 2256 492 
Q 2409 597 2584 869 
L 2691 800 
Q 2453 316 2165 114 
Q 1878 -88 1500 -88 
Q 850 -88 516 413 
Q 247 816 247 1413 
Q 247 2144 642 2576 
Q 1038 3009 1569 3009 
Q 2013 3009 2339 2645 
Q 2666 2281 2691 1566 
z
M 1922 1775 
Q 1922 2278 1867 2465 
Q 1813 2653 1697 2750 
Q 1631 2806 1522 2806 
Q 1359 2806 1256 2647 
Q 1072 2369 1072 1884 
L 1072 1775 
L 1922 1775 
z
" transform="scale(0.015625)"/>
       <path id="TimesNewRomanPS-BoldMT-71" d="M 2178 306 
Q 1988 106 1822 25 
Q 1603 -88 1366 -88 
Q 816 -88 497 403 
Q 244 794 244 1338 
Q 244 1791 436 2189 
Q 628 2588 964 2798 
Q 1300 3009 1675 3009 
Q 1925 3009 2120 2925 
Q 2316 2841 2456 2669 
L 2947 3009 
L 3053 3009 
L 3053 -775 
Q 3053 -1063 3103 -1134 
Q 3184 -1250 3431 -1253 
L 3431 -1369 
L 1744 -1369 
L 1744 -1253 
Q 1938 -1253 2025 -1209 
Q 2113 -1166 2145 -1094 
Q 2178 -1022 2178 -800 
L 2178 306 
z
M 2178 591 
L 2178 1794 
Q 2178 2297 2123 2459 
Q 2069 2622 1922 2741 
Q 1847 2800 1731 2800 
Q 1494 2800 1363 2591 
Q 1156 2269 1156 1394 
Q 1156 722 1334 450 
Q 1456 266 1650 266 
Q 1763 266 1905 344 
Q 2047 422 2178 591 
z
" transform="scale(0.015625)"/>
       <path id="TimesNewRomanPS-BoldMT-75" d="M 3038 2922 
L 3038 634 
Q 3038 300 3100 217 
Q 3163 134 3353 113 
L 3353 0 
L 2163 0 
L 2163 391 
Q 1953 141 1743 26 
Q 1534 -88 1275 -88 
Q 1028 -88 836 64 
Q 644 216 578 419 
Q 513 622 513 1128 
L 513 2288 
Q 513 2619 452 2700 
Q 391 2781 197 2806 
L 197 2922 
L 1388 2922 
L 1388 925 
Q 1388 613 1417 522 
Q 1447 431 1511 384 
Q 1575 338 1659 338 
Q 1772 338 1863 397 
Q 1988 478 2163 725 
L 2163 2288 
Q 2163 2619 2102 2700 
Q 2041 2781 1847 2806 
L 1847 2922 
L 3038 2922 
z
" transform="scale(0.015625)"/>
       <path id="TimesNewRomanPS-BoldMT-6e" d="M 1409 2922 
L 1409 2544 
Q 1634 2788 1840 2898 
Q 2047 3009 2284 3009 
Q 2569 3009 2756 2851 
Q 2944 2694 3006 2459 
Q 3056 2281 3056 1775 
L 3056 638 
Q 3056 300 3117 217 
Q 3178 134 3372 113 
L 3372 0 
L 1894 0 
L 1894 113 
Q 2059 134 2131 250 
Q 2181 328 2181 638 
L 2181 1938 
Q 2181 2297 2153 2390 
Q 2125 2484 2058 2536 
Q 1991 2588 1909 2588 
Q 1641 2588 1409 2203 
L 1409 638 
Q 1409 309 1470 221 
Q 1531 134 1697 113 
L 1697 0 
L 219 0 
L 219 113 
Q 403 131 481 231 
Q 534 300 534 638 
L 534 2288 
Q 534 2619 473 2700 
Q 413 2781 219 2806 
L 219 2922 
L 1409 2922 
z
" transform="scale(0.015625)"/>
       <path id="TimesNewRomanPS-BoldMT-63" d="M 2600 753 
L 2697 678 
Q 2491 291 2183 101 
Q 1875 -88 1528 -88 
Q 944 -88 594 353 
Q 244 794 244 1413 
Q 244 2009 563 2463 
Q 947 3009 1622 3009 
Q 2075 3009 2342 2781 
Q 2609 2553 2609 2272 
Q 2609 2094 2501 1987 
Q 2394 1881 2219 1881 
Q 2034 1881 1914 2003 
Q 1794 2125 1766 2438 
Q 1747 2634 1675 2713 
Q 1603 2791 1506 2791 
Q 1356 2791 1250 2631 
Q 1088 2391 1088 1894 
Q 1088 1481 1219 1104 
Q 1350 728 1578 544 
Q 1750 409 1984 409 
Q 2138 409 2275 481 
Q 2413 553 2600 753 
z
" transform="scale(0.015625)"/>
       <path id="TimesNewRomanPS-BoldMT-79" d="M 1556 -119 
L 613 2047 
Q 400 2538 298 2650 
Q 197 2763 53 2806 
L 53 2922 
L 1606 2922 
L 1606 2806 
Q 1453 2800 1390 2747 
Q 1328 2694 1328 2619 
Q 1328 2500 1484 2150 
L 1984 1006 
L 2325 1891 
Q 2509 2363 2509 2547 
Q 2509 2663 2432 2731 
Q 2356 2800 2163 2806 
L 2163 2922 
L 3141 2922 
L 3141 2806 
Q 2997 2791 2906 2695 
Q 2816 2600 2603 2047 
L 1769 -119 
Q 1453 -931 1300 -1119 
Q 1084 -1381 759 -1381 
Q 500 -1381 339 -1232 
Q 178 -1084 178 -875 
Q 178 -694 289 -575 
Q 400 -456 563 -456 
Q 719 -456 814 -556 
Q 909 -656 913 -866 
Q 916 -984 941 -1019 
Q 966 -1053 1013 -1053 
Q 1088 -1053 1172 -963 
Q 1297 -831 1466 -363 
L 1556 -119 
z
" transform="scale(0.015625)"/>
       <path id="TimesNewRomanPS-BoldMT-20" transform="scale(0.015625)"/>
       <path id="TimesNewRomanPS-BoldMT-28" d="M 2056 4334 
L 2056 4191 
Q 1731 3978 1578 3775 
Q 1366 3494 1247 3053 
Q 1097 2506 1097 1525 
Q 1097 600 1233 87 
Q 1369 -425 1603 -741 
Q 1766 -959 2056 -1125 
L 2056 -1281 
Q 1303 -1028 779 -248 
Q 256 531 256 1544 
Q 256 2544 778 3314 
Q 1300 4084 2056 4334 
z
" transform="scale(0.015625)"/>
       <path id="TimesNewRomanPS-BoldMT-48" d="M 1750 2038 
L 1750 725 
Q 1750 400 1786 319 
Q 1822 238 1926 177 
Q 2031 116 2209 116 
L 2350 116 
L 2350 0 
L 134 0 
L 134 116 
L 275 116 
Q 459 116 572 181 
Q 653 225 697 331 
Q 731 406 731 725 
L 731 3513 
Q 731 3838 697 3919 
Q 663 4000 558 4061 
Q 453 4122 275 4122 
L 134 4122 
L 134 4238 
L 2350 4238 
L 2350 4122 
L 2209 4122 
Q 2025 4122 1913 4056 
Q 1831 4013 1784 3906 
Q 1750 3831 1750 3513 
L 1750 2313 
L 3247 2313 
L 3247 3513 
Q 3247 3838 3212 3919 
Q 3178 4000 3072 4061 
Q 2966 4122 2788 4122 
L 2650 4122 
L 2650 4238 
L 4863 4238 
L 4863 4122 
L 4725 4122 
Q 4538 4122 4428 4056 
Q 4347 4013 4300 3906 
Q 4266 3831 4266 3513 
L 4266 725 
Q 4266 400 4300 319 
Q 4334 238 4440 177 
Q 4547 116 4725 116 
L 4863 116 
L 4863 0 
L 2650 0 
L 2650 116 
L 2788 116 
Q 2975 116 3084 181 
Q 3166 225 3213 331 
Q 3247 406 3247 725 
L 3247 2038 
L 1750 2038 
z
" transform="scale(0.015625)"/>
       <path id="TimesNewRomanPS-BoldMT-7a" d="M 2609 0 
L 66 0 
L 66 69 
L 1672 2731 
L 1203 2731 
Q 900 2731 769 2676 
Q 638 2622 556 2501 
Q 475 2381 388 2072 
L 278 2072 
L 278 2922 
L 2738 2922 
L 2738 2838 
L 1144 200 
L 1344 200 
Q 1944 200 2209 372 
Q 2475 544 2609 1000 
L 2697 1000 
L 2609 0 
z
" transform="scale(0.015625)"/>
       <path id="TimesNewRomanPS-BoldMT-29" d="M 78 -1281 
L 78 -1138 
Q 403 -922 556 -719 
Q 766 -438 888 0 
Q 1038 550 1038 1531 
Q 1038 2456 902 2967 
Q 766 3478 531 3794 
Q 369 4013 78 4178 
L 78 4334 
Q 831 4081 1354 3301 
Q 1878 2522 1878 1509 
Q 1878 513 1354 -257 
Q 831 -1028 78 -1281 
z
" transform="scale(0.015625)"/>
      </defs>
      <use xlink:href="#TimesNewRomanPS-BoldMT-46"/>
      <use xlink:href="#TimesNewRomanPS-BoldMT-72" x="61.083984"/>
      <use xlink:href="#TimesNewRomanPS-BoldMT-65" x="103.71875"/>
      <use xlink:href="#TimesNewRomanPS-BoldMT-71" x="148.103516"/>
      <use xlink:href="#TimesNewRomanPS-BoldMT-75" x="203.71875"/>
      <use xlink:href="#TimesNewRomanPS-BoldMT-65" x="259.333984"/>
      <use xlink:href="#TimesNewRomanPS-BoldMT-6e" x="303.71875"/>
      <use xlink:href="#TimesNewRomanPS-BoldMT-63" x="359.333984"/>
      <use xlink:href="#TimesNewRomanPS-BoldMT-79" x="403.71875"/>
      <use xlink:href="#TimesNewRomanPS-BoldMT-20" x="453.71875"/>
      <use xlink:href="#TimesNewRomanPS-BoldMT-28" x="478.71875"/>
      <use xlink:href="#TimesNewRomanPS-BoldMT-48" x="512.019531"/>
      <use xlink:href="#TimesNewRomanPS-BoldMT-7a" x="589.802734"/>
      <use xlink:href="#TimesNewRomanPS-BoldMT-29" x="634.1875"/>
     </g>
    </g>
   </g>
   <g id="matplotlib.axis_2">
    <g id="ytick_1">
     <g id="line2d_15">
      <path d="M 81.29 488.235453 
L 853.2 488.235453 
" clip-path="url(#p7e52788700)" style="fill: none; stroke-dasharray: 1.85,0.8; stroke-dashoffset: 0; stroke: #808080; stroke-width: 0.5"/>
     </g>
     <g id="line2d_16">
      <defs>
       <path id="m14c51767cb" d="M 0 0 
L -3.5 0 
" style="stroke: #000000; stroke-width: 0.8"/>
      </defs>
      <g>
       <use xlink:href="#m14c51767cb" x="81.29" y="488.235453" style="stroke: #000000; stroke-width: 0.8"/>
      </g>
     </g>
     <g id="text_9">
      <!-- −50 -->
      <g transform="translate(38.183594 495.850609) scale(0.23 -0.23)">
       <defs>
        <path id="TimesNewRomanPS-BoldMT-2212" d="M 125 2325 
L 3541 2325 
L 3541 1913 
L 125 1913 
L 125 2325 
z
" transform="scale(0.015625)"/>
        <path id="TimesNewRomanPS-BoldMT-35" d="M 975 4238 
L 2959 4238 
L 2644 3431 
L 975 3431 
L 816 3009 
Q 1894 2969 2475 2472 
Q 2953 2063 2953 1453 
Q 2953 1063 2731 689 
Q 2509 316 2106 114 
Q 1703 -88 1222 -88 
Q 703 -88 425 106 
Q 231 244 231 419 
Q 231 553 332 656 
Q 434 759 569 759 
Q 691 759 816 709 
Q 941 659 1244 447 
Q 1434 316 1572 266 
Q 1669 228 1791 228 
Q 2047 228 2226 415 
Q 2406 603 2406 866 
Q 2406 1416 1856 1759 
Q 1306 2103 469 2103 
Q 384 2103 216 2100 
L 975 4238 
z
" transform="scale(0.015625)"/>
       </defs>
       <use xlink:href="#TimesNewRomanPS-BoldMT-2212"/>
       <use xlink:href="#TimesNewRomanPS-BoldMT-35" x="56.982422"/>
       <use xlink:href="#TimesNewRomanPS-BoldMT-30" x="106.982422"/>
      </g>
     </g>
    </g>
    <g id="ytick_2">
     <g id="line2d_17">
      <path d="M 81.29 401.805556 
L 853.2 401.805556 
" clip-path="url(#p7e52788700)" style="fill: none; stroke-dasharray: 1.85,0.8; stroke-dashoffset: 0; stroke: #808080; stroke-width: 0.5"/>
     </g>
     <g id="line2d_18">
      <g>
       <use xlink:href="#m14c51767cb" x="81.29" y="401.805556" style="stroke: #000000; stroke-width: 0.8"/>
      </g>
     </g>
     <g id="text_10">
      <!-- −40 -->
      <g transform="translate(38.183594 409.420712) scale(0.23 -0.23)">
       <use xlink:href="#TimesNewRomanPS-BoldMT-2212"/>
       <use xlink:href="#TimesNewRomanPS-BoldMT-34" x="56.982422"/>
       <use xlink:href="#TimesNewRomanPS-BoldMT-30" x="106.982422"/>
      </g>
     </g>
    </g>
    <g id="ytick_3">
     <g id="line2d_19">
      <path d="M 81.29 315.375658 
L 853.2 315.375658 
" clip-path="url(#p7e52788700)" style="fill: none; stroke-dasharray: 1.85,0.8; stroke-dashoffset: 0; stroke: #808080; stroke-width: 0.5"/>
     </g>
     <g id="line2d_20">
      <g>
       <use xlink:href="#m14c51767cb" x="81.29" y="315.375658" style="stroke: #000000; stroke-width: 0.8"/>
      </g>
     </g>
     <g id="text_11">
      <!-- −30 -->
      <g transform="translate(38.183594 322.990814) scale(0.23 -0.23)">
       <defs>
        <path id="TimesNewRomanPS-BoldMT-33" d="M 947 2125 
L 947 2234 
Q 1303 2338 1440 2427 
Q 1578 2516 1678 2698 
Q 1778 2881 1778 3069 
Q 1778 3328 1589 3514 
Q 1400 3700 1119 3700 
Q 681 3700 375 3238 
L 259 3278 
Q 484 3800 836 4062 
Q 1188 4325 1619 4325 
Q 2059 4325 2345 4056 
Q 2631 3788 2631 3428 
Q 2631 3194 2498 2976 
Q 2366 2759 2081 2594 
Q 2447 2416 2639 2155 
Q 2831 1894 2831 1500 
Q 2831 838 2351 373 
Q 1872 -91 1066 -91 
Q 528 -91 281 88 
Q 103 213 103 409 
Q 103 553 206 654 
Q 309 756 444 756 
Q 547 756 638 713 
Q 688 688 992 439 
Q 1297 191 1563 191 
Q 1794 191 1959 373 
Q 2125 556 2125 838 
Q 2125 1266 1825 1627 
Q 1525 1988 947 2125 
z
" transform="scale(0.015625)"/>
       </defs>
       <use xlink:href="#TimesNewRomanPS-BoldMT-2212"/>
       <use xlink:href="#TimesNewRomanPS-BoldMT-33" x="56.982422"/>
       <use xlink:href="#TimesNewRomanPS-BoldMT-30" x="106.982422"/>
      </g>
     </g>
    </g>
    <g id="ytick_4">
     <g id="line2d_21">
      <path d="M 81.29 228.945761 
L 853.2 228.945761 
" clip-path="url(#p7e52788700)" style="fill: none; stroke-dasharray: 1.85,0.8; stroke-dashoffset: 0; stroke: #808080; stroke-width: 0.5"/>
     </g>
     <g id="line2d_22">
      <g>
       <use xlink:href="#m14c51767cb" x="81.29" y="228.945761" style="stroke: #000000; stroke-width: 0.8"/>
      </g>
     </g>
     <g id="text_12">
      <!-- −20 -->
      <g transform="translate(38.183594 236.560917) scale(0.23 -0.23)">
       <use xlink:href="#TimesNewRomanPS-BoldMT-2212"/>
       <use xlink:href="#TimesNewRomanPS-BoldMT-32" x="56.982422"/>
       <use xlink:href="#TimesNewRomanPS-BoldMT-30" x="106.982422"/>
      </g>
     </g>
    </g>
    <g id="ytick_5">
     <g id="line2d_23">
      <path d="M 81.29 142.515863 
L 853.2 142.515863 
" clip-path="url(#p7e52788700)" style="fill: none; stroke-dasharray: 1.85,0.8; stroke-dashoffset: 0; stroke: #808080; stroke-width: 0.5"/>
     </g>
     <g id="line2d_24">
      <g>
       <use xlink:href="#m14c51767cb" x="81.29" y="142.515863" style="stroke: #000000; stroke-width: 0.8"/>
      </g>
     </g>
     <g id="text_13">
      <!-- −10 -->
      <g transform="translate(38.183594 150.13102) scale(0.23 -0.23)">
       <use xlink:href="#TimesNewRomanPS-BoldMT-2212"/>
       <use xlink:href="#TimesNewRomanPS-BoldMT-31" x="56.982422"/>
       <use xlink:href="#TimesNewRomanPS-BoldMT-30" x="106.982422"/>
      </g>
     </g>
    </g>
    <g id="ytick_6">
     <g id="line2d_25">
      <path d="M 81.29 56.085966 
L 853.2 56.085966 
" clip-path="url(#p7e52788700)" style="fill: none; stroke-dasharray: 1.85,0.8; stroke-dashoffset: 0; stroke: #808080; stroke-width: 0.5"/>
     </g>
     <g id="line2d_26">
      <g>
       <use xlink:href="#m14c51767cb" x="81.29" y="56.085966" style="stroke: #000000; stroke-width: 0.8"/>
      </g>
     </g>
     <g id="text_14">
      <!-- 0 -->
      <g transform="translate(62.79 63.701122) scale(0.23 -0.23)">
       <use xlink:href="#TimesNewRomanPS-BoldMT-30"/>
      </g>
     </g>
    </g>
    <g id="text_15">
     <!-- Amplitude (m) -->
     <g transform="translate(28.835938 351.356172) rotate(-90) scale(0.25 -0.25)">
      <defs>
       <path id="TimesNewRomanPS-BoldMT-41" d="M 2663 1206 
L 1166 1206 
L 988 794 
Q 900 588 900 453 
Q 900 275 1044 191 
Q 1128 141 1459 116 
L 1459 0 
L 50 0 
L 50 116 
Q 278 150 425 304 
Q 572 459 788 944 
L 2303 4325 
L 2363 4325 
L 3891 850 
Q 4109 356 4250 228 
Q 4356 131 4550 116 
L 4550 0 
L 2500 0 
L 2500 116 
L 2584 116 
Q 2831 116 2931 184 
Q 3000 234 3000 328 
Q 3000 384 2981 444 
Q 2975 472 2888 678 
L 2663 1206 
z
M 2556 1438 
L 1925 2897 
L 1275 1438 
L 2556 1438 
z
" transform="scale(0.015625)"/>
       <path id="TimesNewRomanPS-BoldMT-6d" d="M 1428 2922 
L 1428 2538 
Q 1669 2800 1873 2904 
Q 2078 3009 2322 3009 
Q 2603 3009 2793 2878 
Q 2984 2747 3088 2478 
Q 3338 2759 3567 2884 
Q 3797 3009 4047 3009 
Q 4350 3009 4529 2870 
Q 4709 2731 4779 2517 
Q 4850 2303 4850 1834 
L 4850 638 
Q 4850 300 4911 219 
Q 4972 138 5166 113 
L 5166 0 
L 3656 0 
L 3656 113 
Q 3834 128 3919 250 
Q 3975 334 3975 638 
L 3975 1894 
Q 3975 2284 3944 2390 
Q 3913 2497 3845 2548 
Q 3778 2600 3688 2600 
Q 3553 2600 3415 2501 
Q 3278 2403 3138 2206 
L 3138 638 
Q 3138 322 3191 241 
Q 3263 125 3466 113 
L 3466 0 
L 1953 0 
L 1953 113 
Q 2075 119 2145 173 
Q 2216 228 2239 304 
Q 2263 381 2263 638 
L 2263 1894 
Q 2263 2291 2231 2391 
Q 2200 2491 2126 2547 
Q 2053 2603 1969 2603 
Q 1844 2603 1741 2538 
Q 1594 2441 1428 2206 
L 1428 638 
Q 1428 328 1489 229 
Q 1550 131 1744 113 
L 1744 0 
L 238 0 
L 238 113 
Q 422 131 500 231 
Q 553 300 553 638 
L 553 2288 
Q 553 2619 492 2700 
Q 431 2781 238 2806 
L 238 2922 
L 1428 2922 
z
" transform="scale(0.015625)"/>
       <path id="TimesNewRomanPS-BoldMT-70" d="M 1347 297 
L 1347 -791 
Q 1347 -1016 1383 -1097 
Q 1419 -1178 1494 -1215 
Q 1569 -1253 1788 -1253 
L 1788 -1369 
L 122 -1369 
L 122 -1253 
Q 316 -1247 409 -1144 
Q 472 -1072 472 -772 
L 472 2313 
Q 472 2622 400 2708 
Q 328 2794 122 2806 
L 122 2922 
L 1347 2922 
L 1347 2538 
Q 1500 2763 1659 2863 
Q 1888 3009 2156 3009 
Q 2478 3009 2742 2806 
Q 3006 2603 3143 2245 
Q 3281 1888 3281 1475 
Q 3281 1031 3139 664 
Q 2997 297 2726 104 
Q 2456 -88 2125 -88 
Q 1884 -88 1675 19 
Q 1519 100 1347 297 
z
M 1347 613 
Q 1616 231 1922 231 
Q 2091 231 2200 409 
Q 2363 672 2363 1409 
Q 2363 2166 2184 2444 
Q 2066 2628 1866 2628 
Q 1550 2628 1347 2172 
L 1347 613 
z
" transform="scale(0.015625)"/>
       <path id="TimesNewRomanPS-BoldMT-6c" d="M 1359 4238 
L 1359 606 
Q 1359 297 1431 211 
Q 1503 125 1713 113 
L 1713 0 
L 134 0 
L 134 113 
Q 328 119 422 225 
Q 484 297 484 606 
L 484 3631 
Q 484 3938 412 4023 
Q 341 4109 134 4122 
L 134 4238 
L 1359 4238 
z
" transform="scale(0.015625)"/>
       <path id="TimesNewRomanPS-BoldMT-69" d="M 919 4338 
Q 1122 4338 1262 4195 
Q 1403 4053 1403 3853 
Q 1403 3653 1261 3512 
Q 1119 3372 919 3372 
Q 719 3372 578 3512 
Q 438 3653 438 3853 
Q 438 4053 578 4195 
Q 719 4338 919 4338 
z
M 1356 2922 
L 1356 606 
Q 1356 297 1428 211 
Q 1500 125 1709 113 
L 1709 0 
L 131 0 
L 131 113 
Q 325 119 419 225 
Q 481 297 481 606 
L 481 2313 
Q 481 2622 409 2708 
Q 338 2794 131 2806 
L 131 2922 
L 1356 2922 
z
" transform="scale(0.015625)"/>
       <path id="TimesNewRomanPS-BoldMT-74" d="M 1375 3991 
L 1375 2922 
L 2069 2922 
L 2069 2613 
L 1375 2613 
L 1375 809 
Q 1375 556 1398 482 
Q 1422 409 1481 364 
Q 1541 319 1591 319 
Q 1794 319 1975 628 
L 2069 559 
Q 1816 -41 1247 -41 
Q 969 -41 776 114 
Q 584 269 531 459 
Q 500 566 500 1034 
L 500 2613 
L 119 2613 
L 119 2722 
Q 513 3000 789 3306 
Q 1066 3613 1272 3991 
L 1375 3991 
z
" transform="scale(0.015625)"/>
       <path id="TimesNewRomanPS-BoldMT-64" d="M 3056 4238 
L 3056 875 
Q 3056 534 3075 472 
Q 3100 369 3170 319 
Q 3241 269 3416 256 
L 3416 153 
L 2181 -88 
L 2181 375 
Q 1959 106 1786 9 
Q 1613 -88 1394 -88 
Q 834 -88 509 413 
Q 247 819 247 1409 
Q 247 1881 409 2254 
Q 572 2628 855 2818 
Q 1138 3009 1463 3009 
Q 1672 3009 1834 2928 
Q 1997 2847 2181 2644 
L 2181 3525 
Q 2181 3859 2153 3928 
Q 2116 4019 2041 4062 
Q 1966 4106 1759 4106 
L 1759 4238 
L 3056 4238 
z
M 2181 2256 
Q 1950 2700 1616 2700 
Q 1500 2700 1425 2638 
Q 1309 2541 1236 2297 
Q 1163 2053 1163 1550 
Q 1163 997 1244 731 
Q 1325 466 1466 347 
Q 1538 288 1663 288 
Q 1938 288 2181 719 
L 2181 2256 
z
" transform="scale(0.015625)"/>
      </defs>
      <use xlink:href="#TimesNewRomanPS-BoldMT-41"/>
      <use xlink:href="#TimesNewRomanPS-BoldMT-6d" x="72.216797"/>
      <use xlink:href="#TimesNewRomanPS-BoldMT-70" x="155.517578"/>
      <use xlink:href="#TimesNewRomanPS-BoldMT-6c" x="211.132812"/>
      <use xlink:href="#TimesNewRomanPS-BoldMT-69" x="238.916016"/>
      <use xlink:href="#TimesNewRomanPS-BoldMT-74" x="266.699219"/>
      <use xlink:href="#TimesNewRomanPS-BoldMT-75" x="300"/>
      <use xlink:href="#TimesNewRomanPS-BoldMT-64" x="355.615234"/>
      <use xlink:href="#TimesNewRomanPS-BoldMT-65" x="411.230469"/>
      <use xlink:href="#TimesNewRomanPS-BoldMT-20" x="455.615234"/>
      <use xlink:href="#TimesNewRomanPS-BoldMT-28" x="480.615234"/>
      <use xlink:href="#TimesNewRomanPS-BoldMT-6d" x="513.916016"/>
      <use xlink:href="#TimesNewRomanPS-BoldMT-29" x="597.216797"/>
     </g>
    </g>
   </g>
   <g id="line2d_27">
    <path d="M 116.376818 328.295199 
L 116.719463 319.573385 
L 117.062108 321.597228 
L 117.404752 317.915401 
L 117.747397 317.819809 
L 118.432686 315.150595 
L 118.775331 316.201928 
L 119.117976 316.844621 
L 119.460621 318.230956 
L 120.14591 315.19623 
L 120.488555 317.312552 
L 120.831199 316.804604 
L 121.173844 315.841429 
L 121.859134 314.902541 
L 122.20178 316.711346 
L 122.544424 316.152404 
L 122.887068 315.150768 
L 123.229712 314.808332 
L 123.572355 312.953028 
L 123.914999 314.046885 
L 124.257649 314.22398 
L 124.600293 313.410588 
L 124.942936 314.362268 
L 125.28558 316.061912 
L 125.628224 316.960091 
L 125.970868 317.112294 
L 126.656161 312.868068 
L 127.341449 309.856936 
L 128.026737 312.547499 
L 128.36938 312.744386 
L 128.71203 311.41328 
L 129.054674 311.109478 
L 129.397317 310.116831 
L 129.739961 310.995477 
L 130.082605 309.18382 
L 130.425249 311.104206 
L 130.767898 306.416162 
L 131.110542 308.373972 
L 131.453186 307.661876 
L 131.79583 305.388165 
L 132.138474 306.141401 
L 132.481118 305.403549 
L 132.823767 304.335362 
L 133.166411 304.321361 
L 133.509055 305.208564 
L 133.851699 301.676433 
L 134.194342 302.631656 
L 134.536986 302.582478 
L 134.87963 300.962781 
L 135.222279 300.26365 
L 135.564923 301.409192 
L 135.907567 300.20531 
L 136.250211 301.10444 
L 136.592855 298.976536 
L 136.935499 298.640929 
L 138.30608 295.291597 
L 138.648723 292.503628 
L 138.991367 295.390559 
L 139.334011 295.452875 
L 140.019304 288.614023 
L 140.361948 289.921535 
L 140.704592 289.479187 
L 141.047236 289.649453 
L 141.38988 288.85015 
L 141.732529 289.223354 
L 142.075173 285.474198 
L 142.417817 283.711115 
L 143.103104 283.603336 
L 143.445748 284.951124 
L 143.788392 284.682241 
L 144.131042 281.704731 
L 144.473685 282.9036 
L 144.816329 281.009575 
L 145.158973 280.610874 
L 145.501617 281.851316 
L 145.844261 280.825998 
L 146.18691 275.118686 
L 146.529554 276.775375 
L 146.872198 276.592748 
L 147.214842 274.487834 
L 147.557485 275.023354 
L 147.900129 270.877053 
L 148.242779 269.659774 
L 148.585423 272.042387 
L 148.928066 268.603601 
L 149.27071 267.950623 
L 149.613354 264.90708 
L 149.955998 267.134379 
L 150.298642 266.353658 
L 150.641291 268.030052 
L 150.983935 263.803889 
L 151.326579 263.011241 
L 151.669223 260.833985 
L 152.011866 260.953604 
L 152.35451 261.730695 
L 152.69716 259.49363 
L 153.039804 255.308003 
L 153.382447 254.889855 
L 153.725091 254.780435 
L 154.067735 252.79782 
L 154.410379 252.198255 
L 154.753028 253.645005 
L 155.095672 248.458347 
L 155.438316 247.709864 
L 155.78096 246.58956 
L 156.123604 243.124672 
L 156.466248 245.592937 
L 156.808891 243.276875 
L 157.151541 242.406958 
L 157.494185 239.672662 
L 157.836828 235.233363 
L 158.179472 236.532836 
L 158.522116 231.663462 
L 158.86476 231.607542 
L 159.207409 229.424237 
L 159.550053 224.821672 
L 160.235341 222.182362 
L 160.577985 221.705269 
L 160.920629 213.953976 
L 161.263272 213.720011 
L 161.605922 215.008421 
L 161.948566 214.99779 
L 162.29121 213.599614 
L 162.633853 210.820979 
L 162.976497 209.576561 
L 163.319141 199.19417 
L 163.66179 179.067845 
L 164.004434 195.115111 
L 164.347078 198.70852 
L 164.689722 190.236143 
L 165.032366 207.273723 
L 165.37501 194.582444 
L 165.717653 205.062328 
L 166.402947 201.376438 
L 166.745591 197.104727 
L 167.088234 194.463689 
L 167.430878 193.509071 
L 167.773522 177.913228 
L 168.116171 176.570194 
L 168.458815 178.337599 
L 169.144103 170.251131 
L 169.486747 158.5716 
L 169.829391 152.535336 
L 170.17204 150.557387 
L 170.514684 139.495415 
L 170.857328 136.702346 
L 171.199972 126.871153 
L 171.542615 127.376102 
L 171.885259 119.129143 
L 172.227903 118.150739 
L 172.570575 112.958455 
L 172.913191 112.298562 
L 173.598478 106.330716 
L 173.94115 99.275945 
L 174.283766 99.706651 
L 174.626438 98.442156 
L 174.969054 87.075656 
L 175.311726 91.362968 
L 175.654341 85.500229 
L 175.997013 86.965294 
L 176.339629 82.811413 
L 176.682301 81.5083 
L 177.024917 76.546697 
L 177.367589 82.812951 
L 177.710204 77.584253 
L 178.052876 83.257054 
L 178.395492 80.896109 
L 178.738164 75.920011 
L 179.08078 73.702332 
L 179.423452 75.962924 
L 179.766067 73.166614 
L 180.108739 74.634626 
L 180.451355 69.38407 
L 180.794027 79.9164 
L 181.136643 75.868438 
L 181.479315 76.549463 
L 181.82193 71.945394 
L 182.164602 72.7336 
L 182.507274 75.067743 
L 182.84989 71.921704 
L 183.192562 78.662795 
L 183.535178 75.609028 
L 183.87785 73.64337 
L 184.220465 74.317903 
L 184.563137 76.59094 
L 184.905753 74.338448 
L 185.248425 69.62852 
L 185.591041 75.362728 
L 185.933712 72.185349 
L 186.276328 74.619751 
L 186.619 74.738238 
L 186.961616 71.183877 
L 187.304288 72.797092 
L 187.646904 70.05391 
L 187.989575 76.361573 
L 188.332191 72.733246 
L 188.674863 76.707016 
L 189.017479 74.224913 
L 189.360151 72.817549 
L 189.702767 72.454215 
L 190.045438 70.21034 
L 190.388054 72.803228 
L 191.073342 67.387081 
L 191.416014 71.334309 
L 191.75863 72.130492 
L 192.101301 67.231291 
L 192.443917 70.937016 
L 192.786589 64.889646 
L 193.129261 64.351415 
L 193.471877 68.594671 
L 193.814549 65.894204 
L 194.157164 67.235604 
L 194.499836 64.648533 
L 194.842452 66.844284 
L 195.185124 67.571203 
L 195.52774 64.463035 
L 195.870412 65.937825 
L 196.213027 64.18412 
L 196.555699 72.621302 
L 196.898315 71.132253 
L 197.240987 68.447032 
L 197.583603 69.2679 
L 197.926275 74.201361 
L 198.26889 70.120496 
L 198.611562 70.614296 
L 198.954178 71.710754 
L 199.29685 70.050047 
L 199.639466 60.616934 
L 199.982138 70.203754 
L 200.324753 64.494033 
L 200.667425 66.407217 
L 201.010041 70.226796 
L 201.352713 63.738197 
L 201.695329 63.487434 
L 202.038001 67.44371 
L 202.380616 65.181909 
L 202.723288 66.328453 
L 203.065904 64.599003 
L 203.408576 64.035254 
L 203.751192 66.78699 
L 204.093864 63.706079 
L 204.436536 69.390803 
L 204.779151 61.525376 
L 205.121823 62.120595 
L 205.464439 65.409254 
L 205.807111 66.638581 
L 206.149727 59.138933 
L 206.492399 68.595605 
L 206.835014 67.103928 
L 207.177686 60.655514 
L 207.862974 68.802362 
L 208.20559 68.324102 
L 208.548262 64.834884 
L 208.890877 65.566669 
L 209.233549 67.032321 
L 209.576165 67.239908 
L 209.918837 64.105992 
L 210.261453 65.850444 
L 210.604125 63.8582 
L 210.94674 62.79992 
L 211.632028 64.950112 
L 211.9747 65.346039 
L 212.317316 60.436357 
L 212.659987 59.470118 
L 213.002603 63.531649 
L 213.687891 60.524832 
L 214.030563 62.233341 
L 214.373179 61.614941 
L 214.71585 62.772616 
L 215.058466 60.21152 
L 215.401138 59.678487 
L 215.74381 62.471548 
L 216.086426 60.295433 
L 216.771713 64.541554 
L 217.114385 60.501458 
L 217.457001 59.040939 
L 217.799673 63.118802 
L 218.142289 62.390386 
L 218.484961 63.000002 
L 218.827576 61.893622 
L 219.170248 60.270214 
L 219.512864 57.354587 
L 219.855536 63.052274 
L 220.198152 58.403285 
L 220.540824 60.708453 
L 220.883439 61.299691 
L 221.226111 61.415822 
L 221.568727 59.695592 
L 222.254015 63.825333 
L 222.596687 62.929859 
L 222.939302 59.377661 
L 223.281974 60.722418 
L 223.62459 60.013009 
L 223.967262 61.843414 
L 224.309878 60.354103 
L 224.65255 63.613269 
L 224.995165 56.786096 
L 225.337837 59.658534 
L 225.680453 60.273004 
L 226.023125 59.57927 
L 226.365797 61.156227 
L 226.708413 58.282047 
L 227.051085 61.959425 
L 227.3937 59.689304 
L 227.736372 58.294201 
L 228.078988 59.847014 
L 228.42166 60.100103 
L 228.764276 59.846999 
L 229.106948 60.0439 
L 229.449563 60.39823 
L 229.792235 60.386482 
L 230.134851 60.694206 
L 230.820139 56.085966 
L 231.162811 61.605663 
L 231.505426 59.764742 
L 231.848098 61.701591 
L 232.190714 59.838429 
L 232.533386 61.68459 
L 232.876002 61.473154 
L 233.218674 60.931512 
L 233.561289 60.629081 
L 233.903961 60.90259 
L 234.246577 64.295693 
L 234.589249 59.916526 
L 234.931865 62.337958 
L 235.274537 57.791703 
L 235.617152 62.776407 
L 235.959824 57.883398 
L 236.30244 59.857751 
L 236.645112 59.845026 
L 236.987784 62.089799 
L 237.673071 64.827996 
L 238.015687 59.420847 
L 238.358359 64.91121 
L 238.700975 64.954382 
L 239.043647 58.550229 
L 239.386263 62.04853 
L 239.728934 60.158298 
L 240.414222 62.681061 
L 240.756838 61.901134 
L 241.09951 62.495699 
L 241.442125 62.245397 
L 241.784797 62.622822 
L 242.127413 64.188737 
L 242.470085 64.369365 
L 242.812701 60.808499 
L 243.155373 63.384265 
L 243.497988 62.03149 
L 243.84066 58.922765 
L 244.183276 64.289496 
L 244.525948 63.40123 
L 244.868564 59.785143 
L 245.553851 62.177734 
L 246.239139 59.950451 
L 246.581811 62.063976 
L 246.924427 62.564308 
L 247.267099 64.692814 
L 247.609714 63.615752 
L 247.952386 59.896454 
L 248.295058 61.346662 
L 248.637674 61.950311 
L 248.980346 64.212549 
L 249.322962 63.719169 
L 249.665634 63.517183 
L 250.008249 64.725727 
L 250.350921 60.130868 
L 250.693537 61.684407 
L 251.036209 62.43138 
L 251.378825 62.432289 
L 251.721497 63.225011 
L 252.064112 65.267552 
L 252.406784 60.296907 
L 252.7494 64.236202 
L 253.092072 62.828862 
L 253.434688 63.135654 
L 253.77736 65.150656 
L 254.119975 64.516415 
L 254.462647 63.106015 
L 254.805263 59.09894 
L 255.147935 62.677295 
L 255.490551 59.354475 
L 255.833223 64.002626 
L 256.175838 62.671016 
L 256.51851 65.113223 
L 256.861126 62.173625 
L 257.203798 63.436933 
L 257.889086 64.84542 
L 258.231701 63.612033 
L 258.574373 67.443088 
L 258.916989 61.815993 
L 259.602333 66.601503 
L 259.944949 62.945615 
L 260.28762 64.020182 
L 260.630236 67.112493 
L 260.972908 64.569301 
L 261.315524 62.902026 
L 261.658196 65.899649 
L 262.000812 65.317664 
L 262.343483 62.461732 
L 262.686099 64.048237 
L 263.028771 63.682367 
L 263.371387 66.832763 
L 263.714059 65.549443 
L 264.056675 65.127363 
L 264.399346 67.057515 
L 264.741962 63.132893 
L 265.084634 67.202424 
L 265.42725 65.653047 
L 265.769922 65.332789 
L 266.112538 63.087976 
L 266.455209 66.405488 
L 266.797825 66.46261 
L 267.140497 65.36992 
L 267.483113 66.675867 
L 267.825785 65.345728 
L 268.1684 62.972688 
L 268.511072 66.996556 
L 268.853688 63.321485 
L 269.19636 68.864194 
L 269.538976 68.077518 
L 269.881648 65.568449 
L 270.22432 60.795787 
L 270.566935 66.566239 
L 270.909607 63.34034 
L 271.252223 67.515291 
L 271.594895 65.859735 
L 271.937511 66.124375 
L 272.280183 67.333789 
L 272.622798 66.182058 
L 272.96547 63.227201 
L 273.650758 68.034683 
L 273.993374 66.518789 
L 274.336046 64.487526 
L 275.021333 69.088981 
L 275.706621 64.987381 
L 276.049237 68.977702 
L 276.391909 67.294921 
L 276.734524 66.2851 
L 277.762484 68.990952 
L 278.1051 69.704984 
L 278.447772 69.19924 
L 278.790387 67.873569 
L 279.133059 69.696013 
L 279.475675 68.271907 
L 279.818347 67.512655 
L 280.160963 69.727758 
L 280.503635 66.902063 
L 280.846306 69.184538 
L 281.531594 69.560387 
L 281.87421 68.217871 
L 282.216882 72.042273 
L 282.559498 67.479803 
L 282.902169 66.53413 
L 283.587457 69.92997 
L 283.930073 70.54981 
L 284.272745 68.013119 
L 284.615361 70.141697 
L 284.958032 68.842794 
L 285.300648 71.118822 
L 285.64332 68.205788 
L 285.985936 68.989734 
L 286.328608 70.502412 
L 286.671224 69.980678 
L 287.013895 71.475915 
L 287.356511 70.452076 
L 287.699183 69.979926 
L 288.041799 68.486288 
L 288.727087 71.40041 
L 289.069758 71.558914 
L 289.412374 70.400658 
L 289.755046 72.177968 
L 290.097662 70.610225 
L 290.440334 74.092321 
L 290.78295 69.632046 
L 291.125621 71.742448 
L 291.468237 70.52338 
L 291.810909 72.79965 
L 292.153581 71.033688 
L 292.496197 71.024241 
L 292.838869 70.275024 
L 293.181484 71.311664 
L 293.524156 76.193225 
L 293.866772 71.537549 
L 294.55206 73.657605 
L 294.894732 70.983775 
L 295.237347 70.912107 
L 295.580019 72.330448 
L 295.922635 70.951502 
L 296.265307 74.099884 
L 296.607923 72.008764 
L 296.950595 74.696968 
L 297.29321 73.396708 
L 297.635882 71.504679 
L 297.978498 71.456538 
L 298.32117 70.979937 
L 298.663786 72.717144 
L 299.006458 73.298307 
L 299.349073 72.86608 
L 299.691745 71.44506 
L 300.034361 75.02445 
L 300.377033 73.93444 
L 300.719649 73.997879 
L 301.062321 71.947494 
L 301.404936 73.853844 
L 301.747608 74.211543 
L 302.090224 73.423233 
L 302.432896 72.291615 
L 302.775512 75.527965 
L 303.118184 76.798787 
L 303.460856 72.435728 
L 303.803471 72.365746 
L 304.146143 73.631927 
L 304.488759 76.527933 
L 304.831431 69.944438 
L 305.174047 74.025606 
L 305.516718 74.11634 
L 305.859334 75.866546 
L 306.544622 75.463039 
L 306.887294 72.565883 
L 307.22991 73.721701 
L 307.572581 73.126476 
L 307.915197 75.679684 
L 308.257869 75.949631 
L 308.600485 75.148158 
L 308.943157 75.800651 
L 309.285773 76.033649 
L 309.628444 76.666532 
L 309.97106 76.705477 
L 310.313732 76.376318 
L 310.656348 76.232593 
L 310.99902 76.823912 
L 311.341636 76.100503 
L 311.684307 76.061445 
L 312.026923 75.676478 
L 312.369595 74.564021 
L 313.054883 76.244927 
L 313.397499 78.606797 
L 313.74017 76.517786 
L 314.082842 78.571032 
L 314.425458 74.024431 
L 314.76813 76.929322 
L 315.110746 78.312555 
L 315.453418 76.369697 
L 315.796033 76.886972 
L 316.138705 78.845127 
L 316.481321 76.063545 
L 316.823993 78.48226 
L 317.166609 76.613101 
L 317.509281 81.039072 
L 317.851896 78.937218 
L 318.194568 77.686465 
L 318.537184 77.279251 
L 319.222472 78.721239 
L 319.565144 77.736551 
L 319.907759 75.57513 
L 320.250431 79.011799 
L 320.593047 80.929177 
L 320.935719 78.381085 
L 321.278335 78.827012 
L 321.963622 78.384698 
L 322.64891 78.497316 
L 323.334198 78.897901 
L 323.67687 77.811097 
L 324.019485 77.292397 
L 324.362157 79.879909 
L 324.704829 79.37311 
L 325.047445 80.415887 
L 325.390117 77.523381 
L 325.732733 79.525348 
L 326.075405 77.918919 
L 326.41802 81.996465 
L 326.760692 80.591443 
L 327.103308 81.600772 
L 327.44598 80.931813 
L 327.788596 79.431606 
L 328.131268 80.391963 
L 328.473883 79.661847 
L 328.816555 80.522325 
L 329.159171 80.445048 
L 329.844459 81.372562 
L 330.187131 80.702713 
L 330.529746 83.634251 
L 330.872418 80.442525 
L 331.215034 79.323154 
L 331.557706 79.772382 
L 331.900322 78.703244 
L 332.242994 81.230342 
L 332.585609 81.016601 
L 332.928281 81.180169 
L 333.270897 83.296086 
L 333.613569 82.193586 
L 333.956185 81.988522 
L 334.298856 81.532198 
L 334.641472 82.004278 
L 334.984144 83.829989 
L 335.32676 83.448894 
L 335.669432 82.077061 
L 336.012104 82.620783 
L 336.354719 84.087541 
L 336.697391 80.200417 
L 337.040007 83.506707 
L 337.382679 82.025359 
L 337.725295 84.388983 
L 338.067967 84.097939 
L 338.410582 83.976306 
L 338.753254 84.712516 
L 339.09587 84.437617 
L 339.438542 83.827621 
L 339.781158 85.463445 
L 340.12383 82.881274 
L 340.466445 87.035164 
L 340.809117 85.972387 
L 341.151733 85.459538 
L 341.494405 86.025265 
L 341.837021 84.210445 
L 342.179693 86.276465 
L 342.522308 85.2154 
L 342.86498 87.270201 
L 343.207596 85.771645 
L 343.550268 85.357222 
L 343.892884 86.263578 
L 344.235556 85.835958 
L 344.578171 84.187204 
L 344.920843 84.616501 
L 345.263459 88.107698 
L 345.948747 86.045213 
L 346.291419 87.629499 
L 346.634034 85.607636 
L 347.319378 87.581245 
L 347.661994 87.24295 
L 348.004666 85.849389 
L 348.347282 88.598344 
L 348.689954 86.798415 
L 349.032569 87.738738 
L 349.375241 86.340803 
L 349.717857 87.80248 
L 350.060529 85.78792 
L 350.403145 88.13087 
L 350.745817 87.648531 
L 351.088432 86.634656 
L 351.431104 86.741077 
L 351.77372 85.028244 
L 352.116392 87.917803 
L 352.459008 85.502295 
L 352.80168 87.845902 
L 353.486967 86.110347 
L 353.829583 86.65909 
L 354.172255 89.077131 
L 354.514871 88.591637 
L 354.857543 87.817104 
L 355.200158 89.238452 
L 355.54283 91.700736 
L 356.228118 89.021833 
L 356.570734 90.371462 
L 356.913406 89.430154 
L 357.256021 90.975356 
L 357.598693 90.510648 
L 357.941365 89.726963 
L 358.283981 92.188235 
L 358.626653 92.264242 
L 359.31194 92.985785 
L 359.997228 91.525465 
L 360.339844 91.216435 
L 360.682516 91.539769 
L 361.025131 92.695907 
L 361.367803 93.022517 
L 361.710419 92.822216 
L 362.395707 93.984499 
L 362.738379 91.983051 
L 363.423666 95.425683 
L 363.766282 93.288064 
L 364.108954 95.003084 
L 364.45157 93.686109 
L 364.794242 93.794302 
L 365.136857 94.804209 
L 365.479529 93.655677 
L 365.822145 93.535254 
L 366.164817 93.885148 
L 366.507433 94.68453 
L 366.850105 95.918697 
L 367.19272 92.969916 
L 367.535392 93.447554 
L 367.878008 96.371408 
L 368.22068 94.387168 
L 368.563352 93.817819 
L 368.905968 96.828164 
L 369.591255 95.487921 
L 369.933927 96.222031 
L 370.276543 96.365496 
L 370.619215 96.012646 
L 370.961831 94.907398 
L 371.304503 95.467939 
L 371.647118 96.396412 
L 371.98979 96.135739 
L 372.332406 97.776853 
L 372.675078 98.610288 
L 373.017694 97.330373 
L 373.360366 98.279287 
L 373.702981 97.797467 
L 374.045653 94.267177 
L 374.730941 100.948977 
L 375.073557 98.64983 
L 375.416229 98.151959 
L 375.758844 102.397793 
L 376.101516 100.143753 
L 376.444132 99.729218 
L 376.786804 103.397528 
L 377.12942 100.530043 
L 377.472092 103.324261 
L 377.814707 100.474581 
L 378.157379 101.916923 
L 378.499995 101.875523 
L 378.842667 102.155616 
L 379.185283 103.364045 
L 379.527955 100.412481 
L 379.870626 102.624818 
L 380.213242 101.507574 
L 380.89853 101.233228 
L 381.241202 100.420649 
L 381.583818 102.696477 
L 381.926489 103.180148 
L 382.269105 100.483129 
L 382.611777 102.044295 
L 382.954393 101.301006 
L 383.297065 102.386514 
L 383.639681 101.074862 
L 383.982352 100.849298 
L 384.324968 103.010045 
L 384.66764 102.053404 
L 385.010256 103.825235 
L 385.352928 101.256339 
L 385.695544 101.928677 
L 386.038215 104.842169 
L 386.380831 102.450083 
L 386.723503 101.011025 
L 387.066119 105.14896 
L 387.408791 106.190691 
L 387.751407 106.704379 
L 388.094078 106.980591 
L 388.779366 108.974192 
L 389.121982 107.604874 
L 389.807269 110.601451 
L 390.149941 111.399441 
L 390.835229 116.243085 
L 391.177901 114.623717 
L 391.520517 117.285187 
L 391.863189 117.058594 
L 392.205804 121.910172 
L 392.548476 121.91337 
L 392.891092 118.668809 
L 393.233764 122.491301 
L 393.57638 122.695673 
L 393.919052 121.677434 
L 394.261667 124.28772 
L 394.604339 121.853621 
L 394.946955 124.134134 
L 395.289627 123.869399 
L 395.974915 117.00066 
L 396.31753 109.216956 
L 397.002818 68.305546 
L 397.688106 114.684235 
L 398.030778 125.144275 
L 398.373393 128.526156 
L 399.058681 130.51642 
L 399.401353 128.667633 
L 399.743969 129.730816 
L 400.086641 129.941644 
L 400.429256 124.46701 
L 400.771928 126.855302 
L 401.114544 125.207196 
L 401.457216 126.068133 
L 401.799888 125.579484 
L 402.142504 123.403283 
L 402.485175 122.243325 
L 402.827791 122.899431 
L 403.170463 119.338338 
L 403.513079 120.459896 
L 403.855751 120.031126 
L 404.198367 118.451567 
L 404.541038 118.545067 
L 404.883654 118.894849 
L 405.226326 118.633424 
L 405.568942 118.610183 
L 405.911614 120.213856 
L 406.25423 116.956563 
L 406.596901 117.746714 
L 406.939517 119.222453 
L 407.282189 119.171079 
L 407.624805 117.672523 
L 407.967477 118.057914 
L 408.310093 115.220844 
L 408.652764 117.201903 
L 409.338052 117.146735 
L 409.680668 119.920227 
L 410.02334 118.251257 
L 410.365956 118.885402 
L 410.708627 121.388308 
L 411.051243 117.887967 
L 411.393915 116.521017 
L 412.079203 122.840996 
L 412.421875 121.685463 
L 412.76449 124.476051 
L 413.107162 121.744477 
L 413.449778 121.397444 
L 413.79245 124.121585 
L 414.135066 124.774476 
L 414.477738 126.596833 
L 414.820353 124.072026 
L 415.163025 126.722018 
L 415.505641 126.802104 
L 415.848313 125.987839 
L 416.190929 127.672004 
L 416.533601 127.657561 
L 416.876216 129.375598 
L 417.218888 128.839974 
L 417.561504 126.854792 
L 417.904176 127.024324 
L 418.246792 128.141102 
L 418.589464 127.791588 
L 418.932079 128.599241 
L 419.274751 130.138108 
L 419.617367 130.462886 
L 419.960039 131.047731 
L 420.302655 130.573162 
L 420.645327 129.768067 
L 420.987942 126.161918 
L 421.330614 128.474116 
L 421.67323 132.286738 
L 422.015902 132.536235 
L 422.358518 131.414185 
L 422.70119 131.815609 
L 423.043805 128.356416 
L 423.386477 128.874762 
L 424.071765 132.206004 
L 424.414437 131.124645 
L 424.757053 131.828521 
L 425.099725 131.782186 
L 425.44234 131.110436 
L 425.785012 132.520678 
L 426.127628 132.616987 
L 426.4703 134.838857 
L 426.812916 133.015429 
L 427.155587 134.094143 
L 427.498203 134.606525 
L 427.840875 136.53106 
L 428.183491 136.151589 
L 428.526163 136.92875 
L 428.868779 136.071477 
L 429.21145 136.573894 
L 429.554066 135.716328 
L 429.896738 135.750857 
L 430.239354 135.158371 
L 430.582026 136.244467 
L 430.924642 140.025101 
L 431.267313 137.948812 
L 431.609929 137.91947 
L 431.952601 139.300559 
L 432.295217 138.981555 
L 432.637889 139.18412 
L 432.980505 140.252472 
L 433.323176 139.208502 
L 433.665792 140.780316 
L 434.008464 140.290389 
L 434.35108 140.034081 
L 434.693752 142.608603 
L 435.036424 139.567169 
L 435.379039 139.94759 
L 435.721711 140.965743 
L 436.064327 144.073417 
L 436.406999 141.788616 
L 436.749615 140.597007 
L 437.434902 145.080671 
L 437.777574 141.007212 
L 438.12019 141.671262 
L 438.462862 144.725617 
L 438.805478 145.142381 
L 439.14815 139.87218 
L 439.490765 144.082059 
L 439.833437 143.798397 
L 440.176053 143.838068 
L 440.518725 138.238379 
L 441.204013 146.1798 
L 441.546628 145.329502 
L 441.8893 145.301153 
L 442.231916 148.05334 
L 442.574588 147.550405 
L 442.917204 146.342115 
L 443.259876 143.925535 
L 443.602491 147.259741 
L 443.945163 147.810818 
L 444.287779 145.06399 
L 444.630451 145.460876 
L 444.973067 147.874171 
L 445.315739 149.482199 
L 445.658411 150.414605 
L 446.001026 149.536305 
L 446.343698 150.6038 
L 446.686314 149.0268 
L 447.028986 144.010668 
L 447.371602 145.920856 
L 447.714274 150.673031 
L 448.056889 150.164304 
L 448.399561 147.792149 
L 448.742177 147.670542 
L 449.427465 153.695311 
L 449.770137 152.641126 
L 450.112752 151.965935 
L 450.455424 150.503542 
L 450.79804 153.375866 
L 451.140712 149.737168 
L 451.483328 147.691026 
L 451.826 149.580902 
L 452.168615 152.928937 
L 452.511287 154.736532 
L 452.853903 149.779345 
L 453.196575 153.232566 
L 453.539191 154.652004 
L 453.881862 155.420106 
L 454.224478 153.959527 
L 454.56715 153.671802 
L 454.909766 158.147229 
L 455.252438 158.653017 
L 455.595054 158.179208 
L 455.937725 154.932901 
L 456.280397 157.604449 
L 456.623013 161.197426 
L 456.965685 161.785755 
L 457.308301 160.013337 
L 457.650973 164.959633 
L 458.33626 169.6297 
L 458.678876 172.087421 
L 459.021548 173.664507 
L 459.364164 177.724206 
L 460.049451 180.128772 
L 460.392123 183.803598 
L 460.734739 184.355799 
L 461.077411 193.872076 
L 461.420027 195.913464 
L 461.762699 193.34857 
L 462.447986 204.619029 
L 462.790602 196.952006 
L 463.133274 207.506652 
L 463.818562 217.203308 
L 464.161177 216.49467 
L 464.503849 219.545299 
L 464.846465 211.436533 
L 465.189137 218.382385 
L 465.531753 199.168846 
L 465.874425 228.86443 
L 466.21704 234.740972 
L 466.559712 208.662652 
L 466.902328 225.909997 
L 467.245 207.447707 
L 467.587672 229.534435 
L 467.930288 229.543078 
L 468.27296 225.488478 
L 468.615575 224.015108 
L 468.958247 218.291634 
L 469.300863 242.440838 
L 469.643535 223.134819 
L 469.986151 244.221208 
L 470.328823 250.384697 
L 470.671438 246.219467 
L 471.01411 254.630393 
L 471.356726 251.232401 
L 471.699398 251.760834 
L 472.042014 259.200114 
L 472.384686 257.843078 
L 472.727301 266.706119 
L 473.412589 251.291346 
L 473.755261 249.501124 
L 474.097877 255.523473 
L 474.440549 268.63169 
L 474.783164 268.413023 
L 475.125836 269.615435 
L 475.468452 258.818094 
L 475.811124 257.370566 
L 476.496412 274.366746 
L 476.839027 277.494212 
L 477.181699 251.764377 
L 477.524315 252.368954 
L 477.866987 262.076069 
L 478.209603 282.765658 
L 478.552275 288.359574 
L 478.894946 290.521963 
L 479.237562 290.994216 
L 479.92285 284.983017 
L 480.265522 289.270718 
L 480.608138 296.319681 
L 480.950809 295.379496 
L 481.293425 291.906743 
L 481.636097 292.876832 
L 481.978713 297.301352 
L 482.321385 298.10489 
L 482.664 296.497208 
L 483.006672 303.375213 
L 483.349288 305.140543 
L 483.69196 303.785841 
L 484.034576 297.253124 
L 484.377248 305.514871 
L 485.062535 310.68528 
L 485.405151 310.333338 
L 485.747823 309.431096 
L 486.090439 309.470163 
L 486.433111 310.018906 
L 486.775726 314.984563 
L 487.118398 316.805987 
L 487.803686 312.20904 
L 488.146302 313.351816 
L 488.488974 319.452384 
L 488.831589 319.778224 
L 489.174261 319.046422 
L 489.516933 316.256292 
L 490.202221 322.193335 
L 490.887509 322.63456 
L 491.230124 323.318306 
L 491.572796 324.339216 
L 491.915412 321.520565 
L 492.258084 323.677855 
L 492.6007 322.49195 
L 492.943372 325.428665 
L 493.285987 326.203336 
L 493.628659 326.329092 
L 493.971275 326.81284 
L 494.313947 326.770576 
L 494.999235 329.963037 
L 495.34185 330.009796 
L 495.684522 327.113443 
L 496.027138 332.668466 
L 496.36981 331.968211 
L 496.712426 327.545593 
L 497.397713 333.929046 
L 497.740385 332.699667 
L 498.083001 330.234945 
L 498.425673 330.887923 
L 498.768289 335.540358 
L 499.110961 334.803198 
L 499.453576 337.125223 
L 499.796248 335.756001 
L 500.13892 336.808717 
L 500.481536 338.706026 
L 500.824208 338.953907 
L 501.166824 337.768002 
L 501.509495 338.24691 
L 501.852111 339.130829 
L 502.194783 339.014494 
L 502.880071 340.613793 
L 503.222687 340.986652 
L 503.565358 340.910334 
L 503.907974 341.690018 
L 504.250646 340.886912 
L 504.593262 340.591149 
L 504.935934 342.147751 
L 505.27855 341.515343 
L 505.621221 341.754841 
L 505.963837 341.732455 
L 506.306509 340.181384 
L 506.649125 337.105085 
L 506.991797 338.060654 
L 507.677084 333.117296 
L 508.0197 332.556539 
L 508.362372 329.430629 
L 508.704988 328.621559 
L 509.04766 323.849159 
L 509.390275 314.234092 
L 509.732947 334.27537 
L 510.418235 348.361542 
L 510.760851 352.626771 
L 511.446195 357.680241 
L 511.78881 358.669517 
L 512.131482 360.417389 
L 512.474098 360.857231 
L 512.81677 363.415124 
L 513.844673 367.251142 
L 514.529961 367.381565 
L 514.872633 370.016553 
L 515.215249 368.826327 
L 515.900536 371.94394 
L 516.243208 371.987155 
L 516.585824 373.73615 
L 516.928496 374.641157 
L 517.271112 375.066392 
L 517.613784 374.995693 
L 518.299071 377.73457 
L 518.641687 377.223769 
L 519.326975 379.717877 
L 519.669647 380.286153 
L 520.012262 379.00725 
L 520.354934 378.763086 
L 520.69755 379.383047 
L 521.040222 379.752449 
L 521.382838 378.986853 
L 521.72551 381.754252 
L 522.410797 381.291333 
L 522.753469 382.648282 
L 523.096085 382.986915 
L 523.438757 383.867981 
L 523.781373 383.636003 
L 524.124044 384.856998 
L 524.46666 385.087334 
L 524.809332 386.589226 
L 525.151948 386.128814 
L 525.837236 384.498919 
L 526.179907 385.521385 
L 526.522523 386.133049 
L 526.865195 385.800381 
L 527.207811 386.223455 
L 527.550483 389.10062 
L 527.893099 386.766494 
L 528.23577 386.564507 
L 528.578386 388.774779 
L 528.921058 389.845127 
L 529.263674 388.093107 
L 529.948962 389.285839 
L 530.291633 390.446593 
L 530.634249 389.843226 
L 530.976921 391.416163 
L 531.319537 390.109603 
L 531.662209 391.765254 
L 532.004825 391.733534 
L 532.347496 391.944682 
L 532.690112 394.368004 
L 533.032784 392.182451 
L 533.375456 392.595326 
L 534.060744 394.365756 
L 534.403359 393.534474 
L 534.746031 395.148638 
L 535.088647 395.17232 
L 535.431319 393.940435 
L 535.773935 396.425727 
L 536.116607 394.896782 
L 536.801894 398.136088 
L 537.14451 397.791492 
L 537.487182 396.558051 
L 537.829798 397.31146 
L 538.17247 397.354848 
L 538.515085 399.461058 
L 539.200373 397.243872 
L 539.543045 398.866853 
L 539.885661 399.453884 
L 540.228333 398.80955 
L 540.570948 398.541012 
L 540.91362 399.661403 
L 541.256236 399.160887 
L 541.598908 398.10843 
L 541.941524 399.156825 
L 542.284196 399.242736 
L 542.626811 400.421035 
L 542.969483 400.825008 
L 543.312099 399.840226 
L 543.654771 402.058536 
L 543.997443 402.082477 
L 544.340059 400.486635 
L 544.682731 403.363368 
L 545.368018 404.225161 
L 545.710634 403.861809 
L 546.053306 403.837436 
L 546.395922 403.248243 
L 546.738593 402.368646 
L 547.081209 404.208739 
L 547.423881 403.047035 
L 547.766497 405.289026 
L 548.451785 404.086181 
L 548.794456 403.399841 
L 549.137072 404.819193 
L 549.479744 403.477628 
L 549.82236 404.997325 
L 550.165032 403.936398 
L 550.507648 404.324728 
L 550.850319 404.951517 
L 551.192935 405.264134 
L 551.535607 404.378228 
L 551.878223 404.284279 
L 552.220895 406.379685 
L 552.563511 406.306392 
L 552.906182 405.764391 
L 553.248798 406.736295 
L 553.59147 407.204745 
L 553.934086 405.368628 
L 554.619374 409.398076 
L 554.962045 407.550205 
L 555.304717 407.61909 
L 555.990005 408.848036 
L 556.332621 409.79332 
L 556.675293 410.109913 
L 557.017908 408.810094 
L 557.36058 407.968872 
L 557.703196 409.332044 
L 558.045868 409.019341 
L 558.388484 408.860223 
L 558.731156 408.833776 
L 559.073771 407.685468 
L 560.444347 410.443532 
L 560.787019 410.976891 
L 561.129634 410.344052 
L 561.472306 409.263332 
L 561.814922 410.251139 
L 562.157594 408.728763 
L 562.50021 409.265752 
L 562.842882 411.65286 
L 563.185497 410.107493 
L 563.870785 412.392267 
L 564.213457 412.469363 
L 564.556073 411.96297 
L 564.898745 411.845857 
L 565.24136 413.868663 
L 565.584032 412.358732 
L 565.926648 414.892338 
L 566.26932 415.164766 
L 566.611992 414.492946 
L 566.954608 415.058975 
L 567.29728 415.957328 
L 567.639895 414.851889 
L 567.982567 414.247485 
L 568.325183 415.558022 
L 568.667855 414.291651 
L 569.010471 415.20072 
L 569.353143 414.144374 
L 569.695758 415.5709 
L 570.03843 415.52829 
L 570.381046 416.330964 
L 570.723718 416.545137 
L 571.066334 418.060945 
L 571.409006 415.766663 
L 572.094293 416.060525 
L 572.436909 417.720757 
L 572.779581 417.518684 
L 573.122197 417.814706 
L 573.464869 416.834505 
L 573.807484 417.599323 
L 574.150156 418.711416 
L 574.492772 417.414709 
L 574.835444 419.751168 
L 575.17806 419.010896 
L 575.863347 418.803983 
L 576.206019 420.560325 
L 576.548635 419.902334 
L 576.891307 418.777535 
L 577.233979 419.856613 
L 577.576594 419.220229 
L 577.919266 419.60562 
L 578.261882 421.287719 
L 578.604554 421.947438 
L 578.94717 419.756872 
L 579.289842 420.906476 
L 579.632457 420.078824 
L 579.975129 421.717707 
L 580.317745 422.14761 
L 580.660417 420.587118 
L 581.003033 421.083398 
L 581.345705 420.566116 
L 581.68832 423.225304 
L 582.373608 422.858409 
L 582.71628 422.974485 
L 583.058896 422.295924 
L 584.086855 424.309222 
L 584.429471 423.784592 
L 585.114759 424.694872 
L 585.457431 425.227366 
L 585.800046 424.440422 
L 586.142718 425.010859 
L 586.828006 425.506448 
L 587.170622 424.878103 
L 587.513294 423.971194 
L 587.855966 424.917342 
L 588.198581 424.23567 
L 588.541253 424.145437 
L 588.883869 422.738877 
L 589.226541 425.080868 
L 589.569157 425.108871 
L 589.911829 424.576203 
L 590.254444 425.713362 
L 590.597116 424.906798 
L 590.939732 425.802298 
L 591.282404 425.802384 
L 591.62502 425.530044 
L 591.967692 425.706015 
L 592.310307 426.068156 
L 592.652979 426.158735 
L 592.995595 426.405406 
L 593.338267 427.181719 
L 593.680883 427.06331 
L 594.023555 427.187078 
L 594.36617 428.270649 
L 594.708842 427.980677 
L 595.051458 426.655793 
L 595.39413 426.63384 
L 595.736746 427.807472 
L 596.079418 426.938678 
L 596.422033 428.019916 
L 596.764705 426.269279 
L 597.107321 428.348523 
L 597.449993 427.530896 
L 598.820568 428.526223 
L 599.16324 428.687155 
L 599.505856 428.25708 
L 600.191144 428.953532 
L 600.533815 429.950674 
L 600.876431 429.635637 
L 601.219103 429.080152 
L 601.561719 430.015323 
L 602.247006 428.344461 
L 602.589678 428.724925 
L 602.932294 427.756392 
L 603.274966 429.13322 
L 603.617582 429.686112 
L 603.960254 429.939524 
L 604.302869 430.80754 
L 604.645541 430.800885 
L 604.988157 430.309444 
L 605.673445 431.373742 
L 606.016117 429.868998 
L 606.701404 432.829049 
L 607.04402 432.011335 
L 607.386692 431.63381 
L 607.729308 433.749181 
L 608.07198 431.288004 
L 608.414595 433.931548 
L 609.099883 431.670456 
L 609.442555 431.730957 
L 609.785171 433.786865 
L 610.127843 433.039505 
L 610.470515 432.670709 
L 610.81313 434.204926 
L 611.155802 432.47218 
L 611.498418 432.909083 
L 611.84109 432.819109 
L 612.183706 432.438558 
L 612.526378 432.28333 
L 612.868993 434.498356 
L 613.554281 433.180645 
L 613.896953 435.714252 
L 614.239569 433.876752 
L 614.582241 434.587033 
L 614.924856 436.023498 
L 615.267528 434.898094 
L 615.610144 434.860065 
L 615.952816 437.239653 
L 616.980719 435.282361 
L 617.323391 437.756763 
L 617.666007 434.301555 
L 618.008679 436.544151 
L 618.351295 436.424187 
L 618.693967 436.661523 
L 619.036582 436.558499 
L 619.379254 436.070602 
L 619.72187 436.347178 
L 620.064542 436.474748 
L 620.407158 437.170682 
L 620.74983 435.186683 
L 621.092501 437.766616 
L 621.435117 435.516413 
L 621.777789 437.607931 
L 622.120405 437.45253 
L 622.463077 436.444152 
L 622.805693 437.854688 
L 623.148364 437.653998 
L 623.49098 439.389251 
L 623.833652 439.521575 
L 624.176268 439.276114 
L 624.51894 438.113718 
L 624.861556 439.653121 
L 625.204227 440.572908 
L 625.546843 439.888038 
L 626.232131 439.502733 
L 626.574803 439.479138 
L 626.917419 437.974048 
L 627.26009 440.141537 
L 627.602706 440.060638 
L 627.945378 440.852163 
L 628.287994 439.295906 
L 628.630666 440.841619 
L 628.973282 439.585879 
L 629.315953 439.643095 
L 629.658569 439.85433 
L 630.001241 440.218978 
L 630.343857 439.435923 
L 630.686529 441.111021 
L 631.029144 441.321564 
L 631.371816 440.213792 
L 631.714488 441.669099 
L 632.057104 441.098056 
L 632.399776 441.648615 
L 632.742392 441.322601 
L 633.085064 442.248179 
L 633.427679 441.162792 
L 633.770351 441.08466 
L 634.112967 442.003582 
L 634.455639 439.562543 
L 634.798255 441.942908 
L 635.140927 441.048964 
L 635.483542 441.765814 
L 635.826214 440.936778 
L 636.16883 441.92277 
L 636.511502 441.107477 
L 636.854118 442.244549 
L 637.19679 440.83384 
L 637.539405 441.383016 
L 637.882077 442.16149 
L 638.224693 443.278078 
L 638.567365 442.608592 
L 638.909981 442.891131 
L 639.252653 442.080937 
L 639.595268 443.180498 
L 639.93794 443.128813 
L 640.280556 442.690441 
L 640.623228 442.061058 
L 640.965844 442.203149 
L 641.308516 443.913942 
L 641.651131 442.599171 
L 641.993803 442.484738 
L 642.336419 442.825531 
L 642.679091 444.821629 
L 643.021763 443.161656 
L 643.364379 444.125177 
L 643.70705 442.010929 
L 644.049666 444.348771 
L 644.392338 443.002366 
L 644.734954 445.018603 
L 645.077626 445.696127 
L 645.420242 445.547381 
L 645.762913 443.234344 
L 646.105529 443.68983 
L 646.448201 444.795268 
L 647.133489 444.147476 
L 647.476105 446.041587 
L 647.818776 446.483935 
L 648.161392 445.05741 
L 648.504064 446.302433 
L 648.84668 446.791799 
L 649.189352 444.539349 
L 649.531968 444.910652 
L 649.874639 448.228782 
L 650.217255 445.8861 
L 650.559927 444.785329 
L 650.902543 446.846077 
L 651.245215 445.675816 
L 651.587831 446.373651 
L 651.930502 446.289382 
L 652.273118 445.769592 
L 652.61579 445.865184 
L 652.958406 445.271583 
L 653.301078 447.22585 
L 653.643694 446.5504 
L 653.986365 446.476157 
L 654.671653 448.810196 
L 655.014325 445.801571 
L 655.356941 449.120566 
L 655.699613 448.35981 
L 656.042228 447.036222 
L 656.3849 446.990155 
L 657.070188 447.420922 
L 657.412804 449.217022 
L 657.755476 447.858862 
L 658.098091 448.372947 
L 658.440763 450.083913 
L 658.783379 449.793163 
L 659.126051 449.673112 
L 659.468667 448.918061 
L 659.811339 450.012349 
L 660.153954 448.765598 
L 660.496626 449.802238 
L 660.839242 449.305785 
L 661.181914 450.043723 
L 661.52453 449.17009 
L 661.867202 449.962134 
L 662.209817 449.992643 
L 662.552489 451.249766 
L 662.895105 449.719698 
L 663.237777 451.916659 
L 663.580393 450.983044 
L 663.923065 451.19013 
L 664.608352 448.563352 
L 664.951024 450.62194 
L 665.29364 449.998866 
L 665.636312 451.544319 
L 665.978928 449.705523 
L 666.3216 453.156842 
L 666.664215 451.565495 
L 667.006887 452.608876 
L 667.349503 452.973956 
L 667.692175 451.0451 
L 668.034791 452.680181 
L 668.377462 452.728063 
L 668.720078 451.600585 
L 669.06275 453.847244 
L 669.405366 452.755807 
L 670.090654 451.515711 
L 670.433325 452.964968 
L 670.775941 452.688997 
L 671.118613 454.442487 
L 671.461229 453.160558 
L 671.803901 454.079049 
L 672.146517 453.784928 
L 672.489188 454.233413 
L 673.174476 452.788132 
L 673.517092 453.157274 
L 673.859764 454.227449 
L 674.20238 453.439641 
L 674.545051 454.339462 
L 674.887667 454.069715 
L 675.230339 455.436085 
L 675.573011 456.112226 
L 675.915627 454.550005 
L 676.258299 454.848016 
L 676.600914 453.125468 
L 676.943586 454.237475 
L 677.286202 453.497462 
L 677.628874 453.881038 
L 678.314386 454.171788 
L 678.656834 456.211447 
L 679.34229 455.448099 
L 679.684737 455.94507 
L 680.027184 454.838422 
L 680.370193 456.239191 
L 680.71264 455.457692 
L 681.398097 455.551296 
L 681.740544 455.817327 
L 682.082991 455.928994 
L 682.426 455.526577 
L 682.768447 455.573508 
L 683.110895 455.439456 
L 683.796351 454.305495 
L 684.139359 456.228474 
L 684.481807 457.083784 
L 684.824254 455.660889 
L 685.167263 457.933909 
L 685.50971 456.02545 
L 685.852158 457.050336 
L 686.195166 456.421991 
L 686.537614 456.657858 
L 686.880061 457.377127 
L 687.22307 459.116097 
L 687.565517 457.221035 
L 687.907964 457.255175 
L 688.250973 456.772982 
L 688.59342 457.694152 
L 688.935868 455.384659 
L 689.278877 457.03184 
L 689.621324 457.157423 
L 689.964333 458.18058 
L 690.30678 458.284468 
L 690.649227 457.024061 
L 690.992236 456.507211 
L 691.334683 457.736849 
L 691.677131 456.349735 
L 692.020139 458.856116 
L 692.362587 457.990434 
L 692.705034 457.581188 
L 693.39049 459.594227 
L 693.732938 459.229493 
L 694.075946 458.555081 
L 694.418394 459.082389 
L 694.760841 459.152398 
L 695.10385 459.046434 
L 695.446297 457.561396 
L 695.788744 459.290685 
L 696.131753 458.697258 
L 696.474201 460.49595 
L 697.159657 459.18187 
L 697.502104 461.00969 
L 697.845113 459.819291 
L 698.18756 459.104083 
L 698.530007 461.25031 
L 698.873016 460.80874 
L 699.215463 460.731385 
L 699.557911 460.909517 
L 699.90092 460.080395 
L 700.243367 460.113152 
L 700.585814 459.777891 
L 700.928823 460.237266 
L 701.27127 460.241587 
L 701.613718 459.895003 
L 701.956726 461.835614 
L 702.299174 461.077969 
L 702.642182 461.096206 
L 702.98463 460.487739 
L 703.327077 463.162226 
L 703.670086 462.398186 
L 704.012533 462.042959 
L 704.354981 462.201212 
L 704.697989 460.921877 
L 705.040437 462.482714 
L 705.382884 462.008128 
L 705.725893 462.90285 
L 706.06834 464.560835 
L 706.410787 462.021006 
L 706.753796 463.200515 
L 707.096244 462.525411 
L 707.438691 462.212534 
L 707.7817 464.639745 
L 708.124147 463.568792 
L 708.467156 463.433875 
L 708.809603 463.123506 
L 709.15205 465.057634 
L 709.495059 463.184698 
L 709.837506 465.148645 
L 710.179954 464.541474 
L 710.522963 464.291346 
L 710.86541 462.983143 
L 711.207857 463.754444 
L 711.550866 462.851856 
L 711.893313 463.750987 
L 712.235761 463.683139 
L 712.578769 464.433091 
L 712.921217 464.352625 
L 713.263664 463.547617 
L 713.606673 464.702321 
L 713.94912 464.829286 
L 714.291568 463.400946 
L 714.634576 465.397217 
L 714.977024 466.025649 
L 715.320032 464.391691 
L 715.66248 465.961518 
L 716.004927 466.419337 
L 716.347936 465.093243 
L 716.690383 466.55581 
L 717.03283 466.053652 
L 717.375839 464.885293 
L 717.718287 465.416145 
L 718.060734 464.92894 
L 718.403743 465.416836 
L 718.74619 467.135495 
L 719.088637 466.574997 
L 719.431646 466.344748 
L 719.774093 466.58485 
L 720.116541 467.63022 
L 720.459549 467.799709 
L 720.801997 467.213973 
L 721.145006 465.60655 
L 721.487453 465.498167 
L 721.8299 467.132902 
L 722.172909 466.673873 
L 722.857804 467.731861 
L 723.200812 467.190119 
L 723.54326 466.245526 
L 723.885707 466.576121 
L 724.571163 467.706019 
L 724.913611 467.019593 
L 725.256619 468.782417 
L 725.599067 467.77499 
L 725.941514 469.290538 
L 726.284523 468.709643 
L 726.62697 466.228327 
L 726.969417 469.419405 
L 727.312426 468.40878 
L 727.654873 469.045164 
L 727.997882 468.907826 
L 728.34033 468.372134 
L 729.025786 469.952332 
L 729.368233 469.728478 
L 729.71068 470.049479 
L 730.053689 466.461774 
L 730.396136 470.658464 
L 730.738584 468.326413 
L 731.081592 468.454156 
L 731.42404 468.83125 
L 731.766487 467.936441 
L 732.109496 470.1417 
L 732.451943 469.013185 
L 732.794391 468.960203 
L 733.137399 468.455625 
L 733.479847 470.248527 
L 734.165303 469.372128 
L 734.850759 468.001436 
L 735.193206 469.026668 
L 735.535653 469.0392 
L 735.878662 471.586116 
L 736.22111 468.990453 
L 736.563557 470.791134 
L 736.906566 470.566243 
L 737.249013 470.545673 
L 737.59146 469.847492 
L 737.934469 470.51525 
L 738.276916 469.981372 
L 738.619364 470.769786 
L 738.962373 470.269357 
L 739.30482 471.838059 
L 739.647267 470.709371 
L 739.990276 471.232791 
L 740.675732 470.477566 
L 741.018179 471.837022 
L 741.360627 471.799079 
L 741.703635 471.962086 
L 742.046083 472.622324 
L 742.38853 471.434 
L 742.731539 472.463639 
L 743.416434 470.862957 
L 743.759442 473.518084 
L 744.444337 471.548433 
L 745.129793 472.627596 
L 745.47224 472.006943 
L 745.815249 472.385247 
L 746.157696 473.894918 
L 746.500705 472.507027 
L 746.843153 473.686622 
L 747.1856 472.688184 
L 747.528609 473.508663 
L 747.871056 473.225864 
L 748.213503 475.091281 
L 748.556512 474.26769 
L 748.898959 472.763118 
L 749.241407 475.825416 
L 749.584415 473.253867 
L 749.926863 474.518596 
L 750.26931 473.531307 
L 750.612319 476.059814 
L 750.954766 474.162246 
L 751.297214 473.478585 
L 751.640222 475.320579 
L 751.98267 474.291026 
L 752.325117 474.126377 
L 752.668126 474.453947 
L 753.010573 474.564058 
L 753.353582 475.296984 
L 753.696029 474.499668 
L 754.381485 474.911593 
L 754.723933 475.75705 
L 755.06638 474.707273 
L 755.409389 474.337007 
L 755.751836 474.871403 
L 756.094283 477.258337 
L 756.437292 474.186792 
L 757.122187 475.955147 
L 757.465196 474.952993 
L 757.807643 474.693876 
L 758.15009 476.018673 
L 758.493099 476.377703 
L 758.835546 477.740011 
L 759.178555 475.896029 
L 759.521002 475.701735 
L 759.86345 475.908648 
L 760.206458 474.868378 
L 760.548906 475.91997 
L 760.891353 474.770021 
L 761.234362 477.661706 
L 761.576809 478.692642 
L 761.919257 477.192305 
L 762.262265 477.602674 
L 762.604713 476.51167 
L 762.94716 477.702501 
L 763.290169 477.588586 
L 763.632616 477.057215 
L 763.975063 477.060845 
L 764.318072 475.615478 
L 764.66052 475.249447 
L 765.003528 476.997751 
L 765.345976 477.930071 
L 765.688423 478.235168 
L 766.031432 477.209072 
L 766.716326 475.901907 
L 767.059335 476.906308 
L 767.401782 477.35583 
L 767.74423 478.039145 
L 768.087239 477.516417 
L 768.429686 478.139922 
L 768.772133 477.20985 
L 769.115142 478.43897 
L 769.457589 477.062142 
L 769.800037 478.373197 
L 770.143045 476.919878 
L 770.485493 476.463874 
L 770.82794 476.871823 
L 771.170949 477.911402 
L 771.513396 478.422202 
L 771.856405 477.848221 
L 772.198852 477.758767 
L 772.5413 478.637154 
L 772.884308 476.991615 
L 773.226756 478.582443 
L 773.569203 478.058592 
L 773.912212 478.639055 
L 774.254659 477.113654 
L 774.597106 478.755995 
L 774.940115 476.875539 
L 775.282563 478.495927 
L 775.968019 478.767317 
L 776.310466 477.640271 
L 776.652913 479.731788 
L 776.995922 478.371641 
L 777.338369 479.370598 
L 778.023825 479.408713 
L 778.366273 478.736721 
L 778.709282 478.85003 
L 779.051729 478.710965 
L 779.394176 478.202152 
L 779.737185 479.422629 
L 780.079632 478.786332 
L 780.42208 479.374746 
L 780.765088 479.528073 
L 781.107536 478.423153 
L 781.449983 479.610786 
L 781.792992 479.615626 
L 782.135439 481.343879 
L 782.820895 479.081403 
L 783.50579 481.027891 
L 784.191246 479.433519 
L 784.534255 482.220537 
L 785.219149 479.697476 
L 785.562158 480.033861 
L 785.904606 480.128847 
L 786.247053 483.030126 
L 786.590062 481.081045 
L 786.932509 480.600668 
L 787.274956 479.398082 
L 787.617965 480.647081 
L 787.960412 480.836622 
L 788.30286 481.922786 
L 788.645868 480.785628 
L 789.330763 481.533419 
L 790.016219 481.139731 
L 790.359228 482.743352 
L 790.701675 480.37232 
L 791.044123 481.67819 
L 791.387131 482.024168 
L 791.729579 480.748031 
L 792.415035 480.306288 
L 792.757482 484.016464 
L 793.099929 480.696173 
L 793.442938 482.487346 
L 793.785386 482.472912 
L 794.127833 481.427543 
L 794.470842 482.857353 
L 794.813289 479.900845 
L 795.155736 482.323043 
L 795.498745 481.308615 
L 795.841192 481.68882 
L 796.184201 480.671973 
L 796.526648 482.037133 
L 796.869096 481.628492 
L 797.212105 480.870934 
L 797.554552 481.148115 
L 797.896999 481.252695 
L 798.582455 483.203332 
L 798.924903 482.697889 
L 799.267911 482.513102 
L 799.610359 482.7233 
L 799.952806 481.12063 
L 800.638262 482.589506 
L 800.98071 482.841882 
L 801.323718 482.410251 
L 801.666166 481.557966 
L 802.008613 482.736091 
L 802.351622 483.309727 
L 802.694069 482.504978 
L 803.037078 480.742932 
L 803.379525 481.649063 
L 803.721972 483.232458 
L 804.064981 480.800148 
L 804.407429 482.620103 
L 804.749876 480.400929 
L 805.092885 482.491322 
L 805.435332 482.446292 
L 805.777779 483.45709 
L 806.120788 482.032898 
L 806.463235 483.355275 
L 806.805683 483.714651 
L 807.148691 482.924422 
L 807.491139 480.791073 
L 808.176595 483.545335 
L 808.519042 481.437223 
L 808.862051 482.348453 
L 809.204498 481.873262 
L 809.546946 480.698161 
L 809.889954 483.595118 
L 810.232402 483.507651 
L 810.574849 482.301868 
L 810.917858 483.846456 
L 811.260305 481.68061 
L 811.602753 481.991411 
L 811.945761 481.296947 
L 812.288209 483.07239 
L 812.630656 482.57464 
L 812.973665 482.765737 
L 813.316112 481.649754 
L 813.658559 480.996603 
L 814.001568 483.709551 
L 814.344015 482.992788 
L 814.686463 482.846462 
L 815.029472 483.904192 
L 815.371919 482.857525 
L 815.714928 482.678011 
L 816.057375 483.256313 
L 816.399822 482.704372 
L 816.742831 482.501866 
L 817.085278 482.494693 
L 817.427726 481.702649 
L 817.770734 484.292002 
L 818.113182 489.005284 
L 818.113182 489.005284 
" clip-path="url(#p7e52788700)" style="fill: none; stroke: #000080; stroke-width: 1.5; stroke-linecap: square"/>
   </g>
   <g id="patch_3">
    <path d="M 81.29 510.65125 
L 81.29 34.44 
" style="fill: none; stroke: #000000; stroke-width: 0.8; stroke-linejoin: miter; stroke-linecap: square"/>
   </g>
   <g id="patch_4">
    <path d="M 853.2 510.65125 
L 853.2 34.44 
" style="fill: none; stroke: #000000; stroke-width: 0.8; stroke-linejoin: miter; stroke-linecap: square"/>
   </g>
   <g id="patch_5">
    <path d="M 81.29 510.65125 
L 853.2 510.65125 
" style="fill: none; stroke: #000000; stroke-width: 0.8; stroke-linejoin: miter; stroke-linecap: square"/>
   </g>
   <g id="patch_6">
    <path d="M 81.29 34.44 
L 853.2 34.44 
" style="fill: none; stroke: #000000; stroke-width: 0.8; stroke-linejoin: miter; stroke-linecap: square"/>
   </g>
   <g id="text_16">
    <!-- Frequency vs Amplitude (Legacy Stack) -->
    <g transform="translate(245.761563 28.44) scale(0.26 -0.26)">
     <defs>
      <path id="TimesNewRomanPS-BoldMT-76" d="M 1534 -88 
L 550 2178 
Q 372 2588 272 2697 
Q 200 2778 59 2806 
L 59 2922 
L 1613 2922 
L 1613 2806 
Q 1466 2806 1413 2753 
Q 1338 2684 1338 2591 
Q 1338 2475 1475 2156 
L 1956 1059 
L 2341 2006 
Q 2506 2413 2506 2581 
Q 2506 2678 2436 2739 
Q 2366 2800 2188 2806 
L 2188 2922 
L 3144 2922 
L 3144 2806 
Q 3006 2788 2918 2703 
Q 2831 2619 2656 2206 
L 1681 -88 
L 1534 -88 
z
" transform="scale(0.015625)"/>
      <path id="TimesNewRomanPS-BoldMT-73" d="M 2063 3003 
L 2109 2006 
L 2003 2006 
Q 1813 2450 1608 2612 
Q 1403 2775 1200 2775 
Q 1072 2775 981 2689 
Q 891 2603 891 2491 
Q 891 2406 953 2328 
Q 1053 2200 1512 1889 
Q 1972 1578 2117 1361 
Q 2263 1144 2263 875 
Q 2263 631 2141 397 
Q 2019 163 1797 37 
Q 1575 -88 1306 -88 
Q 1097 -88 747 44 
Q 653 78 619 78 
Q 516 78 447 -78 
L 344 -78 
L 294 972 
L 400 972 
Q 541 559 786 353 
Q 1031 147 1250 147 
Q 1400 147 1495 239 
Q 1591 331 1591 463 
Q 1591 613 1497 722 
Q 1403 831 1078 1053 
Q 600 1384 459 1559 
Q 253 1816 253 2125 
Q 253 2463 486 2736 
Q 719 3009 1159 3009 
Q 1397 3009 1619 2894 
Q 1703 2847 1756 2847 
Q 1813 2847 1847 2870 
Q 1881 2894 1956 3003 
L 2063 3003 
z
" transform="scale(0.015625)"/>
      <path id="TimesNewRomanPS-BoldMT-4c" d="M 4041 1488 
L 3881 0 
L 119 0 
L 119 116 
L 259 116 
Q 444 116 556 181 
Q 638 225 681 331 
Q 716 406 716 725 
L 716 3513 
Q 716 3838 681 3919 
Q 647 4000 542 4061 
Q 438 4122 259 4122 
L 119 4122 
L 119 4238 
L 2378 4238 
L 2378 4122 
L 2194 4122 
Q 2009 4122 1897 4056 
Q 1816 4013 1769 3906 
Q 1734 3831 1734 3513 
L 1734 813 
Q 1734 488 1771 398 
Q 1809 309 1919 266 
Q 1997 238 2297 238 
L 2650 238 
Q 2988 238 3213 356 
Q 3438 475 3602 731 
Q 3766 988 3913 1488 
L 4041 1488 
z
" transform="scale(0.015625)"/>
      <path id="TimesNewRomanPS-BoldMT-67" d="M 2091 2888 
L 3075 2888 
L 3075 2544 
L 2516 2544 
Q 2669 2391 2728 2266 
Q 2803 2097 2803 1913 
Q 2803 1600 2629 1370 
Q 2456 1141 2157 1011 
Q 1859 881 1628 881 
Q 1609 881 1253 897 
Q 1113 897 1017 805 
Q 922 713 922 584 
Q 922 472 1008 400 
Q 1094 328 1288 328 
L 1828 334 
Q 2484 334 2731 191 
Q 3084 -9 3084 -425 
Q 3084 -691 2921 -908 
Q 2759 -1125 2494 -1228 
Q 2091 -1381 1566 -1381 
Q 1172 -1381 847 -1304 
Q 522 -1228 381 -1092 
Q 241 -956 241 -806 
Q 241 -663 348 -548 
Q 456 -434 750 -356 
Q 344 -156 344 200 
Q 344 416 509 619 
Q 675 822 1034 972 
Q 616 1125 428 1375 
Q 241 1625 241 1953 
Q 241 2381 591 2695 
Q 941 3009 1491 3009 
Q 1781 3009 2091 2888 
z
M 1550 2816 
Q 1369 2816 1244 2633 
Q 1119 2450 1119 1875 
Q 1119 1409 1242 1236 
Q 1366 1063 1534 1063 
Q 1722 1063 1847 1234 
Q 1972 1406 1972 1903 
Q 1972 2463 1831 2666 
Q 1731 2816 1550 2816 
z
M 1366 -431 
Q 1047 -431 944 -484 
Q 766 -581 766 -747 
Q 766 -906 950 -1036 
Q 1134 -1166 1644 -1166 
Q 2078 -1166 2326 -1050 
Q 2575 -934 2575 -725 
Q 2575 -647 2528 -594 
Q 2444 -500 2273 -465 
Q 2103 -431 1366 -431 
z
" transform="scale(0.015625)"/>
      <path id="TimesNewRomanPS-BoldMT-61" d="M 1828 431 
Q 1294 -41 869 -41 
Q 619 -41 453 123 
Q 288 288 288 534 
Q 288 869 575 1136 
Q 863 1403 1828 1847 
L 1828 2141 
Q 1828 2472 1792 2558 
Q 1756 2644 1656 2708 
Q 1556 2772 1431 2772 
Q 1228 2772 1097 2681 
Q 1016 2625 1016 2550 
Q 1016 2484 1103 2388 
Q 1222 2253 1222 2128 
Q 1222 1975 1108 1867 
Q 994 1759 809 1759 
Q 613 1759 480 1878 
Q 347 1997 347 2156 
Q 347 2381 525 2586 
Q 703 2791 1022 2900 
Q 1341 3009 1684 3009 
Q 2100 3009 2342 2832 
Q 2584 2656 2656 2450 
Q 2700 2319 2700 1847 
L 2700 713 
Q 2700 513 2715 461 
Q 2731 409 2762 384 
Q 2794 359 2834 359 
Q 2916 359 3000 475 
L 3094 400 
Q 2938 169 2770 64 
Q 2603 -41 2391 -41 
Q 2141 -41 2000 76 
Q 1859 194 1828 431 
z
M 1828 659 
L 1828 1638 
Q 1450 1416 1266 1163 
Q 1144 994 1144 822 
Q 1144 678 1247 569 
Q 1325 484 1466 484 
Q 1622 484 1828 659 
z
" transform="scale(0.015625)"/>
      <path id="TimesNewRomanPS-BoldMT-53" d="M 3006 4334 
L 3041 2922 
L 2913 2922 
Q 2822 3453 2467 3776 
Q 2113 4100 1700 4100 
Q 1381 4100 1195 3929 
Q 1009 3759 1009 3538 
Q 1009 3397 1075 3288 
Q 1166 3141 1366 2997 
Q 1513 2894 2044 2631 
Q 2788 2266 3047 1941 
Q 3303 1616 3303 1197 
Q 3303 666 2889 283 
Q 2475 -100 1838 -100 
Q 1638 -100 1459 -59 
Q 1281 -19 1013 94 
Q 863 156 766 156 
Q 684 156 593 93 
Q 503 31 447 -97 
L 331 -97 
L 331 1503 
L 447 1503 
Q 584 828 976 473 
Q 1369 119 1822 119 
Q 2172 119 2380 309 
Q 2588 500 2588 753 
Q 2588 903 2508 1043 
Q 2428 1184 2265 1311 
Q 2103 1438 1691 1641 
Q 1113 1925 859 2125 
Q 606 2325 470 2572 
Q 334 2819 334 3116 
Q 334 3622 706 3978 
Q 1078 4334 1644 4334 
Q 1850 4334 2044 4284 
Q 2191 4247 2402 4145 
Q 2613 4044 2697 4044 
Q 2778 4044 2825 4094 
Q 2872 4144 2913 4334 
L 3006 4334 
z
" transform="scale(0.015625)"/>
      <path id="TimesNewRomanPS-BoldMT-6b" d="M 1403 4238 
L 1403 1450 
L 2081 2116 
Q 2291 2319 2342 2409 
Q 2394 2500 2394 2584 
Q 2394 2669 2325 2725 
Q 2256 2781 2056 2806 
L 2056 2922 
L 3366 2922 
L 3366 2806 
Q 3178 2797 3037 2717 
Q 2897 2638 2488 2238 
L 2169 1925 
L 2856 919 
Q 3272 306 3350 231 
Q 3456 125 3619 113 
L 3619 0 
L 2109 0 
L 2109 113 
Q 2209 113 2254 150 
Q 2300 188 2300 231 
Q 2300 303 2169 497 
L 1591 1344 
L 1403 1159 
L 1403 634 
Q 1403 300 1465 217 
Q 1528 134 1722 113 
L 1722 0 
L 213 0 
L 213 113 
Q 397 131 475 231 
Q 528 300 528 634 
L 528 3603 
Q 528 3934 467 4015 
Q 406 4097 213 4122 
L 213 4238 
L 1403 4238 
z
" transform="scale(0.015625)"/>
     </defs>
     <use xlink:href="#TimesNewRomanPS-BoldMT-46"/>
     <use xlink:href="#TimesNewRomanPS-BoldMT-72" x="61.083984"/>
     <use xlink:href="#TimesNewRomanPS-BoldMT-65" x="103.71875"/>
     <use xlink:href="#TimesNewRomanPS-BoldMT-71" x="148.103516"/>
     <use xlink:href="#TimesNewRomanPS-BoldMT-75" x="203.71875"/>
     <use xlink:href="#TimesNewRomanPS-BoldMT-65" x="259.333984"/>
     <use xlink:href="#TimesNewRomanPS-BoldMT-6e" x="303.71875"/>
     <use xlink:href="#TimesNewRomanPS-BoldMT-63" x="359.333984"/>
     <use xlink:href="#TimesNewRomanPS-BoldMT-79" x="403.71875"/>
     <use xlink:href="#TimesNewRomanPS-BoldMT-20" x="453.71875"/>
     <use xlink:href="#TimesNewRomanPS-BoldMT-76" x="478.71875"/>
     <use xlink:href="#TimesNewRomanPS-BoldMT-73" x="528.71875"/>
     <use xlink:href="#TimesNewRomanPS-BoldMT-20" x="567.634766"/>
     <use xlink:href="#TimesNewRomanPS-BoldMT-41" x="587.134766"/>
     <use xlink:href="#TimesNewRomanPS-BoldMT-6d" x="659.351562"/>
     <use xlink:href="#TimesNewRomanPS-BoldMT-70" x="742.652344"/>
     <use xlink:href="#TimesNewRomanPS-BoldMT-6c" x="798.267578"/>
     <use xlink:href="#TimesNewRomanPS-BoldMT-69" x="826.050781"/>
     <use xlink:href="#TimesNewRomanPS-BoldMT-74" x="853.833984"/>
     <use xlink:href="#TimesNewRomanPS-BoldMT-75" x="887.134766"/>
     <use xlink:href="#TimesNewRomanPS-BoldMT-64" x="942.75"/>
     <use xlink:href="#TimesNewRomanPS-BoldMT-65" x="998.365234"/>
     <use xlink:href="#TimesNewRomanPS-BoldMT-20" x="1042.75"/>
     <use xlink:href="#TimesNewRomanPS-BoldMT-28" x="1067.75"/>
     <use xlink:href="#TimesNewRomanPS-BoldMT-4c" x="1101.050781"/>
     <use xlink:href="#TimesNewRomanPS-BoldMT-65" x="1167.75"/>
     <use xlink:href="#TimesNewRomanPS-BoldMT-67" x="1212.134766"/>
     <use xlink:href="#TimesNewRomanPS-BoldMT-61" x="1262.134766"/>
     <use xlink:href="#TimesNewRomanPS-BoldMT-63" x="1312.134766"/>
     <use xlink:href="#TimesNewRomanPS-BoldMT-79" x="1356.519531"/>
     <use xlink:href="#TimesNewRomanPS-BoldMT-20" x="1406.519531"/>
     <use xlink:href="#TimesNewRomanPS-BoldMT-53" x="1431.519531"/>
     <use xlink:href="#TimesNewRomanPS-BoldMT-74" x="1487.134766"/>
     <use xlink:href="#TimesNewRomanPS-BoldMT-61" x="1520.435547"/>
     <use xlink:href="#TimesNewRomanPS-BoldMT-63" x="1570.435547"/>
     <use xlink:href="#TimesNewRomanPS-BoldMT-6b" x="1614.820312"/>
     <use xlink:href="#TimesNewRomanPS-BoldMT-29" x="1670.435547"/>
    </g>
   </g>
  </g>
 </g>
 <defs>
  <clipPath id="p7e52788700">
   <rect x="81.29" y="34.44" width="771.91" height="476.21125"/>
  </clipPath>
 </defs>
</svg>
