<?xml version="1.0" encoding="utf-8" standalone="no"?>
<!DOCTYPE svg PUBLIC "-//W3C//DTD SVG 1.1//EN"
  "http://www.w3.org/Graphics/SVG/1.1/DTD/svg11.dtd">
<svg xmlns:xlink="http://www.w3.org/1999/xlink" width="864pt" height="504pt" viewBox="0 0 864 504" xmlns="http://www.w3.org/2000/svg" version="1.1">
 <metadata>
  <rdf:RDF xmlns:dc="http://purl.org/dc/elements/1.1/" xmlns:cc="http://creativecommons.org/ns#" xmlns:rdf="http://www.w3.org/1999/02/22-rdf-syntax-ns#">
   <cc:Work>
    <dc:type rdf:resource="http://purl.org/dc/dcmitype/StillImage"/>
    <dc:date>2023-09-06T15:20:30.734622</dc:date>
    <dc:format>image/svg+xml</dc:format>
    <dc:creator>
     <cc:Agent>
      <dc:title>Matplotlib v3.7.1, https://matplotlib.org/</dc:title>
     </cc:Agent>
    </dc:creator>
   </cc:Work>
  </rdf:RDF>
 </metadata>
 <defs>
  <style type="text/css">*{stroke-linejoin: round; stroke-linecap: butt}</style>
 </defs>
 <g id="figure_1">
  <g id="patch_1">
   <path d="M 0 504 
L 864 504 
L 864 0 
L 0 0 
z
" style="fill: #ffffff"/>
  </g>
  <g id="axes_1">
   <g id="patch_2">
    <path d="M 108 448.56 
L 777.6 448.56 
L 777.6 60.48 
L 108 60.48 
z
" style="fill: #ffffff"/>
   </g>
   <g id="matplotlib.axis_1">
    <g id="xtick_1">
     <g id="line2d_1">
      <path d="M 138.436364 448.56 
L 138.436364 60.48 
" clip-path="url(#pcbe05f2471)" style="fill: none; stroke-dasharray: 1.85,0.8; stroke-dashoffset: 0; stroke: #808080; stroke-width: 0.5"/>
     </g>
     <g id="line2d_2">
      <defs>
       <path id="m788aefef7d" d="M 0 0 
L 0 3.5 
" style="stroke: #000000; stroke-width: 0.8"/>
      </defs>
      <g>
       <use xlink:href="#m788aefef7d" x="138.436364" y="448.56" style="stroke: #000000; stroke-width: 0.8"/>
      </g>
     </g>
     <g id="text_1">
      <!-- 0 -->
      <g transform="translate(138.180369 467.065069) rotate(-45) scale(0.14 -0.14)">
       <defs>
        <path id="TimesNewRomanPS-BoldMT-30" d="M 2966 2119 
Q 2966 1484 2788 934 
Q 2681 597 2501 381 
Q 2322 166 2094 39 
Q 1866 -88 1597 -88 
Q 1291 -88 1044 68 
Q 797 225 606 516 
Q 469 728 366 1081 
Q 231 1559 231 2069 
Q 231 2759 425 3338 
Q 584 3816 909 4070 
Q 1234 4325 1597 4325 
Q 1966 4325 2286 4073 
Q 2606 3822 2756 3397 
Q 2966 2813 2966 2119 
z
M 2003 2125 
Q 2003 3238 1991 3422 
Q 1959 3856 1841 4009 
Q 1763 4109 1588 4109 
Q 1453 4109 1375 4034 
Q 1259 3925 1218 3648 
Q 1178 3372 1178 1719 
Q 1178 819 1241 513 
Q 1288 291 1375 216 
Q 1463 141 1606 141 
Q 1763 141 1841 241 
Q 1972 416 1991 781 
L 2003 2125 
z
" transform="scale(0.015625)"/>
       </defs>
       <use xlink:href="#TimesNewRomanPS-BoldMT-30"/>
      </g>
     </g>
    </g>
    <g id="xtick_2">
     <g id="line2d_3">
      <path d="M 235.832727 448.56 
L 235.832727 60.48 
" clip-path="url(#pcbe05f2471)" style="fill: none; stroke-dasharray: 1.85,0.8; stroke-dashoffset: 0; stroke: #808080; stroke-width: 0.5"/>
     </g>
     <g id="line2d_4">
      <g>
       <use xlink:href="#m788aefef7d" x="235.832727" y="448.56" style="stroke: #000000; stroke-width: 0.8"/>
      </g>
     </g>
     <g id="text_2">
      <!-- 20 -->
      <g transform="translate(233.101859 472.014817) rotate(-45) scale(0.14 -0.14)">
       <defs>
        <path id="TimesNewRomanPS-BoldMT-32" d="M 2650 0 
L 156 0 
L 156 69 
Q 1303 1434 1548 1906 
Q 1794 2378 1794 2828 
Q 1794 3156 1591 3373 
Q 1388 3591 1094 3591 
Q 613 3591 347 3109 
L 231 3150 
Q 400 3750 744 4037 
Q 1088 4325 1538 4325 
Q 1859 4325 2125 4175 
Q 2391 4025 2541 3764 
Q 2691 3503 2691 3275 
Q 2691 2859 2459 2431 
Q 2144 1853 1081 819 
L 1997 819 
Q 2334 819 2436 847 
Q 2538 875 2603 942 
Q 2669 1009 2775 1225 
L 2888 1225 
L 2650 0 
z
" transform="scale(0.015625)"/>
       </defs>
       <use xlink:href="#TimesNewRomanPS-BoldMT-32"/>
       <use xlink:href="#TimesNewRomanPS-BoldMT-30" x="50"/>
      </g>
     </g>
    </g>
    <g id="xtick_3">
     <g id="line2d_5">
      <path d="M 333.229091 448.56 
L 333.229091 60.48 
" clip-path="url(#pcbe05f2471)" style="fill: none; stroke-dasharray: 1.85,0.8; stroke-dashoffset: 0; stroke: #808080; stroke-width: 0.5"/>
     </g>
     <g id="line2d_6">
      <g>
       <use xlink:href="#m788aefef7d" x="333.229091" y="448.56" style="stroke: #000000; stroke-width: 0.8"/>
      </g>
     </g>
     <g id="text_3">
      <!-- 40 -->
      <g transform="translate(330.498222 472.014817) rotate(-45) scale(0.14 -0.14)">
       <defs>
        <path id="TimesNewRomanPS-BoldMT-34" d="M 159 1597 
L 2172 4325 
L 2553 4325 
L 2553 1597 
L 2941 1597 
L 2941 950 
L 2553 950 
L 2553 0 
L 1694 0 
L 1694 950 
L 159 950 
L 159 1597 
z
M 463 1597 
L 1694 1597 
L 1694 3269 
L 463 1597 
z
" transform="scale(0.015625)"/>
       </defs>
       <use xlink:href="#TimesNewRomanPS-BoldMT-34"/>
       <use xlink:href="#TimesNewRomanPS-BoldMT-30" x="50"/>
      </g>
     </g>
    </g>
    <g id="xtick_4">
     <g id="line2d_7">
      <path d="M 430.625455 448.56 
L 430.625455 60.48 
" clip-path="url(#pcbe05f2471)" style="fill: none; stroke-dasharray: 1.85,0.8; stroke-dashoffset: 0; stroke: #808080; stroke-width: 0.5"/>
     </g>
     <g id="line2d_8">
      <g>
       <use xlink:href="#m788aefef7d" x="430.625455" y="448.56" style="stroke: #000000; stroke-width: 0.8"/>
      </g>
     </g>
     <g id="text_4">
      <!-- 60 -->
      <g transform="translate(427.894586 472.014817) rotate(-45) scale(0.14 -0.14)">
       <defs>
        <path id="TimesNewRomanPS-BoldMT-36" d="M 3006 4325 
L 3006 4238 
Q 2441 4094 2098 3867 
Q 1756 3641 1557 3317 
Q 1359 2994 1250 2516 
Q 1388 2609 1478 2638 
Q 1681 2700 1888 2700 
Q 2363 2700 2680 2354 
Q 2997 2009 2997 1413 
Q 2997 994 2825 644 
Q 2653 294 2337 103 
Q 2022 -88 1663 -88 
Q 1272 -88 940 126 
Q 609 341 423 753 
Q 238 1166 238 1650 
Q 238 2363 580 2977 
Q 922 3591 1551 3955 
Q 2181 4319 3006 4325 
z
M 1209 2263 
Q 1184 1831 1184 1631 
Q 1184 1200 1267 797 
Q 1350 394 1494 231 
Q 1597 116 1738 116 
Q 1881 116 1993 283 
Q 2106 450 2106 963 
Q 2106 1825 1897 2153 
Q 1763 2366 1534 2366 
Q 1409 2366 1209 2263 
z
" transform="scale(0.015625)"/>
       </defs>
       <use xlink:href="#TimesNewRomanPS-BoldMT-36"/>
       <use xlink:href="#TimesNewRomanPS-BoldMT-30" x="50"/>
      </g>
     </g>
    </g>
    <g id="xtick_5">
     <g id="line2d_9">
      <path d="M 528.021818 448.56 
L 528.021818 60.48 
" clip-path="url(#pcbe05f2471)" style="fill: none; stroke-dasharray: 1.85,0.8; stroke-dashoffset: 0; stroke: #808080; stroke-width: 0.5"/>
     </g>
     <g id="line2d_10">
      <g>
       <use xlink:href="#m788aefef7d" x="528.021818" y="448.56" style="stroke: #000000; stroke-width: 0.8"/>
      </g>
     </g>
     <g id="text_5">
      <!-- 80 -->
      <g transform="translate(525.29095 472.014817) rotate(-45) scale(0.14 -0.14)">
       <defs>
        <path id="TimesNewRomanPS-BoldMT-38" d="M 2181 2394 
Q 2628 2066 2801 1783 
Q 2975 1500 2975 1134 
Q 2975 622 2589 267 
Q 2203 -88 1541 -88 
Q 913 -88 569 221 
Q 225 531 225 978 
Q 225 1319 423 1575 
Q 622 1831 1084 2044 
Q 581 2428 439 2672 
Q 297 2916 297 3238 
Q 297 3663 658 3986 
Q 1019 4309 1647 4309 
Q 2253 4309 2579 4023 
Q 2906 3738 2906 3338 
Q 2906 3038 2729 2808 
Q 2553 2578 2181 2394 
z
M 1944 2553 
Q 2059 2709 2115 2903 
Q 2172 3097 2172 3328 
Q 2172 3734 1997 3950 
Q 1866 4116 1634 4116 
Q 1425 4116 1278 3964 
Q 1131 3813 1131 3588 
Q 1131 3359 1295 3114 
Q 1459 2869 1944 2553 
z
M 1319 1894 
Q 1222 1806 1181 1734 
Q 1119 1625 1069 1415 
Q 1019 1206 1019 978 
Q 1019 684 1094 486 
Q 1169 288 1308 200 
Q 1447 113 1594 113 
Q 1822 113 1978 280 
Q 2134 447 2134 738 
Q 2134 1344 1319 1894 
z
" transform="scale(0.015625)"/>
       </defs>
       <use xlink:href="#TimesNewRomanPS-BoldMT-38"/>
       <use xlink:href="#TimesNewRomanPS-BoldMT-30" x="50"/>
      </g>
     </g>
    </g>
    <g id="xtick_6">
     <g id="line2d_11">
      <path d="M 625.418182 448.56 
L 625.418182 60.48 
" clip-path="url(#pcbe05f2471)" style="fill: none; stroke-dasharray: 1.85,0.8; stroke-dashoffset: 0; stroke: #808080; stroke-width: 0.5"/>
     </g>
     <g id="line2d_12">
      <g>
       <use xlink:href="#m788aefef7d" x="625.418182" y="448.56" style="stroke: #000000; stroke-width: 0.8"/>
      </g>
     </g>
     <g id="text_6">
      <!-- 100 -->
      <g transform="translate(620.21244 476.964564) rotate(-45) scale(0.14 -0.14)">
       <defs>
        <path id="TimesNewRomanPS-BoldMT-31" d="M 2084 4325 
L 2084 859 
Q 2084 469 2118 361 
Q 2153 253 2262 184 
Q 2372 116 2613 116 
L 2709 116 
L 2709 0 
L 478 0 
L 478 116 
L 591 116 
Q 863 116 978 178 
Q 1094 241 1134 350 
Q 1175 459 1175 859 
L 1175 3056 
Q 1175 3350 1147 3423 
Q 1119 3497 1042 3548 
Q 966 3600 866 3600 
Q 706 3600 478 3500 
L 422 3613 
L 1981 4325 
L 2084 4325 
z
" transform="scale(0.015625)"/>
       </defs>
       <use xlink:href="#TimesNewRomanPS-BoldMT-31"/>
       <use xlink:href="#TimesNewRomanPS-BoldMT-30" x="50"/>
       <use xlink:href="#TimesNewRomanPS-BoldMT-30" x="100"/>
      </g>
     </g>
    </g>
    <g id="xtick_7">
     <g id="line2d_13">
      <path d="M 722.814545 448.56 
L 722.814545 60.48 
" clip-path="url(#pcbe05f2471)" style="fill: none; stroke-dasharray: 1.85,0.8; stroke-dashoffset: 0; stroke: #808080; stroke-width: 0.5"/>
     </g>
     <g id="line2d_14">
      <g>
       <use xlink:href="#m788aefef7d" x="722.814545" y="448.56" style="stroke: #000000; stroke-width: 0.8"/>
      </g>
     </g>
     <g id="text_7">
      <!-- 120 -->
      <g transform="translate(717.608803 476.964564) rotate(-45) scale(0.14 -0.14)">
       <use xlink:href="#TimesNewRomanPS-BoldMT-31"/>
       <use xlink:href="#TimesNewRomanPS-BoldMT-32" x="50"/>
       <use xlink:href="#TimesNewRomanPS-BoldMT-30" x="100"/>
      </g>
     </g>
    </g>
    <g id="text_8">
     <!-- Frequency (Hz) -->
     <g transform="translate(396.076094 503.562753) scale(0.14 -0.14)">
      <defs>
       <path id="TimesNewRomanPS-BoldMT-46" d="M 1759 3994 
L 1759 2253 
L 1881 2253 
Q 2163 2253 2341 2337 
Q 2519 2422 2642 2622 
Q 2766 2822 2803 3163 
L 2913 3163 
L 2913 1034 
L 2803 1034 
Q 2744 1638 2480 1830 
Q 2216 2022 1881 2022 
L 1759 2022 
L 1759 725 
Q 1759 400 1795 319 
Q 1831 238 1936 177 
Q 2041 116 2219 116 
L 2359 116 
L 2359 0 
L 144 0 
L 144 116 
L 284 116 
Q 469 116 581 181 
Q 663 225 706 331 
Q 741 406 741 725 
L 741 3513 
Q 741 3838 706 3919 
Q 672 4000 567 4061 
Q 463 4122 284 4122 
L 144 4122 
L 144 4238 
L 3719 4238 
L 3719 3022 
L 3591 3022 
Q 3547 3450 3367 3656 
Q 3188 3863 2847 3947 
Q 2659 3994 2153 3994 
L 1759 3994 
z
" transform="scale(0.015625)"/>
       <path id="TimesNewRomanPS-BoldMT-72" d="M 1428 2922 
L 1428 2259 
Q 1719 2713 1937 2861 
Q 2156 3009 2359 3009 
Q 2534 3009 2639 2901 
Q 2744 2794 2744 2597 
Q 2744 2388 2642 2272 
Q 2541 2156 2397 2156 
Q 2231 2156 2109 2262 
Q 1988 2369 1966 2381 
Q 1934 2400 1894 2400 
Q 1803 2400 1722 2331 
Q 1594 2225 1528 2028 
Q 1428 1725 1428 1359 
L 1428 688 
L 1431 513 
Q 1431 334 1453 284 
Q 1491 200 1564 161 
Q 1638 122 1813 113 
L 1813 0 
L 234 0 
L 234 113 
Q 425 128 492 217 
Q 559 306 559 688 
L 559 2303 
Q 559 2553 534 2622 
Q 503 2709 443 2750 
Q 384 2791 234 2806 
L 234 2922 
L 1428 2922 
z
" transform="scale(0.015625)"/>
       <path id="TimesNewRomanPS-BoldMT-65" d="M 2691 1566 
L 1088 1566 
Q 1116 984 1397 647 
Q 1613 388 1916 388 
Q 2103 388 2256 492 
Q 2409 597 2584 869 
L 2691 800 
Q 2453 316 2165 114 
Q 1878 -88 1500 -88 
Q 850 -88 516 413 
Q 247 816 247 1413 
Q 247 2144 642 2576 
Q 1038 3009 1569 3009 
Q 2013 3009 2339 2645 
Q 2666 2281 2691 1566 
z
M 1922 1775 
Q 1922 2278 1867 2465 
Q 1813 2653 1697 2750 
Q 1631 2806 1522 2806 
Q 1359 2806 1256 2647 
Q 1072 2369 1072 1884 
L 1072 1775 
L 1922 1775 
z
" transform="scale(0.015625)"/>
       <path id="TimesNewRomanPS-BoldMT-71" d="M 2178 306 
Q 1988 106 1822 25 
Q 1603 -88 1366 -88 
Q 816 -88 497 403 
Q 244 794 244 1338 
Q 244 1791 436 2189 
Q 628 2588 964 2798 
Q 1300 3009 1675 3009 
Q 1925 3009 2120 2925 
Q 2316 2841 2456 2669 
L 2947 3009 
L 3053 3009 
L 3053 -775 
Q 3053 -1063 3103 -1134 
Q 3184 -1250 3431 -1253 
L 3431 -1369 
L 1744 -1369 
L 1744 -1253 
Q 1938 -1253 2025 -1209 
Q 2113 -1166 2145 -1094 
Q 2178 -1022 2178 -800 
L 2178 306 
z
M 2178 591 
L 2178 1794 
Q 2178 2297 2123 2459 
Q 2069 2622 1922 2741 
Q 1847 2800 1731 2800 
Q 1494 2800 1363 2591 
Q 1156 2269 1156 1394 
Q 1156 722 1334 450 
Q 1456 266 1650 266 
Q 1763 266 1905 344 
Q 2047 422 2178 591 
z
" transform="scale(0.015625)"/>
       <path id="TimesNewRomanPS-BoldMT-75" d="M 3038 2922 
L 3038 634 
Q 3038 300 3100 217 
Q 3163 134 3353 113 
L 3353 0 
L 2163 0 
L 2163 391 
Q 1953 141 1743 26 
Q 1534 -88 1275 -88 
Q 1028 -88 836 64 
Q 644 216 578 419 
Q 513 622 513 1128 
L 513 2288 
Q 513 2619 452 2700 
Q 391 2781 197 2806 
L 197 2922 
L 1388 2922 
L 1388 925 
Q 1388 613 1417 522 
Q 1447 431 1511 384 
Q 1575 338 1659 338 
Q 1772 338 1863 397 
Q 1988 478 2163 725 
L 2163 2288 
Q 2163 2619 2102 2700 
Q 2041 2781 1847 2806 
L 1847 2922 
L 3038 2922 
z
" transform="scale(0.015625)"/>
       <path id="TimesNewRomanPS-BoldMT-6e" d="M 1409 2922 
L 1409 2544 
Q 1634 2788 1840 2898 
Q 2047 3009 2284 3009 
Q 2569 3009 2756 2851 
Q 2944 2694 3006 2459 
Q 3056 2281 3056 1775 
L 3056 638 
Q 3056 300 3117 217 
Q 3178 134 3372 113 
L 3372 0 
L 1894 0 
L 1894 113 
Q 2059 134 2131 250 
Q 2181 328 2181 638 
L 2181 1938 
Q 2181 2297 2153 2390 
Q 2125 2484 2058 2536 
Q 1991 2588 1909 2588 
Q 1641 2588 1409 2203 
L 1409 638 
Q 1409 309 1470 221 
Q 1531 134 1697 113 
L 1697 0 
L 219 0 
L 219 113 
Q 403 131 481 231 
Q 534 300 534 638 
L 534 2288 
Q 534 2619 473 2700 
Q 413 2781 219 2806 
L 219 2922 
L 1409 2922 
z
" transform="scale(0.015625)"/>
       <path id="TimesNewRomanPS-BoldMT-63" d="M 2600 753 
L 2697 678 
Q 2491 291 2183 101 
Q 1875 -88 1528 -88 
Q 944 -88 594 353 
Q 244 794 244 1413 
Q 244 2009 563 2463 
Q 947 3009 1622 3009 
Q 2075 3009 2342 2781 
Q 2609 2553 2609 2272 
Q 2609 2094 2501 1987 
Q 2394 1881 2219 1881 
Q 2034 1881 1914 2003 
Q 1794 2125 1766 2438 
Q 1747 2634 1675 2713 
Q 1603 2791 1506 2791 
Q 1356 2791 1250 2631 
Q 1088 2391 1088 1894 
Q 1088 1481 1219 1104 
Q 1350 728 1578 544 
Q 1750 409 1984 409 
Q 2138 409 2275 481 
Q 2413 553 2600 753 
z
" transform="scale(0.015625)"/>
       <path id="TimesNewRomanPS-BoldMT-79" d="M 1556 -119 
L 613 2047 
Q 400 2538 298 2650 
Q 197 2763 53 2806 
L 53 2922 
L 1606 2922 
L 1606 2806 
Q 1453 2800 1390 2747 
Q 1328 2694 1328 2619 
Q 1328 2500 1484 2150 
L 1984 1006 
L 2325 1891 
Q 2509 2363 2509 2547 
Q 2509 2663 2432 2731 
Q 2356 2800 2163 2806 
L 2163 2922 
L 3141 2922 
L 3141 2806 
Q 2997 2791 2906 2695 
Q 2816 2600 2603 2047 
L 1769 -119 
Q 1453 -931 1300 -1119 
Q 1084 -1381 759 -1381 
Q 500 -1381 339 -1232 
Q 178 -1084 178 -875 
Q 178 -694 289 -575 
Q 400 -456 563 -456 
Q 719 -456 814 -556 
Q 909 -656 913 -866 
Q 916 -984 941 -1019 
Q 966 -1053 1013 -1053 
Q 1088 -1053 1172 -963 
Q 1297 -831 1466 -363 
L 1556 -119 
z
" transform="scale(0.015625)"/>
       <path id="TimesNewRomanPS-BoldMT-20" transform="scale(0.015625)"/>
       <path id="TimesNewRomanPS-BoldMT-28" d="M 2056 4334 
L 2056 4191 
Q 1731 3978 1578 3775 
Q 1366 3494 1247 3053 
Q 1097 2506 1097 1525 
Q 1097 600 1233 87 
Q 1369 -425 1603 -741 
Q 1766 -959 2056 -1125 
L 2056 -1281 
Q 1303 -1028 779 -248 
Q 256 531 256 1544 
Q 256 2544 778 3314 
Q 1300 4084 2056 4334 
z
" transform="scale(0.015625)"/>
       <path id="TimesNewRomanPS-BoldMT-48" d="M 1750 2038 
L 1750 725 
Q 1750 400 1786 319 
Q 1822 238 1926 177 
Q 2031 116 2209 116 
L 2350 116 
L 2350 0 
L 134 0 
L 134 116 
L 275 116 
Q 459 116 572 181 
Q 653 225 697 331 
Q 731 406 731 725 
L 731 3513 
Q 731 3838 697 3919 
Q 663 4000 558 4061 
Q 453 4122 275 4122 
L 134 4122 
L 134 4238 
L 2350 4238 
L 2350 4122 
L 2209 4122 
Q 2025 4122 1913 4056 
Q 1831 4013 1784 3906 
Q 1750 3831 1750 3513 
L 1750 2313 
L 3247 2313 
L 3247 3513 
Q 3247 3838 3212 3919 
Q 3178 4000 3072 4061 
Q 2966 4122 2788 4122 
L 2650 4122 
L 2650 4238 
L 4863 4238 
L 4863 4122 
L 4725 4122 
Q 4538 4122 4428 4056 
Q 4347 4013 4300 3906 
Q 4266 3831 4266 3513 
L 4266 725 
Q 4266 400 4300 319 
Q 4334 238 4440 177 
Q 4547 116 4725 116 
L 4863 116 
L 4863 0 
L 2650 0 
L 2650 116 
L 2788 116 
Q 2975 116 3084 181 
Q 3166 225 3213 331 
Q 3247 406 3247 725 
L 3247 2038 
L 1750 2038 
z
" transform="scale(0.015625)"/>
       <path id="TimesNewRomanPS-BoldMT-7a" d="M 2609 0 
L 66 0 
L 66 69 
L 1672 2731 
L 1203 2731 
Q 900 2731 769 2676 
Q 638 2622 556 2501 
Q 475 2381 388 2072 
L 278 2072 
L 278 2922 
L 2738 2922 
L 2738 2838 
L 1144 200 
L 1344 200 
Q 1944 200 2209 372 
Q 2475 544 2609 1000 
L 2697 1000 
L 2609 0 
z
" transform="scale(0.015625)"/>
       <path id="TimesNewRomanPS-BoldMT-29" d="M 78 -1281 
L 78 -1138 
Q 403 -922 556 -719 
Q 766 -438 888 0 
Q 1038 550 1038 1531 
Q 1038 2456 902 2967 
Q 766 3478 531 3794 
Q 369 4013 78 4178 
L 78 4334 
Q 831 4081 1354 3301 
Q 1878 2522 1878 1509 
Q 1878 513 1354 -257 
Q 831 -1028 78 -1281 
z
" transform="scale(0.015625)"/>
      </defs>
      <use xlink:href="#TimesNewRomanPS-BoldMT-46"/>
      <use xlink:href="#TimesNewRomanPS-BoldMT-72" x="61.083984"/>
      <use xlink:href="#TimesNewRomanPS-BoldMT-65" x="103.71875"/>
      <use xlink:href="#TimesNewRomanPS-BoldMT-71" x="148.103516"/>
      <use xlink:href="#TimesNewRomanPS-BoldMT-75" x="203.71875"/>
      <use xlink:href="#TimesNewRomanPS-BoldMT-65" x="259.333984"/>
      <use xlink:href="#TimesNewRomanPS-BoldMT-6e" x="303.71875"/>
      <use xlink:href="#TimesNewRomanPS-BoldMT-63" x="359.333984"/>
      <use xlink:href="#TimesNewRomanPS-BoldMT-79" x="403.71875"/>
      <use xlink:href="#TimesNewRomanPS-BoldMT-20" x="453.71875"/>
      <use xlink:href="#TimesNewRomanPS-BoldMT-28" x="478.71875"/>
      <use xlink:href="#TimesNewRomanPS-BoldMT-48" x="512.019531"/>
      <use xlink:href="#TimesNewRomanPS-BoldMT-7a" x="589.802734"/>
      <use xlink:href="#TimesNewRomanPS-BoldMT-29" x="634.1875"/>
     </g>
    </g>
   </g>
   <g id="matplotlib.axis_2">
    <g id="ytick_1">
     <g id="line2d_15">
      <path d="M 108 435.449716 
L 777.6 435.449716 
" clip-path="url(#pcbe05f2471)" style="fill: none; stroke-dasharray: 1.85,0.8; stroke-dashoffset: 0; stroke: #808080; stroke-width: 0.5"/>
     </g>
     <g id="line2d_16">
      <defs>
       <path id="m825ce8c5d0" d="M 0 0 
L -3.5 0 
" style="stroke: #000000; stroke-width: 0.8"/>
      </defs>
      <g>
       <use xlink:href="#m825ce8c5d0" x="108" y="435.449716" style="stroke: #000000; stroke-width: 0.8"/>
      </g>
     </g>
     <g id="text_9">
      <!-- −35 -->
      <g transform="translate(79.022188 440.085028) scale(0.14 -0.14)">
       <defs>
        <path id="TimesNewRomanPS-BoldMT-2212" d="M 125 2325 
L 3541 2325 
L 3541 1913 
L 125 1913 
L 125 2325 
z
" transform="scale(0.015625)"/>
        <path id="TimesNewRomanPS-BoldMT-33" d="M 947 2125 
L 947 2234 
Q 1303 2338 1440 2427 
Q 1578 2516 1678 2698 
Q 1778 2881 1778 3069 
Q 1778 3328 1589 3514 
Q 1400 3700 1119 3700 
Q 681 3700 375 3238 
L 259 3278 
Q 484 3800 836 4062 
Q 1188 4325 1619 4325 
Q 2059 4325 2345 4056 
Q 2631 3788 2631 3428 
Q 2631 3194 2498 2976 
Q 2366 2759 2081 2594 
Q 2447 2416 2639 2155 
Q 2831 1894 2831 1500 
Q 2831 838 2351 373 
Q 1872 -91 1066 -91 
Q 528 -91 281 88 
Q 103 213 103 409 
Q 103 553 206 654 
Q 309 756 444 756 
Q 547 756 638 713 
Q 688 688 992 439 
Q 1297 191 1563 191 
Q 1794 191 1959 373 
Q 2125 556 2125 838 
Q 2125 1266 1825 1627 
Q 1525 1988 947 2125 
z
" transform="scale(0.015625)"/>
        <path id="TimesNewRomanPS-BoldMT-35" d="M 975 4238 
L 2959 4238 
L 2644 3431 
L 975 3431 
L 816 3009 
Q 1894 2969 2475 2472 
Q 2953 2063 2953 1453 
Q 2953 1063 2731 689 
Q 2509 316 2106 114 
Q 1703 -88 1222 -88 
Q 703 -88 425 106 
Q 231 244 231 419 
Q 231 553 332 656 
Q 434 759 569 759 
Q 691 759 816 709 
Q 941 659 1244 447 
Q 1434 316 1572 266 
Q 1669 228 1791 228 
Q 2047 228 2226 415 
Q 2406 603 2406 866 
Q 2406 1416 1856 1759 
Q 1306 2103 469 2103 
Q 384 2103 216 2100 
L 975 4238 
z
" transform="scale(0.015625)"/>
       </defs>
       <use xlink:href="#TimesNewRomanPS-BoldMT-2212"/>
       <use xlink:href="#TimesNewRomanPS-BoldMT-33" x="56.982422"/>
       <use xlink:href="#TimesNewRomanPS-BoldMT-35" x="106.982422"/>
      </g>
     </g>
    </g>
    <g id="ytick_2">
     <g id="line2d_17">
      <path d="M 108 384.402613 
L 777.6 384.402613 
" clip-path="url(#pcbe05f2471)" style="fill: none; stroke-dasharray: 1.85,0.8; stroke-dashoffset: 0; stroke: #808080; stroke-width: 0.5"/>
     </g>
     <g id="line2d_18">
      <g>
       <use xlink:href="#m825ce8c5d0" x="108" y="384.402613" style="stroke: #000000; stroke-width: 0.8"/>
      </g>
     </g>
     <g id="text_10">
      <!-- −30 -->
      <g transform="translate(79.022188 389.037926) scale(0.14 -0.14)">
       <use xlink:href="#TimesNewRomanPS-BoldMT-2212"/>
       <use xlink:href="#TimesNewRomanPS-BoldMT-33" x="56.982422"/>
       <use xlink:href="#TimesNewRomanPS-BoldMT-30" x="106.982422"/>
      </g>
     </g>
    </g>
    <g id="ytick_3">
     <g id="line2d_19">
      <path d="M 108 333.355511 
L 777.6 333.355511 
" clip-path="url(#pcbe05f2471)" style="fill: none; stroke-dasharray: 1.85,0.8; stroke-dashoffset: 0; stroke: #808080; stroke-width: 0.5"/>
     </g>
     <g id="line2d_20">
      <g>
       <use xlink:href="#m825ce8c5d0" x="108" y="333.355511" style="stroke: #000000; stroke-width: 0.8"/>
      </g>
     </g>
     <g id="text_11">
      <!-- −25 -->
      <g transform="translate(79.022188 337.990824) scale(0.14 -0.14)">
       <use xlink:href="#TimesNewRomanPS-BoldMT-2212"/>
       <use xlink:href="#TimesNewRomanPS-BoldMT-32" x="56.982422"/>
       <use xlink:href="#TimesNewRomanPS-BoldMT-35" x="106.982422"/>
      </g>
     </g>
    </g>
    <g id="ytick_4">
     <g id="line2d_21">
      <path d="M 108 282.308409 
L 777.6 282.308409 
" clip-path="url(#pcbe05f2471)" style="fill: none; stroke-dasharray: 1.85,0.8; stroke-dashoffset: 0; stroke: #808080; stroke-width: 0.5"/>
     </g>
     <g id="line2d_22">
      <g>
       <use xlink:href="#m825ce8c5d0" x="108" y="282.308409" style="stroke: #000000; stroke-width: 0.8"/>
      </g>
     </g>
     <g id="text_12">
      <!-- −20 -->
      <g transform="translate(79.022188 286.943721) scale(0.14 -0.14)">
       <use xlink:href="#TimesNewRomanPS-BoldMT-2212"/>
       <use xlink:href="#TimesNewRomanPS-BoldMT-32" x="56.982422"/>
       <use xlink:href="#TimesNewRomanPS-BoldMT-30" x="106.982422"/>
      </g>
     </g>
    </g>
    <g id="ytick_5">
     <g id="line2d_23">
      <path d="M 108 231.261307 
L 777.6 231.261307 
" clip-path="url(#pcbe05f2471)" style="fill: none; stroke-dasharray: 1.85,0.8; stroke-dashoffset: 0; stroke: #808080; stroke-width: 0.5"/>
     </g>
     <g id="line2d_24">
      <g>
       <use xlink:href="#m825ce8c5d0" x="108" y="231.261307" style="stroke: #000000; stroke-width: 0.8"/>
      </g>
     </g>
     <g id="text_13">
      <!-- −15 -->
      <g transform="translate(79.022188 235.896619) scale(0.14 -0.14)">
       <use xlink:href="#TimesNewRomanPS-BoldMT-2212"/>
       <use xlink:href="#TimesNewRomanPS-BoldMT-31" x="56.982422"/>
       <use xlink:href="#TimesNewRomanPS-BoldMT-35" x="106.982422"/>
      </g>
     </g>
    </g>
    <g id="ytick_6">
     <g id="line2d_25">
      <path d="M 108 180.214204 
L 777.6 180.214204 
" clip-path="url(#pcbe05f2471)" style="fill: none; stroke-dasharray: 1.85,0.8; stroke-dashoffset: 0; stroke: #808080; stroke-width: 0.5"/>
     </g>
     <g id="line2d_26">
      <g>
       <use xlink:href="#m825ce8c5d0" x="108" y="180.214204" style="stroke: #000000; stroke-width: 0.8"/>
      </g>
     </g>
     <g id="text_14">
      <!-- −10 -->
      <g transform="translate(79.022188 184.849517) scale(0.14 -0.14)">
       <use xlink:href="#TimesNewRomanPS-BoldMT-2212"/>
       <use xlink:href="#TimesNewRomanPS-BoldMT-31" x="56.982422"/>
       <use xlink:href="#TimesNewRomanPS-BoldMT-30" x="106.982422"/>
      </g>
     </g>
    </g>
    <g id="ytick_7">
     <g id="line2d_27">
      <path d="M 108 129.167102 
L 777.6 129.167102 
" clip-path="url(#pcbe05f2471)" style="fill: none; stroke-dasharray: 1.85,0.8; stroke-dashoffset: 0; stroke: #808080; stroke-width: 0.5"/>
     </g>
     <g id="line2d_28">
      <g>
       <use xlink:href="#m825ce8c5d0" x="108" y="129.167102" style="stroke: #000000; stroke-width: 0.8"/>
      </g>
     </g>
     <g id="text_15">
      <!-- −5 -->
      <g transform="translate(86.022188 133.802415) scale(0.14 -0.14)">
       <use xlink:href="#TimesNewRomanPS-BoldMT-2212"/>
       <use xlink:href="#TimesNewRomanPS-BoldMT-35" x="56.982422"/>
      </g>
     </g>
    </g>
    <g id="ytick_8">
     <g id="line2d_29">
      <path d="M 108 78.12 
L 777.6 78.12 
" clip-path="url(#pcbe05f2471)" style="fill: none; stroke-dasharray: 1.85,0.8; stroke-dashoffset: 0; stroke: #808080; stroke-width: 0.5"/>
     </g>
     <g id="line2d_30">
      <g>
       <use xlink:href="#m825ce8c5d0" x="108" y="78.12" style="stroke: #000000; stroke-width: 0.8"/>
      </g>
     </g>
     <g id="text_16">
      <!-- 0 -->
      <g transform="translate(94 82.755313) scale(0.14 -0.14)">
       <use xlink:href="#TimesNewRomanPS-BoldMT-30"/>
      </g>
     </g>
    </g>
    <g id="text_17">
     <!-- Amplitude (m) -->
     <g transform="translate(61.0275 298.653906) rotate(-90) scale(0.14 -0.14)">
      <defs>
       <path id="TimesNewRomanPS-BoldMT-41" d="M 2663 1206 
L 1166 1206 
L 988 794 
Q 900 588 900 453 
Q 900 275 1044 191 
Q 1128 141 1459 116 
L 1459 0 
L 50 0 
L 50 116 
Q 278 150 425 304 
Q 572 459 788 944 
L 2303 4325 
L 2363 4325 
L 3891 850 
Q 4109 356 4250 228 
Q 4356 131 4550 116 
L 4550 0 
L 2500 0 
L 2500 116 
L 2584 116 
Q 2831 116 2931 184 
Q 3000 234 3000 328 
Q 3000 384 2981 444 
Q 2975 472 2888 678 
L 2663 1206 
z
M 2556 1438 
L 1925 2897 
L 1275 1438 
L 2556 1438 
z
" transform="scale(0.015625)"/>
       <path id="TimesNewRomanPS-BoldMT-6d" d="M 1428 2922 
L 1428 2538 
Q 1669 2800 1873 2904 
Q 2078 3009 2322 3009 
Q 2603 3009 2793 2878 
Q 2984 2747 3088 2478 
Q 3338 2759 3567 2884 
Q 3797 3009 4047 3009 
Q 4350 3009 4529 2870 
Q 4709 2731 4779 2517 
Q 4850 2303 4850 1834 
L 4850 638 
Q 4850 300 4911 219 
Q 4972 138 5166 113 
L 5166 0 
L 3656 0 
L 3656 113 
Q 3834 128 3919 250 
Q 3975 334 3975 638 
L 3975 1894 
Q 3975 2284 3944 2390 
Q 3913 2497 3845 2548 
Q 3778 2600 3688 2600 
Q 3553 2600 3415 2501 
Q 3278 2403 3138 2206 
L 3138 638 
Q 3138 322 3191 241 
Q 3263 125 3466 113 
L 3466 0 
L 1953 0 
L 1953 113 
Q 2075 119 2145 173 
Q 2216 228 2239 304 
Q 2263 381 2263 638 
L 2263 1894 
Q 2263 2291 2231 2391 
Q 2200 2491 2126 2547 
Q 2053 2603 1969 2603 
Q 1844 2603 1741 2538 
Q 1594 2441 1428 2206 
L 1428 638 
Q 1428 328 1489 229 
Q 1550 131 1744 113 
L 1744 0 
L 238 0 
L 238 113 
Q 422 131 500 231 
Q 553 300 553 638 
L 553 2288 
Q 553 2619 492 2700 
Q 431 2781 238 2806 
L 238 2922 
L 1428 2922 
z
" transform="scale(0.015625)"/>
       <path id="TimesNewRomanPS-BoldMT-70" d="M 1347 297 
L 1347 -791 
Q 1347 -1016 1383 -1097 
Q 1419 -1178 1494 -1215 
Q 1569 -1253 1788 -1253 
L 1788 -1369 
L 122 -1369 
L 122 -1253 
Q 316 -1247 409 -1144 
Q 472 -1072 472 -772 
L 472 2313 
Q 472 2622 400 2708 
Q 328 2794 122 2806 
L 122 2922 
L 1347 2922 
L 1347 2538 
Q 1500 2763 1659 2863 
Q 1888 3009 2156 3009 
Q 2478 3009 2742 2806 
Q 3006 2603 3143 2245 
Q 3281 1888 3281 1475 
Q 3281 1031 3139 664 
Q 2997 297 2726 104 
Q 2456 -88 2125 -88 
Q 1884 -88 1675 19 
Q 1519 100 1347 297 
z
M 1347 613 
Q 1616 231 1922 231 
Q 2091 231 2200 409 
Q 2363 672 2363 1409 
Q 2363 2166 2184 2444 
Q 2066 2628 1866 2628 
Q 1550 2628 1347 2172 
L 1347 613 
z
" transform="scale(0.015625)"/>
       <path id="TimesNewRomanPS-BoldMT-6c" d="M 1359 4238 
L 1359 606 
Q 1359 297 1431 211 
Q 1503 125 1713 113 
L 1713 0 
L 134 0 
L 134 113 
Q 328 119 422 225 
Q 484 297 484 606 
L 484 3631 
Q 484 3938 412 4023 
Q 341 4109 134 4122 
L 134 4238 
L 1359 4238 
z
" transform="scale(0.015625)"/>
       <path id="TimesNewRomanPS-BoldMT-69" d="M 919 4338 
Q 1122 4338 1262 4195 
Q 1403 4053 1403 3853 
Q 1403 3653 1261 3512 
Q 1119 3372 919 3372 
Q 719 3372 578 3512 
Q 438 3653 438 3853 
Q 438 4053 578 4195 
Q 719 4338 919 4338 
z
M 1356 2922 
L 1356 606 
Q 1356 297 1428 211 
Q 1500 125 1709 113 
L 1709 0 
L 131 0 
L 131 113 
Q 325 119 419 225 
Q 481 297 481 606 
L 481 2313 
Q 481 2622 409 2708 
Q 338 2794 131 2806 
L 131 2922 
L 1356 2922 
z
" transform="scale(0.015625)"/>
       <path id="TimesNewRomanPS-BoldMT-74" d="M 1375 3991 
L 1375 2922 
L 2069 2922 
L 2069 2613 
L 1375 2613 
L 1375 809 
Q 1375 556 1398 482 
Q 1422 409 1481 364 
Q 1541 319 1591 319 
Q 1794 319 1975 628 
L 2069 559 
Q 1816 -41 1247 -41 
Q 969 -41 776 114 
Q 584 269 531 459 
Q 500 566 500 1034 
L 500 2613 
L 119 2613 
L 119 2722 
Q 513 3000 789 3306 
Q 1066 3613 1272 3991 
L 1375 3991 
z
" transform="scale(0.015625)"/>
       <path id="TimesNewRomanPS-BoldMT-64" d="M 3056 4238 
L 3056 875 
Q 3056 534 3075 472 
Q 3100 369 3170 319 
Q 3241 269 3416 256 
L 3416 153 
L 2181 -88 
L 2181 375 
Q 1959 106 1786 9 
Q 1613 -88 1394 -88 
Q 834 -88 509 413 
Q 247 819 247 1409 
Q 247 1881 409 2254 
Q 572 2628 855 2818 
Q 1138 3009 1463 3009 
Q 1672 3009 1834 2928 
Q 1997 2847 2181 2644 
L 2181 3525 
Q 2181 3859 2153 3928 
Q 2116 4019 2041 4062 
Q 1966 4106 1759 4106 
L 1759 4238 
L 3056 4238 
z
M 2181 2256 
Q 1950 2700 1616 2700 
Q 1500 2700 1425 2638 
Q 1309 2541 1236 2297 
Q 1163 2053 1163 1550 
Q 1163 997 1244 731 
Q 1325 466 1466 347 
Q 1538 288 1663 288 
Q 1938 288 2181 719 
L 2181 2256 
z
" transform="scale(0.015625)"/>
      </defs>
      <use xlink:href="#TimesNewRomanPS-BoldMT-41"/>
      <use xlink:href="#TimesNewRomanPS-BoldMT-6d" x="72.216797"/>
      <use xlink:href="#TimesNewRomanPS-BoldMT-70" x="155.517578"/>
      <use xlink:href="#TimesNewRomanPS-BoldMT-6c" x="211.132812"/>
      <use xlink:href="#TimesNewRomanPS-BoldMT-69" x="238.916016"/>
      <use xlink:href="#TimesNewRomanPS-BoldMT-74" x="266.699219"/>
      <use xlink:href="#TimesNewRomanPS-BoldMT-75" x="300"/>
      <use xlink:href="#TimesNewRomanPS-BoldMT-64" x="355.615234"/>
      <use xlink:href="#TimesNewRomanPS-BoldMT-65" x="411.230469"/>
      <use xlink:href="#TimesNewRomanPS-BoldMT-20" x="455.615234"/>
      <use xlink:href="#TimesNewRomanPS-BoldMT-28" x="480.615234"/>
      <use xlink:href="#TimesNewRomanPS-BoldMT-6d" x="513.916016"/>
      <use xlink:href="#TimesNewRomanPS-BoldMT-29" x="597.216797"/>
     </g>
    </g>
   </g>
   <g id="line2d_31">
    <path d="M 138.436364 298.84379 
L 143.192045 289.43438 
L 147.947727 293.872109 
L 152.703412 285.233612 
L 157.459091 280.910025 
L 162.21477 276.361217 
L 171.726139 239.968819 
L 176.481818 219.525374 
L 181.237498 178.927256 
L 185.993182 116.820442 
L 190.748876 97.366197 
L 195.504545 110.531776 
L 200.260215 103.974632 
L 205.015933 91.300454 
L 209.771603 82.068055 
L 214.527273 87.216518 
L 219.282942 94.760426 
L 224.038612 78.12 
L 228.79433 85.307841 
L 233.55 86.480126 
L 238.30567 85.36002 
L 243.061388 84.668871 
L 247.817058 99.385294 
L 252.572727 90.731064 
L 257.328397 88.413903 
L 262.084067 95.199687 
L 266.839785 91.293042 
L 271.595455 81.768733 
L 276.351124 93.94109 
L 281.106843 110.958407 
L 285.862512 104.565982 
L 290.618182 108.663625 
L 295.373851 114.023071 
L 300.129521 121.204551 
L 304.885239 126.036445 
L 309.640909 127.722183 
L 314.396579 128.977769 
L 319.152297 132.586952 
L 323.907967 145.970348 
L 328.663636 148.660112 
L 333.419306 157.243499 
L 338.174976 163.564753 
L 342.930694 167.510531 
L 347.686364 168.141983 
L 352.442033 176.533096 
L 357.197752 190.791675 
L 361.953421 190.450169 
L 366.709091 202.401317 
L 371.464761 203.660751 
L 376.22043 214.028928 
L 380.976149 213.393085 
L 385.731818 225.743932 
L 390.487488 229.35143 
L 395.243206 230.151645 
L 399.998876 232.985372 
L 404.754545 220.034007 
L 409.510215 221.45475 
L 414.265885 259.96938 
L 419.021603 272.467446 
L 423.777273 288.47347 
L 428.532942 300.150392 
L 433.288661 311.080393 
L 438.04433 323.134554 
L 442.8 345.092669 
L 447.55567 351.886528 
L 452.311339 359.242313 
L 457.067058 370.666553 
L 461.822727 367.365439 
L 466.578397 365.460259 
L 471.334115 378.549859 
L 476.089785 376.357386 
L 480.845455 376.76321 
L 485.601124 379.301579 
L 490.356794 383.826904 
L 495.112512 386.782736 
L 499.868182 383.274779 
L 504.623851 394.460424 
L 509.37957 390.93215 
L 514.135239 386.209272 
L 518.890909 393.811105 
L 523.646579 395.359568 
L 533.157967 392.523289 
L 537.913636 402.63623 
L 542.669306 396.586842 
L 547.425024 393.33361 
L 552.180694 406.935825 
L 556.936364 400.647741 
L 561.692033 400.090307 
L 566.447703 404.992054 
L 571.203421 405.403085 
L 575.959091 406.231886 
L 580.714761 402.600905 
L 585.470479 417.008235 
L 590.226149 405.739077 
L 594.981818 406.173079 
L 599.737488 413.248923 
L 604.493157 410.576709 
L 609.248876 412.400826 
L 614.004545 408.244163 
L 618.760215 418.702795 
L 623.515933 411.271358 
L 628.271408 408.612723 
L 633.027273 422.838325 
L 637.783137 412.735082 
L 642.538515 415.361047 
L 647.294379 415.166047 
L 652.050243 419.120462 
L 656.805621 415.944924 
L 661.561485 412.34498 
L 666.316863 427.420211 
L 671.072727 413.770113 
L 675.828592 415.06232 
L 680.583969 421.42432 
L 685.339834 417.725141 
L 690.095211 419.331899 
L 694.851075 415.751149 
L 699.60694 426.677169 
L 704.362317 416.731866 
L 709.118182 415.120207 
L 713.874046 427.696069 
L 718.629424 416.737584 
L 723.385288 420.268512 
L 728.141153 419.179371 
L 732.89653 423.393819 
L 737.652394 418.453277 
L 742.407772 415.952275 
L 747.163636 430.92 
L 747.163636 430.92 
" clip-path="url(#pcbe05f2471)" style="fill: none; stroke: #000080; stroke-width: 1.5; stroke-linecap: square"/>
   </g>
   <g id="line2d_32">
    <path d="M 138.436364 325.438998 
L 138.871791 325.187297 
L 139.307218 324.630284 
L 140.178073 322.88425 
L 141.919782 318.851632 
L 142.355209 318.144922 
L 142.790636 317.700753 
L 143.226063 317.590089 
L 143.66149 317.839295 
L 145.403199 319.856416 
L 145.838627 319.908342 
L 146.274054 319.60247 
L 146.709481 318.972538 
L 147.580336 316.882119 
L 149.757472 310.068466 
L 150.192899 309.58029 
L 150.628326 309.754335 
L 151.063753 310.484377 
L 152.370035 313.435945 
L 152.805462 313.812303 
L 153.24089 313.583498 
L 153.676317 312.880327 
L 154.547171 310.700027 
L 155.418026 308.553677 
L 156.28888 307.049494 
L 158.466016 304.174927 
L 159.336871 303.25039 
L 159.772298 302.972172 
L 161.07858 302.672797 
L 161.514007 302.342721 
L 161.949434 301.671063 
L 162.384861 300.525852 
L 164.12657 293.972953 
L 164.561998 293.110941 
L 164.997425 293.004061 
L 165.432852 293.499287 
L 166.739134 296.016061 
L 167.174561 296.343503 
L 167.609988 296.137414 
L 168.045416 295.446093 
L 168.480843 294.325695 
L 169.351697 291.022289 
L 171.093406 283.230207 
L 171.528833 282.098061 
L 171.964261 281.669705 
L 172.399688 281.882411 
L 173.70597 283.542973 
L 174.141397 283.481079 
L 174.576824 282.709431 
L 175.012251 281.252647 
L 175.447679 279.180775 
L 176.318533 273.471967 
L 177.624815 262.17559 
L 179.366524 246.430687 
L 181.979087 224.16676 
L 185.897932 186.081358 
L 186.768787 180.47435 
L 187.639641 176.347523 
L 189.816777 167.837813 
L 190.687632 162.409288 
L 192.864768 143.656448 
L 193.300195 141.850777 
L 193.735622 141.242214 
L 194.17105 141.353006 
L 194.606477 141.672189 
L 195.041904 141.688797 
L 195.477331 140.891865 
L 195.912758 138.913398 
L 197.654467 127.70628 
L 198.089895 126.715523 
L 198.525322 127.066485 
L 198.960749 128.4128 
L 200.702458 136.454397 
L 201.137885 137.664574 
L 201.573313 138.348144 
L 202.00874 138.477117 
L 202.444167 138.023509 
L 202.879594 136.962796 
L 203.315021 135.332871 
L 204.185876 130.735144 
L 206.798439 114.125047 
L 207.233867 112.626558 
L 207.669294 111.980785 
L 208.104721 112.109582 
L 208.540148 112.756918 
L 209.411003 114.568138 
L 209.84643 115.212785 
L 210.281857 115.431231 
L 210.717284 115.284145 
L 211.152712 114.8657 
L 213.329848 111.999211 
L 213.765275 111.930281 
L 214.200702 112.249214 
L 214.63613 113.049345 
L 215.506984 115.862275 
L 216.377838 118.828978 
L 216.813266 119.798633 
L 217.248693 120.140554 
L 217.68412 119.794606 
L 218.119547 118.769482 
L 218.554975 117.074251 
L 218.990402 114.717978 
L 219.861256 108.23564 
L 220.732111 101.649916 
L 221.167538 99.466008 
L 221.602965 98.638105 
L 222.038393 99.496799 
L 222.909247 104.147598 
L 223.344674 106.437842 
L 223.780101 107.703093 
L 224.215529 107.207832 
L 224.650956 104.802846 
L 225.52181 96.71209 
L 226.392665 88.571717 
L 226.828092 85.986429 
L 227.263519 84.540614 
L 227.698947 84.042781 
L 228.134374 84.301417 
L 228.569801 85.125006 
L 229.440655 87.814629 
L 230.31151 91.708507 
L 231.182364 96.937624 
L 233.359501 111.912693 
L 233.794928 113.66905 
L 234.230355 114.563992 
L 234.665782 114.464765 
L 235.10121 113.23973 
L 235.536637 110.757245 
L 235.972064 106.885821 
L 236.842918 95.76011 
L 237.713773 84.62455 
L 238.1492 80.843273 
L 238.584627 79.147397 
L 239.020055 79.420166 
L 239.455482 81.010727 
L 240.326336 85.499205 
L 240.761764 87.075144 
L 241.197191 87.61266 
L 241.632618 87.418724 
L 242.503472 86.45681 
L 242.9389 86.498992 
L 243.374327 87.381841 
L 244.245181 90.970001 
L 245.116036 94.50284 
L 245.551463 95.31571 
L 245.98689 95.228357 
L 246.422318 94.540012 
L 247.293172 92.75419 
L 247.728599 92.353638 
L 248.164027 92.68639 
L 249.034881 94.728084 
L 249.470308 95.722626 
L 249.905735 96.222707 
L 250.341163 95.874746 
L 250.77659 94.567349 
L 251.647444 90.15166 
L 252.518299 85.289307 
L 253.389153 81.956535 
L 253.824581 80.957977 
L 254.260008 80.34752 
L 254.695435 80.082296 
L 255.130862 80.11944 
L 255.56629 80.416086 
L 256.001717 80.929367 
L 256.872571 82.434371 
L 258.178853 85.114775 
L 258.61428 85.707796 
L 259.049707 85.907729 
L 259.485135 85.566849 
L 259.920562 84.547975 
L 261.662271 78.592841 
L 262.097698 78.535659 
L 262.533125 79.67595 
L 262.968552 81.744629 
L 264.710261 91.612731 
L 265.145689 92.907758 
L 266.016543 94.362244 
L 266.887398 95.705184 
L 268.629107 99.928494 
L 269.064534 100.277385 
L 269.499961 99.94613 
L 269.935388 99.026406 
L 271.24167 95.558062 
L 271.677097 95.112654 
L 272.112524 95.343404 
L 272.983379 96.903851 
L 273.418806 97.694519 
L 273.854233 98.132798 
L 274.289661 97.98688 
L 275.595942 96.059395 
L 276.031369 95.986092 
L 276.466797 96.729206 
L 276.902224 98.391846 
L 279.07936 109.256849 
L 279.514787 109.899161 
L 279.950215 109.844279 
L 280.385642 109.153472 
L 280.821069 107.888012 
L 281.691924 104.025702 
L 282.127351 102.039061 
L 282.562778 100.577751 
L 282.998205 100.067811 
L 283.433632 100.935279 
L 283.86906 103.47284 
L 285.610769 118.27883 
L 286.046196 119.4763 
L 286.481623 118.806703 
L 286.91705 116.844723 
L 288.223332 109.387888 
L 288.658759 108.308473 
L 289.094187 108.175155 
L 289.529614 108.718376 
L 291.271323 112.43161 
L 291.70675 112.917683 
L 292.142177 113.202081 
L 292.577604 113.310915 
L 293.883886 113.173167 
L 294.319313 113.59886 
L 294.754741 114.68508 
L 295.190168 116.690094 
L 295.625595 119.845909 
L 297.367304 136.497383 
L 297.802731 138.892517 
L 298.238158 139.686972 
L 298.673586 139.166021 
L 299.109013 137.724019 
L 300.415295 131.805679 
L 300.850722 130.478706 
L 301.286149 129.86588 
L 301.721576 130.158348 
L 302.157004 131.547256 
L 302.592431 134.222534 
L 304.33414 149.55709 
L 304.769567 150.68546 
L 305.204994 149.272218 
L 305.640421 145.748689 
L 306.946703 132.769991 
L 307.38213 131.064209 
L 307.817558 131.784473 
L 308.252985 134.289608 
L 309.559266 144.961993 
L 309.994694 147.154034 
L 310.430121 148.26189 
L 310.865548 148.643994 
L 311.736403 148.669569 
L 312.17183 149.028682 
L 312.607257 149.899354 
L 313.478112 152.654827 
L 314.784393 157.136559 
L 316.090675 160.458305 
L 317.396957 163.857156 
L 318.703238 167.249305 
L 319.138666 168.065864 
L 320.880375 170.339381 
L 321.315802 171.447558 
L 322.186656 175.171596 
L 323.057511 179.200019 
L 323.492938 180.417802 
L 323.928365 180.616899 
L 324.363792 179.644188 
L 325.234647 176.689061 
L 325.670074 176.200388 
L 326.105501 177.366802 
L 326.540929 180.874378 
L 327.411783 193.038887 
L 328.282638 205.015889 
L 328.718065 208.268284 
L 329.153492 208.754398 
L 329.588919 207.210737 
L 330.895201 200.032406 
L 331.330628 199.926096 
L 331.766055 201.5776 
L 332.63691 207.901571 
L 333.507764 214.452127 
L 333.943192 216.635828 
L 334.814046 219.465161 
L 335.684901 222.221683 
L 336.555755 226.774751 
L 337.862037 234.203154 
L 338.297464 235.740247 
L 338.732891 236.532983 
L 339.168318 236.811945 
L 340.039173 236.884335 
L 340.4746 237.205659 
L 340.910027 238.043834 
L 341.345455 239.463303 
L 341.780882 241.454702 
L 342.651736 247.114787 
L 343.522591 254.854355 
L 345.2643 271.138284 
L 346.135154 276.35094 
L 346.570581 278.0602 
L 347.006009 279.279623 
L 347.441436 280.090378 
L 347.876863 280.575214 
L 348.747718 281.155405 
L 349.183145 281.636016 
L 349.618572 282.502708 
L 350.053999 283.949789 
L 350.924854 288.711658 
L 351.795708 294.129607 
L 352.231135 296.306469 
L 352.666563 297.727056 
L 353.10199 298.381943 
L 353.537417 298.538515 
L 354.408272 298.470936 
L 354.843699 298.803883 
L 355.279126 299.661363 
L 356.14998 302.392001 
L 357.020835 305.218036 
L 357.456262 306.205249 
L 357.891689 306.831715 
L 358.762544 307.439797 
L 359.633398 307.933831 
L 360.068826 308.391568 
L 360.93968 309.863392 
L 361.810535 312.10006 
L 363.987671 319.198475 
L 364.423098 320.05983 
L 364.858525 320.54106 
L 365.72938 320.869005 
L 366.164807 321.000309 
L 366.600234 321.299559 
L 367.035661 321.898342 
L 367.471089 322.835033 
L 368.341943 325.683274 
L 369.212798 329.763828 
L 370.954506 338.888242 
L 371.389934 340.303137 
L 371.825361 341.023951 
L 372.260788 341.168031 
L 373.56707 340.437083 
L 374.002497 340.569527 
L 374.437924 341.144112 
L 374.873352 342.085641 
L 375.744206 344.714923 
L 377.485915 350.400275 
L 377.921342 351.319792 
L 378.356769 351.824583 
L 378.792197 351.811883 
L 379.227624 351.312882 
L 380.969333 348.254054 
L 381.40476 348.147402 
L 381.840187 348.416092 
L 382.711042 349.655603 
L 384.017323 351.749024 
L 384.888178 352.751163 
L 385.759032 353.499822 
L 386.629887 354.008954 
L 387.065314 354.105197 
L 387.500741 354.048238 
L 387.936169 353.802335 
L 388.807023 352.719289 
L 389.677877 351.562644 
L 390.113305 351.299554 
L 390.548732 351.429698 
L 390.984159 352.020576 
L 391.855014 354.087473 
L 392.725868 356.35582 
L 393.161295 357.206498 
L 393.596723 357.771675 
L 394.03215 358.056319 
L 394.467577 358.066229 
L 394.903004 357.807208 
L 395.338432 357.285311 
L 397.08014 354.510861 
L 397.515568 354.393995 
L 397.950995 354.791765 
L 398.386422 355.665622 
L 399.257277 358.343084 
L 400.563558 362.823923 
L 401.434413 364.902018 
L 401.86984 365.426229 
L 402.305267 365.503057 
L 402.740694 365.083111 
L 404.482403 362.00421 
L 404.917831 361.965963 
L 405.353258 362.498371 
L 406.224112 364.676613 
L 407.530394 368.327599 
L 407.965821 369.13598 
L 408.401249 369.667512 
L 408.836676 369.899637 
L 409.272103 369.809799 
L 409.70753 369.377781 
L 410.578385 367.754263 
L 411.449239 365.962866 
L 411.884666 365.325113 
L 412.320094 365.000009 
L 412.755521 364.960729 
L 413.190948 365.148537 
L 414.061803 365.97046 
L 415.368084 367.376716 
L 415.803512 367.58837 
L 416.238939 367.535834 
L 416.674366 367.137698 
L 417.109793 366.359837 
L 418.851502 362.146064 
L 419.286929 361.560663 
L 419.722357 361.339878 
L 420.157784 361.43221 
L 420.593211 361.784138 
L 421.464066 363.052695 
L 423.641202 367.020493 
L 424.076629 367.523775 
L 424.512056 367.822471 
L 424.947483 367.888221 
L 425.382911 367.692793 
L 425.818338 367.207953 
L 426.253765 366.405898 
L 427.995474 362.228997 
L 428.430901 361.886857 
L 428.866329 362.178848 
L 429.301756 363.008127 
L 430.608037 366.475905 
L 431.043465 367.210218 
L 431.478892 367.46968 
L 431.914319 367.321265 
L 432.349746 366.849265 
L 433.220601 365.271678 
L 434.091455 363.461706 
L 434.526883 362.770821 
L 434.96231 362.399443 
L 435.397737 362.480161 
L 435.833164 363.142305 
L 436.268591 364.374711 
L 438.0103 370.827258 
L 438.445728 371.779687 
L 438.881155 372.286761 
L 439.316582 372.420739 
L 439.752009 372.2539 
L 440.187437 371.858521 
L 441.493718 370.274445 
L 441.929146 370.13397 
L 442.364573 370.475373 
L 442.8 371.471781 
L 442.8 371.471781 
" clip-path="url(#pcbe05f2471)" style="fill: none; stroke: #008000; stroke-width: 1.5; stroke-linecap: square"/>
   </g>
   <g id="patch_3">
    <path d="M 108 448.56 
L 108 60.48 
" style="fill: none; stroke: #000000; stroke-width: 0.8; stroke-linejoin: miter; stroke-linecap: square"/>
   </g>
   <g id="patch_4">
    <path d="M 777.6 448.56 
L 777.6 60.48 
" style="fill: none; stroke: #000000; stroke-width: 0.8; stroke-linejoin: miter; stroke-linecap: square"/>
   </g>
   <g id="patch_5">
    <path d="M 108 448.56 
L 777.6 448.56 
" style="fill: none; stroke: #000000; stroke-width: 0.8; stroke-linejoin: miter; stroke-linecap: square"/>
   </g>
   <g id="patch_6">
    <path d="M 108 60.48 
L 777.6 60.48 
" style="fill: none; stroke: #000000; stroke-width: 0.8; stroke-linejoin: miter; stroke-linecap: square"/>
   </g>
   <g id="text_18">
    <!-- Frequency vs Amplitude -->
    <g transform="translate(359.38125 54.48) scale(0.16 -0.16)">
     <defs>
      <path id="TimesNewRomanPS-BoldMT-76" d="M 1534 -88 
L 550 2178 
Q 372 2588 272 2697 
Q 200 2778 59 2806 
L 59 2922 
L 1613 2922 
L 1613 2806 
Q 1466 2806 1413 2753 
Q 1338 2684 1338 2591 
Q 1338 2475 1475 2156 
L 1956 1059 
L 2341 2006 
Q 2506 2413 2506 2581 
Q 2506 2678 2436 2739 
Q 2366 2800 2188 2806 
L 2188 2922 
L 3144 2922 
L 3144 2806 
Q 3006 2788 2918 2703 
Q 2831 2619 2656 2206 
L 1681 -88 
L 1534 -88 
z
" transform="scale(0.015625)"/>
      <path id="TimesNewRomanPS-BoldMT-73" d="M 2063 3003 
L 2109 2006 
L 2003 2006 
Q 1813 2450 1608 2612 
Q 1403 2775 1200 2775 
Q 1072 2775 981 2689 
Q 891 2603 891 2491 
Q 891 2406 953 2328 
Q 1053 2200 1512 1889 
Q 1972 1578 2117 1361 
Q 2263 1144 2263 875 
Q 2263 631 2141 397 
Q 2019 163 1797 37 
Q 1575 -88 1306 -88 
Q 1097 -88 747 44 
Q 653 78 619 78 
Q 516 78 447 -78 
L 344 -78 
L 294 972 
L 400 972 
Q 541 559 786 353 
Q 1031 147 1250 147 
Q 1400 147 1495 239 
Q 1591 331 1591 463 
Q 1591 613 1497 722 
Q 1403 831 1078 1053 
Q 600 1384 459 1559 
Q 253 1816 253 2125 
Q 253 2463 486 2736 
Q 719 3009 1159 3009 
Q 1397 3009 1619 2894 
Q 1703 2847 1756 2847 
Q 1813 2847 1847 2870 
Q 1881 2894 1956 3003 
L 2063 3003 
z
" transform="scale(0.015625)"/>
     </defs>
     <use xlink:href="#TimesNewRomanPS-BoldMT-46"/>
     <use xlink:href="#TimesNewRomanPS-BoldMT-72" x="61.083984"/>
     <use xlink:href="#TimesNewRomanPS-BoldMT-65" x="103.71875"/>
     <use xlink:href="#TimesNewRomanPS-BoldMT-71" x="148.103516"/>
     <use xlink:href="#TimesNewRomanPS-BoldMT-75" x="203.71875"/>
     <use xlink:href="#TimesNewRomanPS-BoldMT-65" x="259.333984"/>
     <use xlink:href="#TimesNewRomanPS-BoldMT-6e" x="303.71875"/>
     <use xlink:href="#TimesNewRomanPS-BoldMT-63" x="359.333984"/>
     <use xlink:href="#TimesNewRomanPS-BoldMT-79" x="403.71875"/>
     <use xlink:href="#TimesNewRomanPS-BoldMT-20" x="453.71875"/>
     <use xlink:href="#TimesNewRomanPS-BoldMT-76" x="478.71875"/>
     <use xlink:href="#TimesNewRomanPS-BoldMT-73" x="528.71875"/>
     <use xlink:href="#TimesNewRomanPS-BoldMT-20" x="567.634766"/>
     <use xlink:href="#TimesNewRomanPS-BoldMT-41" x="587.134766"/>
     <use xlink:href="#TimesNewRomanPS-BoldMT-6d" x="659.351562"/>
     <use xlink:href="#TimesNewRomanPS-BoldMT-70" x="742.652344"/>
     <use xlink:href="#TimesNewRomanPS-BoldMT-6c" x="798.267578"/>
     <use xlink:href="#TimesNewRomanPS-BoldMT-69" x="826.050781"/>
     <use xlink:href="#TimesNewRomanPS-BoldMT-74" x="853.833984"/>
     <use xlink:href="#TimesNewRomanPS-BoldMT-75" x="887.134766"/>
     <use xlink:href="#TimesNewRomanPS-BoldMT-64" x="942.75"/>
     <use xlink:href="#TimesNewRomanPS-BoldMT-65" x="998.365234"/>
    </g>
   </g>
   <g id="legend_1">
    <g id="patch_7">
     <path d="M 786 104.03625 
L 885.04875 104.03625 
Q 887.44875 104.03625 887.44875 101.63625 
L 887.44875 68.88 
Q 887.44875 66.48 885.04875 66.48 
L 786 66.48 
Q 783.6 66.48 783.6 68.88 
L 783.6 101.63625 
Q 783.6 104.03625 786 104.03625 
z
" style="fill: #ffffff; opacity: 0.8; stroke: #cccccc; stroke-linejoin: miter"/>
    </g>
    <g id="line2d_33">
     <path d="M 788.4 75.48 
L 800.4 75.48 
L 812.4 75.48 
" style="fill: none; stroke: #000080; stroke-width: 1.5; stroke-linecap: square"/>
    </g>
    <g id="text_19">
     <!-- Legacy -->
     <g transform="translate(822 79.68) scale(0.12 -0.12)">
      <defs>
       <path id="TimesNewRomanPSMT-4c" d="M 3669 1172 
L 3772 1150 
L 3409 0 
L 128 0 
L 128 116 
L 288 116 
Q 556 116 672 291 
Q 738 391 738 753 
L 738 3488 
Q 738 3884 650 3984 
Q 528 4122 288 4122 
L 128 4122 
L 128 4238 
L 2047 4238 
L 2047 4122 
Q 1709 4125 1573 4059 
Q 1438 3994 1388 3894 
Q 1338 3794 1338 3416 
L 1338 753 
Q 1338 494 1388 397 
Q 1425 331 1503 300 
Q 1581 269 1991 269 
L 2300 269 
Q 2788 269 2984 341 
Q 3181 413 3343 595 
Q 3506 778 3669 1172 
z
" transform="scale(0.015625)"/>
       <path id="TimesNewRomanPSMT-65" d="M 681 1784 
Q 678 1147 991 784 
Q 1303 422 1725 422 
Q 2006 422 2214 576 
Q 2422 731 2563 1106 
L 2659 1044 
Q 2594 616 2278 264 
Q 1963 -88 1488 -88 
Q 972 -88 605 314 
Q 238 716 238 1394 
Q 238 2128 614 2539 
Q 991 2950 1559 2950 
Q 2041 2950 2350 2633 
Q 2659 2316 2659 1784 
L 681 1784 
z
M 681 1966 
L 2006 1966 
Q 1991 2241 1941 2353 
Q 1863 2528 1708 2628 
Q 1553 2728 1384 2728 
Q 1125 2728 920 2526 
Q 716 2325 681 1966 
z
" transform="scale(0.015625)"/>
       <path id="TimesNewRomanPSMT-67" d="M 966 1044 
Q 703 1172 562 1401 
Q 422 1631 422 1909 
Q 422 2334 742 2640 
Q 1063 2947 1563 2947 
Q 1972 2947 2272 2747 
L 2878 2747 
Q 3013 2747 3034 2739 
Q 3056 2731 3066 2713 
Q 3084 2684 3084 2613 
Q 3084 2531 3069 2500 
Q 3059 2484 3036 2475 
Q 3013 2466 2878 2466 
L 2506 2466 
Q 2681 2241 2681 1891 
Q 2681 1491 2375 1206 
Q 2069 922 1553 922 
Q 1341 922 1119 984 
Q 981 866 932 777 
Q 884 688 884 625 
Q 884 572 936 522 
Q 988 472 1138 450 
Q 1225 438 1575 428 
Q 2219 413 2409 384 
Q 2700 344 2873 169 
Q 3047 -6 3047 -263 
Q 3047 -616 2716 -925 
Q 2228 -1381 1444 -1381 
Q 841 -1381 425 -1109 
Q 191 -953 191 -784 
Q 191 -709 225 -634 
Q 278 -519 444 -313 
Q 466 -284 763 25 
Q 600 122 533 198 
Q 466 275 466 372 
Q 466 481 555 628 
Q 644 775 966 1044 
z
M 1509 2797 
Q 1278 2797 1122 2612 
Q 966 2428 966 2047 
Q 966 1553 1178 1281 
Q 1341 1075 1591 1075 
Q 1828 1075 1981 1253 
Q 2134 1431 2134 1813 
Q 2134 2309 1919 2591 
Q 1759 2797 1509 2797 
z
M 934 0 
Q 788 -159 713 -296 
Q 638 -434 638 -550 
Q 638 -700 819 -813 
Q 1131 -1006 1722 -1006 
Q 2284 -1006 2551 -807 
Q 2819 -609 2819 -384 
Q 2819 -222 2659 -153 
Q 2497 -84 2016 -72 
Q 1313 -53 934 0 
z
" transform="scale(0.015625)"/>
       <path id="TimesNewRomanPSMT-61" d="M 1822 413 
Q 1381 72 1269 19 
Q 1100 -59 909 -59 
Q 613 -59 420 144 
Q 228 347 228 678 
Q 228 888 322 1041 
Q 450 1253 767 1440 
Q 1084 1628 1822 1897 
L 1822 2009 
Q 1822 2438 1686 2597 
Q 1550 2756 1291 2756 
Q 1094 2756 978 2650 
Q 859 2544 859 2406 
L 866 2225 
Q 866 2081 792 2003 
Q 719 1925 600 1925 
Q 484 1925 411 2006 
Q 338 2088 338 2228 
Q 338 2497 613 2722 
Q 888 2947 1384 2947 
Q 1766 2947 2009 2819 
Q 2194 2722 2281 2516 
Q 2338 2381 2338 1966 
L 2338 994 
Q 2338 584 2353 492 
Q 2369 400 2405 369 
Q 2441 338 2488 338 
Q 2538 338 2575 359 
Q 2641 400 2828 588 
L 2828 413 
Q 2478 -56 2159 -56 
Q 2006 -56 1915 50 
Q 1825 156 1822 413 
z
M 1822 616 
L 1822 1706 
Q 1350 1519 1213 1441 
Q 966 1303 859 1153 
Q 753 1003 753 825 
Q 753 600 887 451 
Q 1022 303 1197 303 
Q 1434 303 1822 616 
z
" transform="scale(0.015625)"/>
       <path id="TimesNewRomanPSMT-63" d="M 2631 1088 
Q 2516 522 2178 217 
Q 1841 -88 1431 -88 
Q 944 -88 581 321 
Q 219 731 219 1428 
Q 219 2103 620 2525 
Q 1022 2947 1584 2947 
Q 2006 2947 2278 2723 
Q 2550 2500 2550 2259 
Q 2550 2141 2473 2067 
Q 2397 1994 2259 1994 
Q 2075 1994 1981 2113 
Q 1928 2178 1911 2362 
Q 1894 2547 1784 2644 
Q 1675 2738 1481 2738 
Q 1169 2738 978 2506 
Q 725 2200 725 1697 
Q 725 1184 976 792 
Q 1228 400 1656 400 
Q 1963 400 2206 609 
Q 2378 753 2541 1131 
L 2631 1088 
z
" transform="scale(0.015625)"/>
       <path id="TimesNewRomanPSMT-79" d="M 38 2863 
L 1372 2863 
L 1372 2747 
L 1306 2747 
Q 1166 2747 1095 2686 
Q 1025 2625 1025 2534 
Q 1025 2413 1128 2197 
L 1825 753 
L 2466 2334 
Q 2519 2463 2519 2588 
Q 2519 2644 2497 2672 
Q 2472 2706 2419 2726 
Q 2366 2747 2231 2747 
L 2231 2863 
L 3163 2863 
L 3163 2747 
Q 3047 2734 2984 2696 
Q 2922 2659 2847 2556 
Q 2819 2513 2741 2316 
L 1575 -541 
Q 1406 -956 1132 -1168 
Q 859 -1381 606 -1381 
Q 422 -1381 303 -1275 
Q 184 -1169 184 -1031 
Q 184 -900 270 -820 
Q 356 -741 506 -741 
Q 609 -741 788 -809 
Q 913 -856 944 -856 
Q 1038 -856 1148 -759 
Q 1259 -663 1372 -384 
L 1575 113 
L 547 2272 
Q 500 2369 397 2513 
Q 319 2622 269 2659 
Q 197 2709 38 2747 
L 38 2863 
z
" transform="scale(0.015625)"/>
      </defs>
      <use xlink:href="#TimesNewRomanPSMT-4c"/>
      <use xlink:href="#TimesNewRomanPSMT-65" x="61.083984"/>
      <use xlink:href="#TimesNewRomanPSMT-67" x="105.46875"/>
      <use xlink:href="#TimesNewRomanPSMT-61" x="155.46875"/>
      <use xlink:href="#TimesNewRomanPSMT-63" x="199.853516"/>
      <use xlink:href="#TimesNewRomanPSMT-79" x="244.238281"/>
     </g>
    </g>
    <g id="line2d_34">
     <path d="M 788.4 92.469375 
L 800.4 92.469375 
L 812.4 92.469375 
" style="fill: none; stroke: #008000; stroke-width: 1.5; stroke-linecap: square"/>
    </g>
    <g id="text_20">
     <!-- Reprocessed -->
     <g transform="translate(822 96.669375) scale(0.12 -0.12)">
      <defs>
       <path id="TimesNewRomanPSMT-52" d="M 4325 0 
L 3194 0 
L 1759 1981 
Q 1600 1975 1500 1975 
Q 1459 1975 1412 1976 
Q 1366 1978 1316 1981 
L 1316 750 
Q 1316 350 1403 253 
Q 1522 116 1759 116 
L 1925 116 
L 1925 0 
L 109 0 
L 109 116 
L 269 116 
Q 538 116 653 291 
Q 719 388 719 750 
L 719 3488 
Q 719 3888 631 3984 
Q 509 4122 269 4122 
L 109 4122 
L 109 4238 
L 1653 4238 
Q 2328 4238 2648 4139 
Q 2969 4041 3192 3777 
Q 3416 3513 3416 3147 
Q 3416 2756 3161 2468 
Q 2906 2181 2372 2063 
L 3247 847 
Q 3547 428 3762 290 
Q 3978 153 4325 116 
L 4325 0 
z
M 1316 2178 
Q 1375 2178 1419 2176 
Q 1463 2175 1491 2175 
Q 2097 2175 2405 2437 
Q 2713 2700 2713 3106 
Q 2713 3503 2464 3751 
Q 2216 4000 1806 4000 
Q 1625 4000 1316 3941 
L 1316 2178 
z
" transform="scale(0.015625)"/>
       <path id="TimesNewRomanPSMT-70" d="M -6 2578 
L 875 2934 
L 994 2934 
L 994 2266 
Q 1216 2644 1439 2795 
Q 1663 2947 1909 2947 
Q 2341 2947 2628 2609 
Q 2981 2197 2981 1534 
Q 2981 794 2556 309 
Q 2206 -88 1675 -88 
Q 1444 -88 1275 -22 
Q 1150 25 994 166 
L 994 -706 
Q 994 -1000 1030 -1079 
Q 1066 -1159 1155 -1206 
Q 1244 -1253 1478 -1253 
L 1478 -1369 
L -22 -1369 
L -22 -1253 
L 56 -1253 
Q 228 -1256 350 -1188 
Q 409 -1153 442 -1076 
Q 475 -1000 475 -688 
L 475 2019 
Q 475 2297 450 2372 
Q 425 2447 370 2484 
Q 316 2522 222 2522 
Q 147 2522 31 2478 
L -6 2578 
z
M 994 2081 
L 994 1013 
Q 994 666 1022 556 
Q 1066 375 1236 237 
Q 1406 100 1666 100 
Q 1978 100 2172 344 
Q 2425 663 2425 1241 
Q 2425 1897 2138 2250 
Q 1938 2494 1663 2494 
Q 1513 2494 1366 2419 
Q 1253 2363 994 2081 
z
" transform="scale(0.015625)"/>
       <path id="TimesNewRomanPSMT-72" d="M 1038 2947 
L 1038 2303 
Q 1397 2947 1775 2947 
Q 1947 2947 2059 2842 
Q 2172 2738 2172 2600 
Q 2172 2478 2090 2393 
Q 2009 2309 1897 2309 
Q 1788 2309 1652 2417 
Q 1516 2525 1450 2525 
Q 1394 2525 1328 2463 
Q 1188 2334 1038 2041 
L 1038 669 
Q 1038 431 1097 309 
Q 1138 225 1241 169 
Q 1344 113 1538 113 
L 1538 0 
L 72 0 
L 72 113 
Q 291 113 397 181 
Q 475 231 506 341 
Q 522 394 522 644 
L 522 1753 
Q 522 2253 501 2348 
Q 481 2444 426 2487 
Q 372 2531 291 2531 
Q 194 2531 72 2484 
L 41 2597 
L 906 2947 
L 1038 2947 
z
" transform="scale(0.015625)"/>
       <path id="TimesNewRomanPSMT-6f" d="M 1600 2947 
Q 2250 2947 2644 2453 
Q 2978 2031 2978 1484 
Q 2978 1100 2793 706 
Q 2609 313 2286 112 
Q 1963 -88 1566 -88 
Q 919 -88 538 428 
Q 216 863 216 1403 
Q 216 1797 411 2186 
Q 606 2575 925 2761 
Q 1244 2947 1600 2947 
z
M 1503 2744 
Q 1338 2744 1170 2645 
Q 1003 2547 900 2300 
Q 797 2053 797 1666 
Q 797 1041 1045 587 
Q 1294 134 1700 134 
Q 2003 134 2200 384 
Q 2397 634 2397 1244 
Q 2397 2006 2069 2444 
Q 1847 2744 1503 2744 
z
" transform="scale(0.015625)"/>
       <path id="TimesNewRomanPSMT-73" d="M 2050 2947 
L 2050 1972 
L 1947 1972 
Q 1828 2431 1642 2597 
Q 1456 2763 1169 2763 
Q 950 2763 815 2647 
Q 681 2531 681 2391 
Q 681 2216 781 2091 
Q 878 1963 1175 1819 
L 1631 1597 
Q 2266 1288 2266 781 
Q 2266 391 1970 151 
Q 1675 -88 1309 -88 
Q 1047 -88 709 6 
Q 606 38 541 38 
Q 469 38 428 -44 
L 325 -44 
L 325 978 
L 428 978 
Q 516 541 762 319 
Q 1009 97 1316 97 
Q 1531 97 1667 223 
Q 1803 350 1803 528 
Q 1803 744 1651 891 
Q 1500 1038 1047 1263 
Q 594 1488 453 1669 
Q 313 1847 313 2119 
Q 313 2472 555 2709 
Q 797 2947 1181 2947 
Q 1350 2947 1591 2875 
Q 1750 2828 1803 2828 
Q 1853 2828 1881 2850 
Q 1909 2872 1947 2947 
L 2050 2947 
z
" transform="scale(0.015625)"/>
       <path id="TimesNewRomanPSMT-64" d="M 2222 322 
Q 2013 103 1813 7 
Q 1613 -88 1381 -88 
Q 913 -88 563 304 
Q 213 697 213 1313 
Q 213 1928 600 2439 
Q 988 2950 1597 2950 
Q 1975 2950 2222 2709 
L 2222 3238 
Q 2222 3728 2198 3840 
Q 2175 3953 2125 3993 
Q 2075 4034 2000 4034 
Q 1919 4034 1784 3984 
L 1744 4094 
L 2597 4444 
L 2738 4444 
L 2738 1134 
Q 2738 631 2761 520 
Q 2784 409 2836 365 
Q 2888 322 2956 322 
Q 3041 322 3181 375 
L 3216 266 
L 2366 -88 
L 2222 -88 
L 2222 322 
z
M 2222 541 
L 2222 2016 
Q 2203 2228 2109 2403 
Q 2016 2578 1861 2667 
Q 1706 2756 1559 2756 
Q 1284 2756 1069 2509 
Q 784 2184 784 1559 
Q 784 928 1059 592 
Q 1334 256 1672 256 
Q 1956 256 2222 541 
z
" transform="scale(0.015625)"/>
      </defs>
      <use xlink:href="#TimesNewRomanPSMT-52"/>
      <use xlink:href="#TimesNewRomanPSMT-65" x="66.699219"/>
      <use xlink:href="#TimesNewRomanPSMT-70" x="111.083984"/>
      <use xlink:href="#TimesNewRomanPSMT-72" x="161.083984"/>
      <use xlink:href="#TimesNewRomanPSMT-6f" x="194.384766"/>
      <use xlink:href="#TimesNewRomanPSMT-63" x="244.384766"/>
      <use xlink:href="#TimesNewRomanPSMT-65" x="288.769531"/>
      <use xlink:href="#TimesNewRomanPSMT-73" x="333.154297"/>
      <use xlink:href="#TimesNewRomanPSMT-73" x="372.070312"/>
      <use xlink:href="#TimesNewRomanPSMT-65" x="410.986328"/>
      <use xlink:href="#TimesNewRomanPSMT-64" x="455.371094"/>
     </g>
    </g>
   </g>
  </g>
 </g>
 <defs>
  <clipPath id="pcbe05f2471">
   <rect x="108" y="60.48" width="669.6" height="388.08"/>
  </clipPath>
 </defs>
</svg>
