<?xml version="1.0" encoding="utf-8" standalone="no"?>
<!DOCTYPE svg PUBLIC "-//W3C//DTD SVG 1.1//EN"
  "http://www.w3.org/Graphics/SVG/1.1/DTD/svg11.dtd">
<svg xmlns:xlink="http://www.w3.org/1999/xlink" width="864pt" height="576pt" viewBox="0 0 864 576" xmlns="http://www.w3.org/2000/svg" version="1.1">
 <metadata>
  <rdf:RDF xmlns:dc="http://purl.org/dc/elements/1.1/" xmlns:cc="http://creativecommons.org/ns#" xmlns:rdf="http://www.w3.org/1999/02/22-rdf-syntax-ns#">
   <cc:Work>
    <dc:type rdf:resource="http://purl.org/dc/dcmitype/StillImage"/>
    <dc:date>2023-08-30T15:04:18.551236</dc:date>
    <dc:format>image/svg+xml</dc:format>
    <dc:creator>
     <cc:Agent>
      <dc:title>Matplotlib v3.7.1, https://matplotlib.org/</dc:title>
     </cc:Agent>
    </dc:creator>
   </cc:Work>
  </rdf:RDF>
 </metadata>
 <defs>
  <style type="text/css">*{stroke-linejoin: round; stroke-linecap: butt}</style>
 </defs>
 <g id="figure_1">
  <g id="patch_1">
   <path d="M 0 576 
L 864 576 
L 864 0 
L 0 0 
z
" style="fill: #ffffff"/>
  </g>
  <g id="axes_1">
   <g id="patch_2">
    <path d="M 87.14 507.4 
L 853.2 507.4 
L 853.2 36.24 
L 87.14 36.24 
z
" style="fill: #ffffff"/>
   </g>
   <g id="matplotlib.axis_1">
    <g id="xtick_1">
     <g id="line2d_1">
      <path d="M 121.960909 507.4 
L 121.960909 36.24 
" clip-path="url(#p91ca631a40)" style="fill: none; stroke-dasharray: 1.85,0.8; stroke-dashoffset: 0; stroke: #808080; stroke-width: 0.5"/>
     </g>
     <g id="line2d_2">
      <defs>
       <path id="m75b708fe7a" d="M 0 0 
L 0 3.5 
" style="stroke: #000000; stroke-width: 0.8"/>
      </defs>
      <g>
       <use xlink:href="#m75b708fe7a" x="121.960909" y="507.4" style="stroke: #000000; stroke-width: 0.8"/>
      </g>
     </g>
     <g id="text_1">
      <!-- 0 -->
      <g transform="translate(113.959425 531.876406) scale(0.23 -0.23)">
       <defs>
        <path id="DejaVuSans-Bold-30" d="M 2944 2338 
Q 2944 3213 2780 3570 
Q 2616 3928 2228 3928 
Q 1841 3928 1675 3570 
Q 1509 3213 1509 2338 
Q 1509 1453 1675 1090 
Q 1841 728 2228 728 
Q 2613 728 2778 1090 
Q 2944 1453 2944 2338 
z
M 4147 2328 
Q 4147 1169 3647 539 
Q 3147 -91 2228 -91 
Q 1306 -91 806 539 
Q 306 1169 306 2328 
Q 306 3491 806 4120 
Q 1306 4750 2228 4750 
Q 3147 4750 3647 4120 
Q 4147 3491 4147 2328 
z
" transform="scale(0.015625)"/>
       </defs>
       <use xlink:href="#DejaVuSans-Bold-30"/>
      </g>
     </g>
    </g>
    <g id="xtick_2">
     <g id="line2d_3">
      <path d="M 233.387818 507.4 
L 233.387818 36.24 
" clip-path="url(#p91ca631a40)" style="fill: none; stroke-dasharray: 1.85,0.8; stroke-dashoffset: 0; stroke: #808080; stroke-width: 0.5"/>
     </g>
     <g id="line2d_4">
      <g>
       <use xlink:href="#m75b708fe7a" x="233.387818" y="507.4" style="stroke: #000000; stroke-width: 0.8"/>
      </g>
     </g>
     <g id="text_2">
      <!-- 20 -->
      <g transform="translate(217.384849 531.876406) scale(0.23 -0.23)">
       <defs>
        <path id="DejaVuSans-Bold-32" d="M 1844 884 
L 3897 884 
L 3897 0 
L 506 0 
L 506 884 
L 2209 2388 
Q 2438 2594 2547 2791 
Q 2656 2988 2656 3200 
Q 2656 3528 2436 3728 
Q 2216 3928 1850 3928 
Q 1569 3928 1234 3808 
Q 900 3688 519 3450 
L 519 4475 
Q 925 4609 1322 4679 
Q 1719 4750 2100 4750 
Q 2938 4750 3402 4381 
Q 3866 4013 3866 3353 
Q 3866 2972 3669 2642 
Q 3472 2313 2841 1759 
L 1844 884 
z
" transform="scale(0.015625)"/>
       </defs>
       <use xlink:href="#DejaVuSans-Bold-32"/>
       <use xlink:href="#DejaVuSans-Bold-30" x="69.580078"/>
      </g>
     </g>
    </g>
    <g id="xtick_3">
     <g id="line2d_5">
      <path d="M 344.814727 507.4 
L 344.814727 36.24 
" clip-path="url(#p91ca631a40)" style="fill: none; stroke-dasharray: 1.85,0.8; stroke-dashoffset: 0; stroke: #808080; stroke-width: 0.5"/>
     </g>
     <g id="line2d_6">
      <g>
       <use xlink:href="#m75b708fe7a" x="344.814727" y="507.4" style="stroke: #000000; stroke-width: 0.8"/>
      </g>
     </g>
     <g id="text_3">
      <!-- 40 -->
      <g transform="translate(328.811759 531.876406) scale(0.23 -0.23)">
       <defs>
        <path id="DejaVuSans-Bold-34" d="M 2356 3675 
L 1038 1722 
L 2356 1722 
L 2356 3675 
z
M 2156 4666 
L 3494 4666 
L 3494 1722 
L 4159 1722 
L 4159 850 
L 3494 850 
L 3494 0 
L 2356 0 
L 2356 850 
L 288 850 
L 288 1881 
L 2156 4666 
z
" transform="scale(0.015625)"/>
       </defs>
       <use xlink:href="#DejaVuSans-Bold-34"/>
       <use xlink:href="#DejaVuSans-Bold-30" x="69.580078"/>
      </g>
     </g>
    </g>
    <g id="xtick_4">
     <g id="line2d_7">
      <path d="M 456.241636 507.4 
L 456.241636 36.24 
" clip-path="url(#p91ca631a40)" style="fill: none; stroke-dasharray: 1.85,0.8; stroke-dashoffset: 0; stroke: #808080; stroke-width: 0.5"/>
     </g>
     <g id="line2d_8">
      <g>
       <use xlink:href="#m75b708fe7a" x="456.241636" y="507.4" style="stroke: #000000; stroke-width: 0.8"/>
      </g>
     </g>
     <g id="text_4">
      <!-- 60 -->
      <g transform="translate(440.238668 531.876406) scale(0.23 -0.23)">
       <defs>
        <path id="DejaVuSans-Bold-36" d="M 2316 2303 
Q 2000 2303 1842 2098 
Q 1684 1894 1684 1484 
Q 1684 1075 1842 870 
Q 2000 666 2316 666 
Q 2634 666 2792 870 
Q 2950 1075 2950 1484 
Q 2950 1894 2792 2098 
Q 2634 2303 2316 2303 
z
M 3803 4544 
L 3803 3681 
Q 3506 3822 3243 3889 
Q 2981 3956 2731 3956 
Q 2194 3956 1894 3657 
Q 1594 3359 1544 2772 
Q 1750 2925 1990 3001 
Q 2231 3078 2516 3078 
Q 3231 3078 3670 2659 
Q 4109 2241 4109 1563 
Q 4109 813 3618 361 
Q 3128 -91 2303 -91 
Q 1394 -91 895 523 
Q 397 1138 397 2266 
Q 397 3422 980 4083 
Q 1563 4744 2578 4744 
Q 2900 4744 3203 4694 
Q 3506 4644 3803 4544 
z
" transform="scale(0.015625)"/>
       </defs>
       <use xlink:href="#DejaVuSans-Bold-36"/>
       <use xlink:href="#DejaVuSans-Bold-30" x="69.580078"/>
      </g>
     </g>
    </g>
    <g id="xtick_5">
     <g id="line2d_9">
      <path d="M 567.668545 507.4 
L 567.668545 36.24 
" clip-path="url(#p91ca631a40)" style="fill: none; stroke-dasharray: 1.85,0.8; stroke-dashoffset: 0; stroke: #808080; stroke-width: 0.5"/>
     </g>
     <g id="line2d_10">
      <g>
       <use xlink:href="#m75b708fe7a" x="567.668545" y="507.4" style="stroke: #000000; stroke-width: 0.8"/>
      </g>
     </g>
     <g id="text_5">
      <!-- 80 -->
      <g transform="translate(551.665577 531.876406) scale(0.23 -0.23)">
       <defs>
        <path id="DejaVuSans-Bold-38" d="M 2228 2088 
Q 1891 2088 1709 1903 
Q 1528 1719 1528 1375 
Q 1528 1031 1709 848 
Q 1891 666 2228 666 
Q 2563 666 2741 848 
Q 2919 1031 2919 1375 
Q 2919 1722 2741 1905 
Q 2563 2088 2228 2088 
z
M 1350 2484 
Q 925 2613 709 2878 
Q 494 3144 494 3541 
Q 494 4131 934 4440 
Q 1375 4750 2228 4750 
Q 3075 4750 3515 4442 
Q 3956 4134 3956 3541 
Q 3956 3144 3739 2878 
Q 3522 2613 3097 2484 
Q 3572 2353 3814 2058 
Q 4056 1763 4056 1313 
Q 4056 619 3595 264 
Q 3134 -91 2228 -91 
Q 1319 -91 855 264 
Q 391 619 391 1313 
Q 391 1763 633 2058 
Q 875 2353 1350 2484 
z
M 1631 3419 
Q 1631 3141 1786 2991 
Q 1941 2841 2228 2841 
Q 2509 2841 2662 2991 
Q 2816 3141 2816 3419 
Q 2816 3697 2662 3845 
Q 2509 3994 2228 3994 
Q 1941 3994 1786 3844 
Q 1631 3694 1631 3419 
z
" transform="scale(0.015625)"/>
       </defs>
       <use xlink:href="#DejaVuSans-Bold-38"/>
       <use xlink:href="#DejaVuSans-Bold-30" x="69.580078"/>
      </g>
     </g>
    </g>
    <g id="xtick_6">
     <g id="line2d_11">
      <path d="M 679.095455 507.4 
L 679.095455 36.24 
" clip-path="url(#p91ca631a40)" style="fill: none; stroke-dasharray: 1.85,0.8; stroke-dashoffset: 0; stroke: #808080; stroke-width: 0.5"/>
     </g>
     <g id="line2d_12">
      <g>
       <use xlink:href="#m75b708fe7a" x="679.095455" y="507.4" style="stroke: #000000; stroke-width: 0.8"/>
      </g>
     </g>
     <g id="text_6">
      <!-- 100 -->
      <g transform="translate(655.091001 531.876406) scale(0.23 -0.23)">
       <defs>
        <path id="DejaVuSans-Bold-31" d="M 750 831 
L 1813 831 
L 1813 3847 
L 722 3622 
L 722 4441 
L 1806 4666 
L 2950 4666 
L 2950 831 
L 4013 831 
L 4013 0 
L 750 0 
L 750 831 
z
" transform="scale(0.015625)"/>
       </defs>
       <use xlink:href="#DejaVuSans-Bold-31"/>
       <use xlink:href="#DejaVuSans-Bold-30" x="69.580078"/>
       <use xlink:href="#DejaVuSans-Bold-30" x="139.160156"/>
      </g>
     </g>
    </g>
    <g id="xtick_7">
     <g id="line2d_13">
      <path d="M 790.522364 507.4 
L 790.522364 36.24 
" clip-path="url(#p91ca631a40)" style="fill: none; stroke-dasharray: 1.85,0.8; stroke-dashoffset: 0; stroke: #808080; stroke-width: 0.5"/>
     </g>
     <g id="line2d_14">
      <g>
       <use xlink:href="#m75b708fe7a" x="790.522364" y="507.4" style="stroke: #000000; stroke-width: 0.8"/>
      </g>
     </g>
     <g id="text_7">
      <!-- 120 -->
      <g transform="translate(766.517911 531.876406) scale(0.23 -0.23)">
       <use xlink:href="#DejaVuSans-Bold-31"/>
       <use xlink:href="#DejaVuSans-Bold-32" x="69.580078"/>
       <use xlink:href="#DejaVuSans-Bold-30" x="139.160156"/>
      </g>
     </g>
    </g>
    <g id="text_8">
     <!-- Frequency (Hz) -->
     <g transform="translate(363.490313 559.628437) scale(0.25 -0.25)">
      <defs>
       <path id="DejaVuSans-Bold-46" d="M 588 4666 
L 3834 4666 
L 3834 3756 
L 1791 3756 
L 1791 2888 
L 3713 2888 
L 3713 1978 
L 1791 1978 
L 1791 0 
L 588 0 
L 588 4666 
z
" transform="scale(0.015625)"/>
       <path id="DejaVuSans-Bold-72" d="M 3138 2547 
Q 2991 2616 2845 2648 
Q 2700 2681 2553 2681 
Q 2122 2681 1889 2404 
Q 1656 2128 1656 1613 
L 1656 0 
L 538 0 
L 538 3500 
L 1656 3500 
L 1656 2925 
Q 1872 3269 2151 3426 
Q 2431 3584 2822 3584 
Q 2878 3584 2943 3579 
Q 3009 3575 3134 3559 
L 3138 2547 
z
" transform="scale(0.015625)"/>
       <path id="DejaVuSans-Bold-65" d="M 4031 1759 
L 4031 1441 
L 1416 1441 
Q 1456 1047 1700 850 
Q 1944 653 2381 653 
Q 2734 653 3104 758 
Q 3475 863 3866 1075 
L 3866 213 
Q 3469 63 3072 -14 
Q 2675 -91 2278 -91 
Q 1328 -91 801 392 
Q 275 875 275 1747 
Q 275 2603 792 3093 
Q 1309 3584 2216 3584 
Q 3041 3584 3536 3087 
Q 4031 2591 4031 1759 
z
M 2881 2131 
Q 2881 2450 2695 2645 
Q 2509 2841 2209 2841 
Q 1884 2841 1681 2658 
Q 1478 2475 1428 2131 
L 2881 2131 
z
" transform="scale(0.015625)"/>
       <path id="DejaVuSans-Bold-71" d="M 2181 2772 
Q 1825 2772 1636 2509 
Q 1447 2247 1447 1747 
Q 1447 1247 1636 984 
Q 1825 722 2181 722 
Q 2541 722 2730 984 
Q 2919 1247 2919 1747 
Q 2919 2247 2730 2509 
Q 2541 2772 2181 2772 
z
M 2919 506 
Q 2688 197 2409 53 
Q 2131 -91 1766 -91 
Q 1119 -91 703 423 
Q 288 938 288 1747 
Q 288 2556 703 3067 
Q 1119 3578 1766 3578 
Q 2131 3578 2409 3434 
Q 2688 3291 2919 2981 
L 2919 3500 
L 4044 3500 
L 4044 -1331 
L 2919 -1331 
L 2919 506 
z
" transform="scale(0.015625)"/>
       <path id="DejaVuSans-Bold-75" d="M 500 1363 
L 500 3500 
L 1625 3500 
L 1625 3150 
Q 1625 2866 1622 2436 
Q 1619 2006 1619 1863 
Q 1619 1441 1641 1255 
Q 1663 1069 1716 984 
Q 1784 875 1895 815 
Q 2006 756 2150 756 
Q 2500 756 2700 1025 
Q 2900 1294 2900 1772 
L 2900 3500 
L 4019 3500 
L 4019 0 
L 2900 0 
L 2900 506 
Q 2647 200 2364 54 
Q 2081 -91 1741 -91 
Q 1134 -91 817 281 
Q 500 653 500 1363 
z
" transform="scale(0.015625)"/>
       <path id="DejaVuSans-Bold-6e" d="M 4056 2131 
L 4056 0 
L 2931 0 
L 2931 347 
L 2931 1631 
Q 2931 2084 2911 2256 
Q 2891 2428 2841 2509 
Q 2775 2619 2662 2680 
Q 2550 2741 2406 2741 
Q 2056 2741 1856 2470 
Q 1656 2200 1656 1722 
L 1656 0 
L 538 0 
L 538 3500 
L 1656 3500 
L 1656 2988 
Q 1909 3294 2193 3439 
Q 2478 3584 2822 3584 
Q 3428 3584 3742 3212 
Q 4056 2841 4056 2131 
z
" transform="scale(0.015625)"/>
       <path id="DejaVuSans-Bold-63" d="M 3366 3391 
L 3366 2478 
Q 3138 2634 2908 2709 
Q 2678 2784 2431 2784 
Q 1963 2784 1702 2511 
Q 1441 2238 1441 1747 
Q 1441 1256 1702 982 
Q 1963 709 2431 709 
Q 2694 709 2930 787 
Q 3166 866 3366 1019 
L 3366 103 
Q 3103 6 2833 -42 
Q 2563 -91 2291 -91 
Q 1344 -91 809 395 
Q 275 881 275 1747 
Q 275 2613 809 3098 
Q 1344 3584 2291 3584 
Q 2566 3584 2833 3536 
Q 3100 3488 3366 3391 
z
" transform="scale(0.015625)"/>
       <path id="DejaVuSans-Bold-79" d="M 78 3500 
L 1197 3500 
L 2138 1125 
L 2938 3500 
L 4056 3500 
L 2584 -331 
Q 2363 -916 2067 -1148 
Q 1772 -1381 1288 -1381 
L 641 -1381 
L 641 -647 
L 991 -647 
Q 1275 -647 1404 -556 
Q 1534 -466 1606 -231 
L 1638 -134 
L 78 3500 
z
" transform="scale(0.015625)"/>
       <path id="DejaVuSans-Bold-20" transform="scale(0.015625)"/>
       <path id="DejaVuSans-Bold-28" d="M 2413 -844 
L 1484 -844 
Q 1006 -72 778 623 
Q 550 1319 550 2003 
Q 550 2688 779 3389 
Q 1009 4091 1484 4856 
L 2413 4856 
Q 2013 4116 1813 3408 
Q 1613 2700 1613 2009 
Q 1613 1319 1811 609 
Q 2009 -100 2413 -844 
z
" transform="scale(0.015625)"/>
       <path id="DejaVuSans-Bold-48" d="M 588 4666 
L 1791 4666 
L 1791 2888 
L 3566 2888 
L 3566 4666 
L 4769 4666 
L 4769 0 
L 3566 0 
L 3566 1978 
L 1791 1978 
L 1791 0 
L 588 0 
L 588 4666 
z
" transform="scale(0.015625)"/>
       <path id="DejaVuSans-Bold-7a" d="M 366 3500 
L 3419 3500 
L 3419 2719 
L 1575 800 
L 3419 800 
L 3419 0 
L 288 0 
L 288 781 
L 2131 2700 
L 366 2700 
L 366 3500 
z
" transform="scale(0.015625)"/>
       <path id="DejaVuSans-Bold-29" d="M 513 -844 
Q 913 -100 1113 609 
Q 1313 1319 1313 2009 
Q 1313 2700 1113 3408 
Q 913 4116 513 4856 
L 1441 4856 
Q 1916 4091 2145 3389 
Q 2375 2688 2375 2003 
Q 2375 1319 2147 623 
Q 1919 -72 1441 -844 
L 513 -844 
z
" transform="scale(0.015625)"/>
      </defs>
      <use xlink:href="#DejaVuSans-Bold-46"/>
      <use xlink:href="#DejaVuSans-Bold-72" x="61.935547"/>
      <use xlink:href="#DejaVuSans-Bold-65" x="111.251953"/>
      <use xlink:href="#DejaVuSans-Bold-71" x="179.074219"/>
      <use xlink:href="#DejaVuSans-Bold-75" x="250.65625"/>
      <use xlink:href="#DejaVuSans-Bold-65" x="321.847656"/>
      <use xlink:href="#DejaVuSans-Bold-6e" x="389.669922"/>
      <use xlink:href="#DejaVuSans-Bold-63" x="460.861328"/>
      <use xlink:href="#DejaVuSans-Bold-79" x="520.138672"/>
      <use xlink:href="#DejaVuSans-Bold-20" x="585.324219"/>
      <use xlink:href="#DejaVuSans-Bold-28" x="620.138672"/>
      <use xlink:href="#DejaVuSans-Bold-48" x="665.841797"/>
      <use xlink:href="#DejaVuSans-Bold-7a" x="749.533203"/>
      <use xlink:href="#DejaVuSans-Bold-29" x="807.736328"/>
     </g>
    </g>
   </g>
   <g id="matplotlib.axis_2">
    <g id="ytick_1">
     <g id="line2d_15">
      <path d="M 87.14 486.881674 
L 853.2 486.881674 
" clip-path="url(#p91ca631a40)" style="fill: none; stroke-dasharray: 1.85,0.8; stroke-dashoffset: 0; stroke: #808080; stroke-width: 0.5"/>
     </g>
     <g id="line2d_16">
      <defs>
       <path id="m1be11c335e" d="M 0 0 
L -3.5 0 
" style="stroke: #000000; stroke-width: 0.8"/>
      </defs>
      <g>
       <use xlink:href="#m1be11c335e" x="87.14" y="486.881674" style="stroke: #000000; stroke-width: 0.8"/>
      </g>
     </g>
     <g id="text_9">
      <!-- 0.0 -->
      <g transform="translate(39.397656 495.619877) scale(0.23 -0.23)">
       <defs>
        <path id="DejaVuSans-Bold-2e" d="M 653 1209 
L 1778 1209 
L 1778 0 
L 653 0 
L 653 1209 
z
" transform="scale(0.015625)"/>
       </defs>
       <use xlink:href="#DejaVuSans-Bold-30"/>
       <use xlink:href="#DejaVuSans-Bold-2e" x="69.580078"/>
       <use xlink:href="#DejaVuSans-Bold-30" x="107.568359"/>
      </g>
     </g>
    </g>
    <g id="ytick_2">
     <g id="line2d_17">
      <path d="M 87.14 401.036603 
L 853.2 401.036603 
" clip-path="url(#p91ca631a40)" style="fill: none; stroke-dasharray: 1.85,0.8; stroke-dashoffset: 0; stroke: #808080; stroke-width: 0.5"/>
     </g>
     <g id="line2d_18">
      <g>
       <use xlink:href="#m1be11c335e" x="87.14" y="401.036603" style="stroke: #000000; stroke-width: 0.8"/>
      </g>
     </g>
     <g id="text_10">
      <!-- 0.2 -->
      <g transform="translate(39.397656 409.774807) scale(0.23 -0.23)">
       <use xlink:href="#DejaVuSans-Bold-30"/>
       <use xlink:href="#DejaVuSans-Bold-2e" x="69.580078"/>
       <use xlink:href="#DejaVuSans-Bold-32" x="107.568359"/>
      </g>
     </g>
    </g>
    <g id="ytick_3">
     <g id="line2d_19">
      <path d="M 87.14 315.191533 
L 853.2 315.191533 
" clip-path="url(#p91ca631a40)" style="fill: none; stroke-dasharray: 1.85,0.8; stroke-dashoffset: 0; stroke: #808080; stroke-width: 0.5"/>
     </g>
     <g id="line2d_20">
      <g>
       <use xlink:href="#m1be11c335e" x="87.14" y="315.191533" style="stroke: #000000; stroke-width: 0.8"/>
      </g>
     </g>
     <g id="text_11">
      <!-- 0.4 -->
      <g transform="translate(39.397656 323.929736) scale(0.23 -0.23)">
       <use xlink:href="#DejaVuSans-Bold-30"/>
       <use xlink:href="#DejaVuSans-Bold-2e" x="69.580078"/>
       <use xlink:href="#DejaVuSans-Bold-34" x="107.568359"/>
      </g>
     </g>
    </g>
    <g id="ytick_4">
     <g id="line2d_21">
      <path d="M 87.14 229.346462 
L 853.2 229.346462 
" clip-path="url(#p91ca631a40)" style="fill: none; stroke-dasharray: 1.85,0.8; stroke-dashoffset: 0; stroke: #808080; stroke-width: 0.5"/>
     </g>
     <g id="line2d_22">
      <g>
       <use xlink:href="#m1be11c335e" x="87.14" y="229.346462" style="stroke: #000000; stroke-width: 0.8"/>
      </g>
     </g>
     <g id="text_12">
      <!-- 0.6 -->
      <g transform="translate(39.397656 238.084665) scale(0.23 -0.23)">
       <use xlink:href="#DejaVuSans-Bold-30"/>
       <use xlink:href="#DejaVuSans-Bold-2e" x="69.580078"/>
       <use xlink:href="#DejaVuSans-Bold-36" x="107.568359"/>
      </g>
     </g>
    </g>
    <g id="ytick_5">
     <g id="line2d_23">
      <path d="M 87.14 143.501391 
L 853.2 143.501391 
" clip-path="url(#p91ca631a40)" style="fill: none; stroke-dasharray: 1.85,0.8; stroke-dashoffset: 0; stroke: #808080; stroke-width: 0.5"/>
     </g>
     <g id="line2d_24">
      <g>
       <use xlink:href="#m1be11c335e" x="87.14" y="143.501391" style="stroke: #000000; stroke-width: 0.8"/>
      </g>
     </g>
     <g id="text_13">
      <!-- 0.8 -->
      <g transform="translate(39.397656 152.239595) scale(0.23 -0.23)">
       <use xlink:href="#DejaVuSans-Bold-30"/>
       <use xlink:href="#DejaVuSans-Bold-2e" x="69.580078"/>
       <use xlink:href="#DejaVuSans-Bold-38" x="107.568359"/>
      </g>
     </g>
    </g>
    <g id="ytick_6">
     <g id="line2d_25">
      <path d="M 87.14 57.656321 
L 853.2 57.656321 
" clip-path="url(#p91ca631a40)" style="fill: none; stroke-dasharray: 1.85,0.8; stroke-dashoffset: 0; stroke: #808080; stroke-width: 0.5"/>
     </g>
     <g id="line2d_26">
      <g>
       <use xlink:href="#m1be11c335e" x="87.14" y="57.656321" style="stroke: #000000; stroke-width: 0.8"/>
      </g>
     </g>
     <g id="text_14">
      <!-- 1.0 -->
      <g transform="translate(39.397656 66.394524) scale(0.23 -0.23)">
       <use xlink:href="#DejaVuSans-Bold-31"/>
       <use xlink:href="#DejaVuSans-Bold-2e" x="69.580078"/>
       <use xlink:href="#DejaVuSans-Bold-30" x="107.568359"/>
      </g>
     </g>
    </g>
    <g id="text_15">
     <!-- Amplitude (m) -->
     <g transform="translate(30.198438 373.138359) rotate(-90) scale(0.25 -0.25)">
      <defs>
       <path id="DejaVuSans-Bold-41" d="M 3419 850 
L 1538 850 
L 1241 0 
L 31 0 
L 1759 4666 
L 3194 4666 
L 4922 0 
L 3713 0 
L 3419 850 
z
M 1838 1716 
L 3116 1716 
L 2478 3572 
L 1838 1716 
z
" transform="scale(0.015625)"/>
       <path id="DejaVuSans-Bold-6d" d="M 3781 2919 
Q 3994 3244 4286 3414 
Q 4578 3584 4928 3584 
Q 5531 3584 5847 3212 
Q 6163 2841 6163 2131 
L 6163 0 
L 5038 0 
L 5038 1825 
Q 5041 1866 5042 1909 
Q 5044 1953 5044 2034 
Q 5044 2406 4934 2573 
Q 4825 2741 4581 2741 
Q 4263 2741 4089 2478 
Q 3916 2216 3909 1719 
L 3909 0 
L 2784 0 
L 2784 1825 
Q 2784 2406 2684 2573 
Q 2584 2741 2328 2741 
Q 2006 2741 1831 2477 
Q 1656 2213 1656 1722 
L 1656 0 
L 531 0 
L 531 3500 
L 1656 3500 
L 1656 2988 
Q 1863 3284 2130 3434 
Q 2397 3584 2719 3584 
Q 3081 3584 3359 3409 
Q 3638 3234 3781 2919 
z
" transform="scale(0.015625)"/>
       <path id="DejaVuSans-Bold-70" d="M 1656 506 
L 1656 -1331 
L 538 -1331 
L 538 3500 
L 1656 3500 
L 1656 2988 
Q 1888 3294 2169 3439 
Q 2450 3584 2816 3584 
Q 3463 3584 3878 3070 
Q 4294 2556 4294 1747 
Q 4294 938 3878 423 
Q 3463 -91 2816 -91 
Q 2450 -91 2169 54 
Q 1888 200 1656 506 
z
M 2400 2772 
Q 2041 2772 1848 2508 
Q 1656 2244 1656 1747 
Q 1656 1250 1848 986 
Q 2041 722 2400 722 
Q 2759 722 2948 984 
Q 3138 1247 3138 1747 
Q 3138 2247 2948 2509 
Q 2759 2772 2400 2772 
z
" transform="scale(0.015625)"/>
       <path id="DejaVuSans-Bold-6c" d="M 538 4863 
L 1656 4863 
L 1656 0 
L 538 0 
L 538 4863 
z
" transform="scale(0.015625)"/>
       <path id="DejaVuSans-Bold-69" d="M 538 3500 
L 1656 3500 
L 1656 0 
L 538 0 
L 538 3500 
z
M 538 4863 
L 1656 4863 
L 1656 3950 
L 538 3950 
L 538 4863 
z
" transform="scale(0.015625)"/>
       <path id="DejaVuSans-Bold-74" d="M 1759 4494 
L 1759 3500 
L 2913 3500 
L 2913 2700 
L 1759 2700 
L 1759 1216 
Q 1759 972 1856 886 
Q 1953 800 2241 800 
L 2816 800 
L 2816 0 
L 1856 0 
Q 1194 0 917 276 
Q 641 553 641 1216 
L 641 2700 
L 84 2700 
L 84 3500 
L 641 3500 
L 641 4494 
L 1759 4494 
z
" transform="scale(0.015625)"/>
       <path id="DejaVuSans-Bold-64" d="M 2919 2988 
L 2919 4863 
L 4044 4863 
L 4044 0 
L 2919 0 
L 2919 506 
Q 2688 197 2409 53 
Q 2131 -91 1766 -91 
Q 1119 -91 703 423 
Q 288 938 288 1747 
Q 288 2556 703 3070 
Q 1119 3584 1766 3584 
Q 2128 3584 2408 3439 
Q 2688 3294 2919 2988 
z
M 2181 722 
Q 2541 722 2730 984 
Q 2919 1247 2919 1747 
Q 2919 2247 2730 2509 
Q 2541 2772 2181 2772 
Q 1825 2772 1636 2509 
Q 1447 2247 1447 1747 
Q 1447 1247 1636 984 
Q 1825 722 2181 722 
z
" transform="scale(0.015625)"/>
      </defs>
      <use xlink:href="#DejaVuSans-Bold-41"/>
      <use xlink:href="#DejaVuSans-Bold-6d" x="77.392578"/>
      <use xlink:href="#DejaVuSans-Bold-70" x="181.591797"/>
      <use xlink:href="#DejaVuSans-Bold-6c" x="253.173828"/>
      <use xlink:href="#DejaVuSans-Bold-69" x="287.451172"/>
      <use xlink:href="#DejaVuSans-Bold-74" x="321.728516"/>
      <use xlink:href="#DejaVuSans-Bold-75" x="369.53125"/>
      <use xlink:href="#DejaVuSans-Bold-64" x="440.722656"/>
      <use xlink:href="#DejaVuSans-Bold-65" x="512.304688"/>
      <use xlink:href="#DejaVuSans-Bold-20" x="580.126953"/>
      <use xlink:href="#DejaVuSans-Bold-28" x="614.941406"/>
      <use xlink:href="#DejaVuSans-Bold-6d" x="660.644531"/>
      <use xlink:href="#DejaVuSans-Bold-29" x="764.84375"/>
     </g>
    </g>
   </g>
   <g id="line2d_27">
    <path d="M 121.960909 479.035675 
L 122.300957 485.724405 
L 126.041485 485.853269 
L 128.761867 485.896013 
L 131.482249 485.713669 
L 136.923019 485.30701 
L 140.323495 485.359582 
L 143.723977 485.367774 
L 146.444359 485.096617 
L 152.90527 484.23824 
L 157.325893 483.90965 
L 160.046281 483.279007 
L 162.766663 482.094798 
L 163.786805 481.54924 
L 165.146998 480.761753 
L 167.527333 479.298387 
L 167.867381 479.011986 
L 168.207428 478.927738 
L 168.547475 478.412551 
L 168.887527 477.526227 
L 169.227574 477.929467 
L 169.907669 477.449953 
L 170.247716 476.537249 
L 170.587763 476.902738 
L 170.92781 476.088365 
L 171.267862 475.77785 
L 172.628051 473.433885 
L 172.968098 472.889473 
L 173.648197 471.626812 
L 173.988244 471.140019 
L 174.328292 470.291719 
L 175.008386 467.788305 
L 175.348438 467.750315 
L 175.688485 466.192493 
L 176.028532 465.460608 
L 176.36858 463.600195 
L 176.708627 462.998022 
L 177.388721 459.455659 
L 177.728796 458.689895 
L 178.40889 454.959635 
L 178.748909 452.344644 
L 179.088984 450.722288 
L 179.429003 448.054339 
L 179.769078 446.823265 
L 180.109097 444.94573 
L 180.449172 440.129418 
L 180.789191 437.444485 
L 181.129266 436.251239 
L 181.469286 433.571971 
L 181.809361 429.142022 
L 182.14938 428.382121 
L 182.489455 422.525299 
L 182.829474 419.263443 
L 183.509568 415.681772 
L 183.849643 411.995242 
L 184.189662 405.416161 
L 184.529737 403.541691 
L 184.869756 402.653452 
L 186.570019 385.959591 
L 186.910039 386.345164 
L 187.590189 377.105874 
L 187.930208 376.611535 
L 188.270283 374.646541 
L 188.610302 369.942274 
L 188.950377 369.329598 
L 189.290396 367.030667 
L 189.630471 363.206441 
L 189.97049 363.988532 
L 190.650584 359.292893 
L 190.990659 362.94178 
L 191.330678 362.281417 
L 191.670753 360.606408 
L 192.350848 363.618583 
L 192.690867 363.395386 
L 193.370961 366.623418 
L 193.711036 363.790187 
L 194.39113 369.210445 
L 194.731149 365.605596 
L 195.411243 367.830743 
L 195.751318 367.179265 
L 196.091337 365.402057 
L 196.431412 364.726413 
L 196.771432 365.522369 
L 197.111507 364.541761 
L 197.451526 362.663385 
L 197.791601 363.539348 
L 198.471695 363.660604 
L 198.81177 359.658721 
L 199.151789 361.791242 
L 199.491864 361.488166 
L 199.831883 361.008206 
L 200.171958 360.028156 
L 200.511977 357.342192 
L 201.192071 359.740017 
L 201.532146 357.913577 
L 201.872165 358.398344 
L 202.21224 357.353395 
L 202.55226 358.387356 
L 202.892335 357.938944 
L 203.232354 356.673545 
L 203.572429 358.58965 
L 203.912448 355.951545 
L 204.252523 351.776813 
L 204.932617 353.7276 
L 205.272636 350.492485 
L 205.95273 348.497017 
L 206.292805 348.947231 
L 206.632824 344.015861 
L 207.312919 348.305324 
L 207.652994 343.691624 
L 207.993013 344.831046 
L 208.333088 342.213672 
L 208.673107 342.663543 
L 209.013182 340.043209 
L 209.353257 339.56621 
L 209.693276 341.672548 
L 210.033351 338.781114 
L 210.37337 334.639991 
L 210.713445 335.827658 
L 211.053464 333.892581 
L 211.393539 333.277243 
L 211.733558 331.493469 
L 212.413653 330.330139 
L 212.753727 325.086164 
L 213.093747 325.765027 
L 213.433822 321.974538 
L 213.773841 320.490964 
L 214.113916 316.861134 
L 214.453935 317.180563 
L 214.79401 315.411854 
L 215.134029 312.5821 
L 215.474104 311.125352 
L 215.814123 306.410698 
L 216.154198 306.42967 
L 216.834292 307.926207 
L 217.174311 301.667801 
L 217.514386 298.619786 
L 217.854406 300.527306 
L 218.194481 295.45412 
L 218.5345 295.280885 
L 218.874575 294.890461 
L 219.554669 290.37265 
L 219.894688 285.441408 
L 220.234763 285.610738 
L 220.574838 281.523826 
L 220.914857 282.56444 
L 221.254932 278.430055 
L 221.594951 279.608236 
L 221.935026 275.92883 
L 222.275045 276.293157 
L 222.61512 271.462526 
L 222.95514 269.102087 
L 223.295214 268.531646 
L 223.635234 270.178369 
L 223.975309 269.298415 
L 224.315328 265.102222 
L 224.655403 262.378916 
L 224.995422 257.32204 
L 225.335497 261.753277 
L 225.675516 256.876547 
L 226.015591 254.52568 
L 226.35561 254.903656 
L 227.035704 248.298264 
L 227.375779 247.741043 
L 227.715799 245.268405 
L 228.055873 243.932055 
L 228.395893 241.47122 
L 229.075987 234.725514 
L 229.416062 233.724861 
L 229.756081 232.058222 
L 230.096156 231.189341 
L 230.436175 229.22967 
L 230.77625 224.365173 
L 231.116325 224.064715 
L 231.796419 223.278975 
L 232.136438 218.160849 
L 232.476513 218.18686 
L 232.816532 219.312032 
L 233.156607 218.702961 
L 233.496627 216.833727 
L 233.836701 217.666768 
L 234.176721 214.72211 
L 234.516796 215.394449 
L 234.856815 207.425151 
L 235.19689 210.465998 
L 235.536909 210.115492 
L 235.876984 206.908063 
L 236.217003 205.169614 
L 236.557078 205.735763 
L 236.897097 205.984413 
L 237.237172 206.468794 
L 237.577191 203.864941 
L 237.917266 203.167879 
L 238.59736 201.164556 
L 238.93738 201.409257 
L 239.277455 200.514064 
L 239.617474 199.294206 
L 239.957549 196.199491 
L 240.637643 192.011711 
L 240.977662 195.094966 
L 241.317737 190.492082 
L 241.657812 190.844905 
L 241.997831 186.882382 
L 242.337906 184.504216 
L 242.677925 183.909224 
L 243.018 185.040619 
L 243.358019 179.511295 
L 243.698094 177.999049 
L 244.038114 178.234436 
L 244.378189 174.935066 
L 244.718208 175.199984 
L 245.058283 169.534768 
L 245.398302 175.038338 
L 246.078396 166.442285 
L 246.418471 165.377334 
L 246.75849 166.256044 
L 247.098565 166.156034 
L 247.778659 161.990145 
L 248.118678 162.077492 
L 248.458753 163.879552 
L 248.798773 161.817725 
L 249.138847 162.352969 
L 249.478867 158.817397 
L 249.818942 160.110481 
L 250.158961 164.932699 
L 250.499036 158.884613 
L 250.839055 159.831785 
L 251.17913 156.780808 
L 251.519149 161.110877 
L 251.859224 159.248983 
L 252.199243 156.430904 
L 252.539318 160.593875 
L 252.879393 156.315571 
L 253.219412 153.786146 
L 253.559487 152.721925 
L 253.899506 154.227733 
L 254.239581 156.650925 
L 254.579601 151.083185 
L 254.919676 153.515691 
L 255.259695 151.21088 
L 255.59977 144.888691 
L 255.939789 142.479062 
L 256.619883 147.72175 
L 256.959958 142.835706 
L 257.299977 142.540055 
L 257.640052 145.680912 
L 258.320146 139.715452 
L 258.660165 134.942123 
L 259.00024 138.807125 
L 259.680335 129.742058 
L 260.020354 134.683772 
L 260.360429 133.121778 
L 260.700448 128.895024 
L 261.040523 129.919199 
L 261.380542 128.73385 
L 261.720617 129.9947 
L 262.060636 126.174122 
L 262.400711 125.972171 
L 262.74073 129.385586 
L 263.080805 123.610745 
L 263.420824 123.796128 
L 263.760899 130.409589 
L 264.100974 127.169968 
L 264.440993 125.823187 
L 264.781068 129.189344 
L 265.121088 124.660416 
L 265.461163 123.765481 
L 265.801182 125.341768 
L 266.141257 129.629257 
L 266.481276 124.088773 
L 266.821351 123.988721 
L 267.16137 130.799841 
L 267.501445 121.090377 
L 268.181539 127.161726 
L 268.861633 123.381367 
L 269.201652 127.483603 
L 269.541727 124.86095 
L 269.881747 125.405894 
L 270.221822 128.720802 
L 270.561841 125.489507 
L 270.901916 129.364168 
L 271.241935 130.900923 
L 271.58201 129.586721 
L 271.922029 129.802879 
L 272.262104 135.561452 
L 272.602123 134.408295 
L 272.942198 134.941694 
L 273.282217 137.871285 
L 273.622292 134.499506 
L 274.302386 138.082851 
L 274.642461 135.601928 
L 274.982481 136.33028 
L 275.322555 138.583027 
L 275.662575 137.057174 
L 276.00265 137.450301 
L 276.342669 138.090319 
L 276.682744 140.59545 
L 277.022763 139.459333 
L 277.362838 141.89317 
L 277.702857 140.699966 
L 278.042932 140.729626 
L 278.382951 143.984785 
L 278.723026 140.749971 
L 279.063045 139.228968 
L 279.40312 142.63603 
L 279.743139 141.187523 
L 280.083214 140.537032 
L 280.423234 141.758994 
L 280.763309 138.081692 
L 281.103328 141.110048 
L 281.443403 139.0908 
L 281.783422 142.859657 
L 282.123497 143.442502 
L 282.463516 138.059801 
L 282.803591 144.266099 
L 283.14361 146.723071 
L 283.483685 137.752991 
L 283.823704 144.885042 
L 284.503798 142.916014 
L 284.843873 143.206084 
L 285.183948 141.705427 
L 285.523968 142.541858 
L 285.864042 139.76404 
L 286.204062 138.228057 
L 286.544137 145.020162 
L 286.884156 139.507793 
L 287.224231 137.091984 
L 287.56425 139.330952 
L 287.904325 140.758384 
L 288.244344 137.445451 
L 288.584419 139.454569 
L 288.924438 138.417432 
L 289.264513 139.711632 
L 289.604532 136.989056 
L 289.944607 135.429551 
L 290.284627 141.509485 
L 290.624701 134.092514 
L 290.964721 135.567547 
L 291.304796 139.518481 
L 291.644815 135.070332 
L 291.98489 138.422454 
L 292.324909 131.479862 
L 293.005003 136.817237 
L 293.345078 132.929185 
L 293.685097 136.967165 
L 294.025172 132.929914 
L 294.365191 138.336952 
L 295.045285 132.203536 
L 295.38536 138.404126 
L 295.72538 133.516751 
L 296.065455 134.721115 
L 296.405529 129.283387 
L 297.085624 134.905553 
L 297.425643 133.481726 
L 298.105737 130.225237 
L 298.445812 134.696477 
L 298.785831 131.648891 
L 299.125906 132.800159 
L 299.465925 130.250861 
L 299.806 134.206731 
L 300.146019 131.578112 
L 300.486094 132.293073 
L 300.826114 130.308378 
L 301.166188 129.142601 
L 301.506208 133.147017 
L 301.846283 132.099921 
L 302.186302 130.53033 
L 302.526377 129.520749 
L 303.206471 129.613161 
L 303.54649 132.042062 
L 303.886565 129.376358 
L 304.226584 131.335771 
L 304.566659 129.72931 
L 304.906678 135.959601 
L 305.246753 131.120558 
L 305.586773 133.34592 
L 305.926847 130.892253 
L 306.266867 132.632461 
L 306.606942 135.911571 
L 306.946961 129.715403 
L 307.287036 133.989414 
L 307.627111 127.496651 
L 307.96713 136.392604 
L 308.307205 131.664472 
L 308.647224 135.608152 
L 308.987299 131.426595 
L 309.327318 129.716776 
L 309.667393 131.751176 
L 310.007412 133.105038 
L 310.687506 132.717276 
L 311.027581 130.381389 
L 311.367601 131.667477 
L 311.707675 130.146259 
L 312.047695 135.304389 
L 312.38777 130.722022 
L 312.727789 134.165611 
L 313.067864 127.52528 
L 313.407883 134.531354 
L 313.747958 131.361739 
L 314.087977 138.444902 
L 315.108146 130.434613 
L 315.448165 131.00016 
L 315.78824 132.758525 
L 316.12826 137.750501 
L 316.468334 136.358953 
L 316.808354 139.731462 
L 317.148429 133.605558 
L 317.488448 138.082464 
L 317.828523 131.988752 
L 318.168598 136.597817 
L 318.508617 133.785618 
L 318.848692 137.279727 
L 319.188711 136.037248 
L 319.528786 136.631253 
L 319.868805 135.287778 
L 320.20888 137.007727 
L 320.548899 136.641426 
L 320.888974 143.910357 
L 321.228993 139.143381 
L 321.569068 141.442354 
L 321.909088 137.819692 
L 322.249162 137.769516 
L 322.929257 142.162809 
L 323.269276 146.334365 
L 323.609351 143.123115 
L 323.94937 146.912488 
L 324.289445 144.583511 
L 324.629464 145.423763 
L 324.969539 145.242072 
L 325.309558 145.716795 
L 325.649633 146.985328 
L 326.669747 152.729178 
L 327.009821 153.20961 
L 327.349841 151.218348 
L 327.689916 152.339098 
L 328.029935 149.417447 
L 328.37001 157.76837 
L 328.710085 151.237706 
L 329.050104 158.080245 
L 329.390179 155.683279 
L 329.730198 156.474985 
L 330.070273 157.625438 
L 330.410292 154.826631 
L 330.750367 156.575467 
L 331.090386 156.441892 
L 331.430461 157.897739 
L 331.77048 156.879187 
L 332.110555 160.27393 
L 332.450575 157.191234 
L 332.79065 163.777139 
L 333.470744 161.06877 
L 333.810763 162.425551 
L 334.150838 157.54925 
L 334.490857 161.173586 
L 334.830932 160.369561 
L 335.170951 157.857606 
L 335.511026 160.90987 
L 335.851045 155.68079 
L 336.19112 160.040002 
L 336.531139 160.444032 
L 336.871214 160.118078 
L 337.211234 160.382481 
L 337.551308 160.295949 
L 337.891328 159.853246 
L 338.231403 159.10442 
L 338.571422 160.190102 
L 338.911497 158.327565 
L 339.251516 158.225409 
L 339.931666 155.901068 
L 340.271685 159.365904 
L 340.61176 153.617933 
L 340.951779 156.88996 
L 341.631873 153.229698 
L 341.971948 156.406438 
L 342.311967 153.746228 
L 342.652042 154.489689 
L 342.992062 154.179874 
L 343.332137 152.674839 
L 343.672156 152.747421 
L 344.012231 152.351675 
L 344.35225 152.135946 
L 344.692325 149.943463 
L 345.032344 151.684873 
L 345.372419 148.775112 
L 345.712438 148.18424 
L 346.052513 150.424539 
L 346.392532 147.306345 
L 347.072626 149.912816 
L 347.412701 145.190908 
L 347.752721 147.306946 
L 348.092796 148.512168 
L 348.432815 144.211845 
L 349.112909 145.996736 
L 349.452984 144.742969 
L 349.793003 145.395348 
L 350.133078 144.748291 
L 350.473097 142.98396 
L 350.813172 143.947142 
L 351.153247 143.904992 
L 351.493266 144.867101 
L 351.833341 142.317502 
L 352.17336 142.541901 
L 352.513435 137.967475 
L 352.853454 139.328935 
L 353.193529 141.500729 
L 353.533549 139.319921 
L 353.873624 138.021686 
L 354.213643 138.71437 
L 354.553718 134.045986 
L 354.893737 133.122079 
L 355.233812 135.817099 
L 355.573831 132.04219 
L 355.913906 132.557175 
L 356.253925 135.599567 
L 356.934019 130.769752 
L 357.274094 132.859006 
L 357.614113 128.65968 
L 357.954188 130.76121 
L 358.294208 132.103055 
L 358.634283 131.327616 
L 358.974302 131.903636 
L 359.314377 129.424517 
L 359.654396 128.926615 
L 360.674565 130.071703 
L 361.014584 132.996315 
L 361.354659 130.725499 
L 361.694734 129.766395 
L 362.034753 131.923595 
L 362.714847 129.604148 
L 363.054922 133.179595 
L 363.394942 132.233754 
L 363.735016 126.602961 
L 364.415111 131.692157 
L 364.75513 130.488395 
L 365.095205 130.385767 
L 365.435224 132.202764 
L 365.775299 129.153633 
L 366.115318 128.666548 
L 366.455393 132.592972 
L 366.795412 128.06765 
L 367.135487 127.542492 
L 367.475506 131.337188 
L 367.815581 131.506474 
L 368.1556 127.683321 
L 368.495675 128.191481 
L 368.835695 130.808425 
L 369.17577 130.845381 
L 369.855864 128.106409 
L 370.195883 131.479176 
L 370.535958 130.087198 
L 370.875977 126.18335 
L 371.216052 128.271789 
L 371.556071 132.056827 
L 371.896146 130.960457 
L 372.236221 129.269523 
L 372.57624 131.361739 
L 372.916315 132.03146 
L 373.256334 130.588061 
L 373.596409 131.382128 
L 373.936429 134.147369 
L 374.276503 133.704709 
L 374.616523 131.136267 
L 375.296617 139.50805 
L 375.636692 137.559281 
L 375.976711 136.707527 
L 376.316786 138.458809 
L 376.656805 140.894105 
L 376.99688 137.284964 
L 377.336899 137.89691 
L 377.676974 139.808251 
L 378.016993 132.266375 
L 378.357068 61.474194 
L 378.697088 57.656364 
L 379.037162 128.56289 
L 379.377182 133.848156 
L 379.717257 132.651991 
L 380.057276 135.664895 
L 380.397351 135.63897 
L 380.73737 135.233095 
L 381.077445 133.503274 
L 381.417464 132.913647 
L 381.757539 133.14487 
L 382.097558 132.119751 
L 382.437633 132.411496 
L 382.777652 132.511892 
L 383.457802 131.715164 
L 383.797821 130.271164 
L 384.137896 130.71009 
L 384.81799 129.702698 
L 385.15801 129.824126 
L 385.498085 128.715093 
L 386.518198 131.860328 
L 386.858273 131.445868 
L 387.198292 130.687384 
L 387.538367 132.073696 
L 387.878386 134.624453 
L 388.218461 135.417404 
L 388.55848 135.164676 
L 388.898555 134.558696 
L 389.238575 135.803707 
L 389.578649 131.658849 
L 389.918669 63.338277 
L 390.258744 60.095565 
L 390.598763 127.149064 
L 390.938838 135.083939 
L 391.278857 135.906807 
L 391.618932 135.373451 
L 391.958951 138.269091 
L 392.299026 140.097806 
L 392.97912 138.153329 
L 393.319139 138.47469 
L 393.659214 139.981786 
L 393.999234 142.133321 
L 394.339308 140.378476 
L 394.679383 141.165418 
L 395.019403 141.517126 
L 395.359477 142.672514 
L 396.379591 139.592908 
L 396.719666 141.270192 
L 397.059685 142.331581 
L 397.39976 142.851244 
L 397.739779 141.630527 
L 398.079854 141.857973 
L 398.759948 146.221736 
L 399.099967 145.246579 
L 399.440042 146.028542 
L 400.120136 147.908162 
L 400.460156 147.34107 
L 400.800231 145.682242 
L 401.14025 146.130397 
L 401.480325 145.807619 
L 401.820344 152.602643 
L 402.160419 151.622206 
L 403.180532 154.831911 
L 403.520607 154.699666 
L 403.860626 155.078458 
L 404.540721 157.720984 
L 404.880795 159.007157 
L 405.22087 159.387623 
L 405.56089 158.274985 
L 405.900965 159.17052 
L 406.240984 161.277287 
L 406.581059 162.433492 
L 406.921078 164.483601 
L 407.261153 164.853765 
L 407.601172 162.434393 
L 408.281266 164.082189 
L 408.621341 165.541942 
L 408.96136 168.100382 
L 409.301435 167.822631 
L 409.641454 165.978292 
L 409.981529 166.66501 
L 410.321549 169.026007 
L 410.661623 170.575424 
L 411.001643 171.131829 
L 411.341718 170.099843 
L 411.681737 168.283404 
L 412.361831 169.718605 
L 413.041925 173.520511 
L 413.382 174.014464 
L 414.062094 171.734376 
L 414.402113 173.764397 
L 415.082208 180.099162 
L 415.422282 181.080972 
L 415.762357 179.673671 
L 416.102377 172.881352 
L 416.442452 171.910616 
L 416.782471 180.467652 
L 417.462565 186.797653 
L 417.80264 186.86766 
L 418.142659 186.443542 
L 418.482734 186.59669 
L 418.822753 186.466077 
L 419.502847 191.520162 
L 419.842922 193.129757 
L 420.182941 194.117233 
L 420.523016 194.049716 
L 420.863036 193.092157 
L 421.203111 193.163623 
L 421.54313 194.413055 
L 421.883205 194.949673 
L 422.223224 196.955314 
L 422.563299 199.706735 
L 422.903318 200.431653 
L 423.243393 200.204335 
L 423.583412 200.165018 
L 423.923487 199.797344 
L 424.263506 199.676517 
L 425.283675 207.85605 
L 425.963769 209.799969 
L 426.303789 208.602258 
L 426.643864 208.336868 
L 426.983939 208.881255 
L 427.664033 210.932179 
L 428.344127 214.618281 
L 428.684146 215.046562 
L 429.36424 217.800257 
L 430.044334 217.771242 
L 430.384409 219.333751 
L 430.724428 219.7322 
L 431.064503 220.4163 
L 432.084617 224.232027 
L 432.424692 224.060981 
L 432.764711 225.045023 
L 433.444805 225.962535 
L 433.78488 226.927863 
L 434.124899 228.87895 
L 434.464974 229.625845 
L 435.145068 232.741592 
L 435.485087 234.448793 
L 435.825162 234.864111 
L 436.165182 236.699049 
L 436.845276 238.652797 
L 437.185351 240.669212 
L 437.52537 241.729571 
L 437.865445 244.864547 
L 438.20552 245.894473 
L 438.885614 249.998211 
L 439.225633 251.210729 
L 439.905727 251.36744 
L 440.245802 252.306799 
L 440.585821 252.008316 
L 440.925896 252.836206 
L 441.265915 254.146888 
L 441.60599 256.4799 
L 441.94601 258.001032 
L 442.286085 260.100416 
L 442.966179 265.997543 
L 443.306198 269.107881 
L 443.646273 270.948443 
L 443.986292 274.413665 
L 444.326367 275.621805 
L 444.666386 276.346467 
L 445.006461 276.501546 
L 445.34648 275.518791 
L 445.686555 273.928511 
L 446.026574 271.717271 
L 447.726838 255.203727 
L 449.087026 244.760889 
L 449.76712 242.18279 
L 450.107195 241.469503 
L 451.127308 243.528454 
L 451.807403 246.655575 
L 452.147477 250.12509 
L 452.487497 251.746574 
L 453.167591 257.386295 
L 454.867854 279.531533 
L 457.248156 319.833862 
L 458.268325 340.501149 
L 460.988701 389.797638 
L 461.328776 393.348405 
L 462.34889 408.299268 
L 463.028984 416.668948 
L 463.709078 424.375088 
L 464.729247 431.450181 
L 465.069266 435.293508 
L 465.74936 438.76637 
L 466.089435 442.680133 
L 466.769529 447.72772 
L 467.109549 448.432538 
L 467.449623 451.481897 
L 467.789643 453.38864 
L 468.129718 452.957926 
L 468.469737 453.227586 
L 468.809812 456.761734 
L 469.149831 458.008698 
L 469.489906 457.466968 
L 469.829925 459.269066 
L 470.17 462.119728 
L 470.510075 462.563414 
L 470.850094 462.298474 
L 471.190169 463.353854 
L 471.530188 465.188745 
L 471.870263 464.747579 
L 472.210282 465.817556 
L 472.550357 465.673079 
L 472.890377 467.6027 
L 473.230451 468.124955 
L 473.570471 468.113272 
L 474.59064 470.475247 
L 474.930659 470.421161 
L 475.270734 471.143337 
L 475.610753 471.293317 
L 475.950828 471.897129 
L 476.290847 471.739179 
L 476.970941 473.114421 
L 477.311016 473.41845 
L 477.651036 473.536092 
L 478.671205 474.542784 
L 479.011224 474.572925 
L 479.691318 475.460378 
L 480.031393 475.370378 
L 480.371412 475.503648 
L 480.711487 476.133489 
L 481.051506 476.440926 
L 481.731656 476.704419 
L 482.41175 477.089971 
L 483.091844 477.375577 
L 483.431864 477.637787 
L 486.832334 478.581443 
L 489.212692 479.113579 
L 490.232805 479.301902 
L 491.592993 479.57798 
L 492.953237 479.911024 
L 495.333539 480.51003 
L 496.693727 480.88216 
L 500.774292 481.445724 
L 501.794461 481.488749 
L 504.514838 481.626934 
L 506.55512 481.810059 
L 508.935477 482.17633 
L 512.675967 482.729664 
L 515.056325 482.85014 
L 522.53736 483.11912 
L 529.678377 483.678687 
L 535.459205 483.688041 
L 543.620334 484.222223 
L 550.081256 484.176468 
L 555.18199 484.528944 
L 557.562348 484.599909 
L 561.642912 484.518663 
L 564.703308 484.528014 
L 572.1844 484.883768 
L 581.365698 484.892518 
L 587.146471 485.090776 
L 594.967581 485.045344 
L 603.128766 485.226285 
L 609.249614 485.193307 
L 617.070724 485.374999 
L 623.871666 485.328166 
L 633.393039 485.440603 
L 638.153698 485.425179 
L 647.675016 485.537551 
L 652.77575 485.512841 
L 661.276955 485.633319 
L 667.057783 485.57968 
L 676.239026 485.683696 
L 681.680002 485.641996 
L 691.541283 485.719944 
L 696.64185 485.702319 
L 705.143166 485.783705 
L 710.923994 485.738487 
L 719.765162 485.81645 
L 726.226251 485.788978 
L 734.387158 485.845428 
L 740.167986 485.806206 
L 748.669302 485.875289 
L 754.789982 485.831804 
L 764.651264 485.862198 
L 770.432092 485.870981 
L 778.253704 485.896996 
L 784.033975 485.868236 
L 795.595631 485.861249 
L 800.696755 485.916149 
L 805.797321 485.944148 
L 813.618376 485.885815 
L 818.379091 485.983636 
L 818.379091 485.983636 
" clip-path="url(#p91ca631a40)" style="fill: none; stroke: #000080; stroke-width: 1.5; stroke-linecap: square"/>
   </g>
   <g id="patch_3">
    <path d="M 87.14 507.4 
L 87.14 36.24 
" style="fill: none; stroke: #000000; stroke-width: 0.8; stroke-linejoin: miter; stroke-linecap: square"/>
   </g>
   <g id="patch_4">
    <path d="M 853.2 507.4 
L 853.2 36.24 
" style="fill: none; stroke: #000000; stroke-width: 0.8; stroke-linejoin: miter; stroke-linecap: square"/>
   </g>
   <g id="patch_5">
    <path d="M 87.14 507.4 
L 853.2 507.4 
" style="fill: none; stroke: #000000; stroke-width: 0.8; stroke-linejoin: miter; stroke-linecap: square"/>
   </g>
   <g id="patch_6">
    <path d="M 87.14 36.24 
L 853.2 36.24 
" style="fill: none; stroke: #000000; stroke-width: 0.8; stroke-linejoin: miter; stroke-linecap: square"/>
   </g>
   <g id="text_16">
    <!-- Frequency vs Amplitude -->
    <g transform="translate(293.398438 30.24) scale(0.26 -0.26)">
     <defs>
      <path id="DejaVuSans-Bold-76" d="M 97 3500 
L 1216 3500 
L 2088 1081 
L 2956 3500 
L 4078 3500 
L 2700 0 
L 1472 0 
L 97 3500 
z
" transform="scale(0.015625)"/>
      <path id="DejaVuSans-Bold-73" d="M 3272 3391 
L 3272 2541 
Q 2913 2691 2578 2766 
Q 2244 2841 1947 2841 
Q 1628 2841 1473 2761 
Q 1319 2681 1319 2516 
Q 1319 2381 1436 2309 
Q 1553 2238 1856 2203 
L 2053 2175 
Q 2913 2066 3209 1816 
Q 3506 1566 3506 1031 
Q 3506 472 3093 190 
Q 2681 -91 1863 -91 
Q 1516 -91 1145 -36 
Q 775 19 384 128 
L 384 978 
Q 719 816 1070 734 
Q 1422 653 1784 653 
Q 2113 653 2278 743 
Q 2444 834 2444 1013 
Q 2444 1163 2330 1236 
Q 2216 1309 1875 1350 
L 1678 1375 
Q 931 1469 631 1722 
Q 331 1975 331 2491 
Q 331 3047 712 3315 
Q 1094 3584 1881 3584 
Q 2191 3584 2531 3537 
Q 2872 3491 3272 3391 
z
" transform="scale(0.015625)"/>
     </defs>
     <use xlink:href="#DejaVuSans-Bold-46"/>
     <use xlink:href="#DejaVuSans-Bold-72" x="61.935547"/>
     <use xlink:href="#DejaVuSans-Bold-65" x="111.251953"/>
     <use xlink:href="#DejaVuSans-Bold-71" x="179.074219"/>
     <use xlink:href="#DejaVuSans-Bold-75" x="250.65625"/>
     <use xlink:href="#DejaVuSans-Bold-65" x="321.847656"/>
     <use xlink:href="#DejaVuSans-Bold-6e" x="389.669922"/>
     <use xlink:href="#DejaVuSans-Bold-63" x="460.861328"/>
     <use xlink:href="#DejaVuSans-Bold-79" x="520.138672"/>
     <use xlink:href="#DejaVuSans-Bold-20" x="585.324219"/>
     <use xlink:href="#DejaVuSans-Bold-76" x="620.138672"/>
     <use xlink:href="#DejaVuSans-Bold-73" x="685.324219"/>
     <use xlink:href="#DejaVuSans-Bold-20" x="744.845703"/>
     <use xlink:href="#DejaVuSans-Bold-41" x="779.660156"/>
     <use xlink:href="#DejaVuSans-Bold-6d" x="857.052734"/>
     <use xlink:href="#DejaVuSans-Bold-70" x="961.251953"/>
     <use xlink:href="#DejaVuSans-Bold-6c" x="1032.833984"/>
     <use xlink:href="#DejaVuSans-Bold-69" x="1067.111328"/>
     <use xlink:href="#DejaVuSans-Bold-74" x="1101.388672"/>
     <use xlink:href="#DejaVuSans-Bold-75" x="1149.191406"/>
     <use xlink:href="#DejaVuSans-Bold-64" x="1220.382812"/>
     <use xlink:href="#DejaVuSans-Bold-65" x="1291.964844"/>
    </g>
   </g>
  </g>
 </g>
 <defs>
  <clipPath id="p91ca631a40">
   <rect x="87.14" y="36.24" width="766.06" height="471.16"/>
  </clipPath>
 </defs>
</svg>
